P2
# CREATOR: The GIMP's PNM Filter Version 1.0
100 100
255
50
38
48
70
74
68
90
129
142
149
177
151
70
73
78
66
82
69
51
51
77
77
58
50
54
44
66
61
74
75
64
53
70
80
182
223
226
217
219
191
240
242
214
158
84
47
39
34
30
31
37
41
33
36
41
39
29
25
60
142
187
212
181
118
55
33
49
45
36
34
36
33
35
37
41
41
36
32
30
35
36
37
36
32
35
30
24
31
39
36
33
36
32
27
24
24
24
28
40
53
52
46
56
67
79
81
119
134
137
147
165
196
135
67
67
70
82
77
52
45
60
99
57
44
41
41
67
69
66
81
92
50
62
60
144
250
248
229
225
238
238
196
125
49
36
41
40
43
39
34
37
37
41
43
38
32
36
25
26
60
126
162
162
121
76
45
35
44
47
41
47
40
33
36
45
43
36
32
31
27
27
33
37
36
35
30
25
33
28
27
31
30
27
24
25
25
28
24
43
59
65
61
63
70
72
93
113
128
130
150
164
191
179
103
49
61
86
90
62
53
62
84
79
41
31
36
65
66
84
102
114
63
59
60
119
242
255
255
217
129
67
35
47
53
37
38
41
43
44
40
45
41
45
47
37
31
30
32
26
25
54
111
134
125
89
49
24
32
47
47
55
54
45
39
43
45
42
35
30
30
29
31
36
37
34
28
25
31
29
25
29
32
30
28
26
30
35
31
37
56
73
65
65
61
73
95
102
114
132
152
164
177
186
150
89
56
76
89
67
42
41
71
85
51
40
54
61
68
84
90
141
122
74
77
139
252
250
191
67
28
32
30
38
43
41
40
40
42
51
47
41
40
41
42
40
34
28
31
30
25
26
57
94
91
81
65
35
32
44
55
51
55
56
40
37
40
43
45
36
31
33
36
38
40
40
35
28
31
36
32
33
33
35
41
37
37
39
42
47
58
80
83
69
61
70
91
104
125
133
144
157
163
161
164
129
77
74
86
74
51
33
57
100
84
55
84
69
61
79
56
163
211
154
138
110
191
121
43
40
31
30
27
30
34
36
42
41
48
54
43
46
40
39
37
38
41
31
29
30
28
24
28
52
56
68
74
50
28
28
46
61
63
59
54
37
28
41
51
38
33
33
40
43
50
48
44
35
39
47
40
28
32
34
45
37
38
41
41
36
61
84
76
63
63
73
87
108
120
130
139
146
145
139
139
142
124
90
88
104
61
34
40
98
122
84
62
69
66
86
56
97
133
104
77
43
38
46
33
32
29
25
26
26
28
33
39
38
39
48
41
40
36
41
40
41
49
39
32
33
31
29
27
30
59
73
72
51
30
26
33
53
85
72
57
40
32
45
57
38
36
33
37
52
44
38
51
48
50
51
42
33
35
39
54
46
42
42
44
35
62
77
61
65
79
92
89
101
114
126
140
146
149
142
134
144
148
131
115
114
84
39
38
89
133
80
50
68
52
50
53
57
37
37
38
40
40
36
36
31
29
25
27
25
24
30
36
34
33
31
35
35
32
35
35
44
55
45
32
32
32
32
27
24
39
84
72
53
42
31
31
37
73
88
62
44
35
48
63
46
36
49
41
59
48
48
61
58
73
52
42
47
34
39
52
49
53
52
37
40
62
78
60
58
77
98
103
108
117
130
135
146
153
162
147
151
161
156
131
108
108
56
49
107
175
93
67
78
47
38
41
49
54
51
46
43
37
35
39
42
38
28
25
28
28
38
36
34
29
29
34
40
36
36
33
39
41
40
37
34
28
24
30
28
24
43
61
47
52
43
30
47
56
96
82
55
42
43
49
43
48
51
49
64
70
46
44
57
81
55
41
48
42
38
42
53
56
49
51
49
58
78
69
55
80
101
107
110
123
133
142
141
141
156
166
168
165
159
145
116
130
123
61
68
199
131
72
58
52
57
68
75
75
83
84
74
84
74
69
45
49
49
37
38
45
36
36
31
28
35
32
40
45
44
41
45
46
38
35
39
32
26
25
25
24
26
43
49
55
57
41
52
61
80
103
67
55
46
39
47
54
46
47
53
57
50
45
44
73
71
53
56
59
47
57
40
44
57
61
55
55
80
72
65
88
104
113
116
126
137
155
158
160
166
163
158
158
170
180
156
147
195
112
64
209
215
102
74
95
96
114
100
109
104
110
117
124
92
100
73
55
72
66
53
63
47
40
29
28
36
37
39
50
49
43
47
47
40
36
36
32
30
27
26
27
24
27
44
61
59
44
37
56
78
109
96
66
57
38
53
49
43
46
61
63
63
48
43
63
65
51
63
60
43
62
58
53
49
52
56
53
85
79
82
97
106
116
126
130
141
159
158
164
163
160
153
154
159
177
216
228
243
162
90
177
243
106
93
129
199
188
188
226
196
184
147
143
133
116
114
90
87
103
80
63
48
43
26
26
34
40
43
51
53
49
51
46
44
41
37
34
32
28
29
26
24
24
31
54
58
47
37
36
74
112
127
98
65
52
52
64
52
47
57
71
71
44
43
45
44
41
55
65
52
53
60
48
41
49
61
64
95
95
88
99
107
115
115
125
140
162
157
143
158
165
155
158
154
162
211
245
255
229
189
185
202
91
143
222
255
250
254
255
255
248
217
228
239
210
148
105
87
99
83
73
65
58
36
32
34
33
36
42
50
54
52
49
43
42
42
38
31
33
39
34
28
25
25
40
52
45
40
28
55
113
152
119
62
45
37
58
54
45
42
60
75
54
54
61
57
48
54
60
65
60
60
51
46
51
56
74
99
123
105
99
107
122
121
118
137
156
154
150
145
162
161
154
152
177
204
223
241
253
255
239
123
112
196
252
255
255
255
255
255
255
254
255
255
253
215
133
98
91
91
80
85
92
54
41
38
25
30
35
39
47
46
45
41
38
38
43
42
40
37
37
38
25
24
32
49
51
42
31
44
94
155
141
71
56
43
43
63
63
51
56
88
65
61
51
49
52
65
60
67
68
54
70
52
41
46
73
93
125
118
114
107
121
120
125
129
139
140
144
153
171
171
159
163
186
200
210
226
249
254
182
93
178
226
253
255
255
255
255
255
255
255
255
255
255
248
195
164
145
132
97
90
100
70
59
39
33
37
33
30
45
36
39
42
42
40
41
44
48
48
38
34
26
28
34
41
42
46
42
45
76
137
168
99
58
56
57
63
67
58
52
77
76
67
60
43
54
73
66
75
88
74
71
67
55
47
64
93
115
121
117
119
119
122
125
129
134
141
153
166
175
178
174
178
199
215
229
247
254
225
79
110
213
237
253
255
255
255
255
255
255
255
255
255
255
254
226
201
190
149
113
94
103
70
62
65
43
42
34
34
42
42
43
40
41
34
29
44
50
49
49
43
32
29
32
31
35
43
42
43
57
98
156
140
62
56
61
66
68
68
63
65
68
65
63
48
45
71
70
93
100
95
79
82
66
53
49
89
129
119
115
115
115
127
126
129
145
146
151
165
177
179
184
194
218
235
229
254
220
74
64
121
151
165
198
243
248
248
249
252
255
253
252
255
254
238
208
184
125
133
124
95
82
87
88
88
64
36
37
47
47
43
42
37
43
46
39
47
50
50
41
39
33
31
32
33
34
41
47
37
44
69
82
116
96
69
55
86
70
59
60
64
73
68
53
52
60
67
76
79
111
114
82
81
83
63
48
98
127
123
119
117
120
129
129
135
140
143
145
164
181
170
162
181
214
242
249
236
99
37
78
120
129
111
100
127
140
152
162
192
218
201
178
204
209
194
158
139
110
105
106
94
74
99
89
93
78
40
35
38
51
44
51
47
49
60
53
55
54
44
33
29
32
30
34
31
36
43
48
38
32
44
59
53
75
81
64
86
79
61
56
57
79
96
64
63
87
73
110
99
95
108
86
80
82
62
55
102
123
136
131
122
126
129
130
143
144
140
140
145
162
154
149
169
221
253
248
118
49
56
64
88
101
99
91
100
113
111
122
151
137
119
112
123
136
130
116
104
102
93
90
104
96
85
94
110
77
56
41
41
49
70
75
52
35
35
36
46
42
34
34
31
32
32
29
31
33
44
47
37
29
29
57
54
47
87
100
86
91
86
48
44
63
113
107
75
96
132
148
157
146
120
73
84
76
57
51
103
132
127
129
124
122
127
136
138
142
135
135
142
143
137
145
166
220
252
196
51
57
38
56
46
92
100
103
97
97
111
102
128
108
97
103
117
123
118
103
111
104
83
81
89
85
80
109
148
86
61
48
43
60
76
70
47
33
31
27
26
31
35
39
35
31
33
33
31
33
37
47
36
25
25
47
64
54
75
107
110
105
116
82
48
45
79
112
90
77
109
139
143
142
115
75
72
63
42
41
100
131
124
127
127
125
128
131
133
134
139
147
139
149
145
135
135
190
201
107
50
51
39
64
60
97
94
88
64
83
83
79
88
82
73
82
84
99
92
89
105
100
79
74
86
91
70
77
137
100
56
52
48
84
75
55
52
47
35
27
30
31
30
40
41
33
30
36
37
32
33
37
39
32
27
34
65
64
67
80
101
101
113
102
61
47
87
115
80
61
88
109
103
88
86
67
54
40
26
30
101
150
137
128
134
132
129
135
138
135
152
153
143
147
149
134
139
159
158
67
63
52
39
47
116
85
53
64
50
78
83
70
65
62
59
53
88
86
69
65
72
94
80
75
64
68
57
77
123
108
55
53
57
87
82
87
72
71
47
37
30
26
25
33
46
46
32
33
39
33
29
33
31
35
37
30
52
68
60
52
61
75
77
77
57
52
73
74
58
61
73
72
58
50
43
39
31
25
24
24
102
133
129
133
138
139
139
139
138
142
150
146
134
157
146
164
179
177
141
125
104
59
52
70
71
51
52
52
56
40
63
58
59
66
71
78
75
83
58
55
59
73
79
75
62
48
50
70
97
107
68
58
55
69
84
107
103
92
61
41
32
27
25
27
38
39
30
31
30
31
34
32
34
32
33
37
41
55
57
53
54
43
43
41
51
64
57
39
46
49
47
39
36
34
30
28
24
25
24
24
99
127
127
140
141
145
144
142
145
149
160
140
126
139
140
223
222
183
209
201
149
74
80
69
61
77
47
52
72
53
55
60
51
58
61
52
47
53
64
59
72
76
74
82
43
35
40
66
97
108
69
57
63
67
89
95
86
84
63
41
37
36
26
31
29
36
35
31
31
35
36
34
30
32
31
31
36
38
53
65
60
51
45
48
45
44
34
32
33
37
44
36
27
25
25
25
26
24
24
24
94
121
123
128
131
135
139
146
147
149
153
146
129
120
205
242
238
253
250
184
172
103
104
96
106
82
67
69
97
46
41
54
47
50
39
53
34
34
55
48
55
54
49
68
39
41
34
60
92
116
91
60
72
77
84
104
88
84
76
59
52
45
42
46
50
49
56
39
34
33
44
33
30
33
29
28
35
41
48
61
56
54
46
44
37
30
30
31
34
42
45
45
27
26
25
24
24
24
24
24
87
116
121
126
126
129
130
144
142
149
152
156
141
135
242
254
248
255
247
228
222
167
165
119
141
186
149
84
84
59
34
56
83
78
50
41
42
41
49
55
44
35
46
39
35
29
40
71
98
121
108
72
61
60
80
99
90
90
89
82
56
44
56
57
64
49
50
42
44
44
47
36
34
48
39
42
39
34
32
41
45
39
34
35
30
29
32
42
43
48
53
51
38
29
24
24
25
24
24
25
92
107
112
123
125
129
133
136
141
149
150
157
144
128
241
255
255
255
255
255
250
170
162
165
195
248
185
128
82
70
48
76
78
54
71
57
50
76
76
50
80
73
44
33
45
33
47
75
106
106
94
73
69
52
75
90
74
72
84
80
73
55
49
58
67
77
46
37
47
50
66
64
49
58
43
42
47
29
28
31
30
29
30
28
31
41
50
56
55
55
55
56
45
34
25
24
26
26
24
25
98
117
109
123
125
134
142
137
150
151
153
161
137
124
215
255
255
255
255
255
248
178
158
220
245
254
212
122
93
137
170
160
84
50
71
128
85
92
39
61
94
93
126
53
64
82
45
60
122
124
92
70
84
61
76
85
57
76
88
85
78
55
61
57
62
70
45
48
51
52
60
69
67
62
54
40
58
36
28
45
35
25
31
32
39
43
53
56
50
51
59
51
48
45
28
24
25
26
24
24
91
126
125
126
128
135
144
139
146
145
166
177
157
146
177
255
255
255
255
255
255
243
243
254
255
255
253
196
105
195
252
227
136
101
118
181
130
174
96
88
111
97
160
123
85
94
61
71
135
114
105
94
90
75
84
74
63
72
74
89
78
56
64
63
44
65
62
46
45
46
53
61
58
46
46
47
59
52
60
82
35
30
40
46
44
42
53
57
56
46
51
49
42
40
32
24
25
24
24
24
85
113
127
125
127
132
136
135
142
153
164
174
176
171
167
240
255
255
255
255
255
255
255
255
255
255
255
247
213
225
214
107
73
130
194
205
162
166
158
139
101
128
124
149
88
136
106
86
129
123
101
103
95
84
77
76
69
64
65
82
74
58
61
65
55
51
70
57
47
47
54
57
47
43
37
36
51
57
54
66
44
44
56
48
39
41
44
56
59
60
52
46
41
37
36
26
25
28
25
25
88
109
122
122
121
123
125
132
139
141
150
171
159
179
176
246
246
254
255
255
255
255
255
255
255
244
250
250
231
249
234
137
129
166
206
209
171
133
253
204
122
107
166
131
109
111
91
89
117
115
129
93
86
80
77
91
73
50
50
70
68
62
63
73
70
54
59
51
48
51
57
53
48
42
30
28
35
43
42
42
45
46
54
46
43
43
39
52
58
74
62
44
44
40
41
26
25
28
28
24
78
100
113
121
117
118
128
137
136
139
159
185
163
134
199
255
214
178
221
253
255
255
255
255
249
172
200
169
138
186
148
152
151
149
183
208
136
144
237
224
180
137
180
184
187
103
102
97
100
91
97
80
89
77
83
98
77
62
54
51
56
64
71
57
59
61
52
50
60
61
55
43
42
34
28
25
30
38
49
48
38
45
53
43
33
45
52
44
58
90
72
45
46
47
44
31
27
29
31
24
79
101
117
124
122
111
130
160
147
156
171
199
195
174
248
255
187
89
104
211
255
255
255
255
242
148
133
107
94
118
109
117
132
207
227
174
95
174
177
197
209
162
202
218
154
103
131
128
97
83
104
99
118
71
77
118
103
73
56
56
63
54
74
70
57
53
47
49
60
66
59
41
47
35
30
30
31
50
52
60
53
44
56
48
37
39
68
54
63
85
81
59
58
52
48
38
26
30
32
25
84
97
107
114
119
125
140
180
152
164
174
199
213
185
254
255
210
87
70
119
235
255
253
223
157
68
84
63
62
76
96
99
129
211
187
186
178
200
173
168
161
168
232
201
154
163
143
122
91
95
81
81
132
87
93
126
118
70
67
69
54
47
55
61
54
63
56
61
65
57
58
55
58
54
32
30
37
68
61
56
56
42
52
47
44
45
56
70
80
71
81
72
61
60
57
46
29
29
30
25
84
100
102
103
123
143
163
161
144
167
178
200
190
226
255
255
249
158
76
52
173
248
165
52
38
55
63
54
52
33
42
68
110
101
135
157
227
241
247
201
193
221
230
177
180
190
158
111
105
104
83
92
92
124
157
150
105
67
67
59
46
51
42
47
54
59
65
66
63
53
54
56
59
48
38
38
49
45
57
57
58
59
54
56
60
59
57
80
84
76
84
53
79
67
68
44
25
35
37
24
78
93
96
99
111
128
180
175
146
164
178
193
196
250
255
255
255
195
59
69
143
82
43
47
48
51
61
54
37
30
29
32
52
59
71
90
182
246
255
217
210
193
141
167
228
204
175
147
120
101
86
101
114
158
169
161
111
77
61
52
40
45
38
36
46
55
66
71
71
52
48
57
59
52
48
45
58
58
57
58
55
60
58
69
64
56
64
84
88
79
81
57
82
78
74
47
25
39
37
28
81
98
101
109
116
130
178
185
148
148
181
208
233
255
255
255
255
221
86
134
67
61
67
75
59
59
64
40
39
37
35
27
34
40
51
36
75
196
254
252
229
122
131
215
221
203
186
160
122
94
87
96
103
154
180
158
106
87
42
40
34
35
34
32
40
53
61
68
65
54
49
50
59
64
67
61
51
62
58
55
51
48
62
90
68
58
56
79
87
86
78
54
67
89
74
63
29
32
33
26
87
102
102
103
91
115
160
172
167
163
186
126
182
254
255
255
255
255
187
115
85
91
102
92
74
74
65
50
52
44
40
37
51
49
35
35
52
163
235
220
135
123
209
238
234
214
187
150
139
110
96
108
88
165
188
121
89
69
57
44
35
32
33
34
53
53
64
68
69
61
44
50
84
83
79
65
53
68
61
62
65
50
69
95
83
60
51
66
86
93
79
50
57
86
59
65
48
32
29
33
84
94
97
111
104
122
159
158
166
163
158
125
206
255
255
255
255
255
250
152
89
124
137
109
121
103
79
83
95
72
75
104
85
65
53
33
78
187
170
116
116
195
246
254
251
232
214
192
158
120
106
102
99
159
136
100
91
71
50
37
33
31
31
38
56
55
67
71
74
69
48
51
70
103
96
77
53
54
65
48
50
50
62
80
88
68
60
61
82
88
91
48
63
91
44
48
33
28
35
37
93
113
116
122
123
149
151
155
162
147
142
140
230
255
254
255
255
255
255
237
172
161
215
207
213
184
147
105
113
108
187
194
163
115
64
44
143
210
84
136
222
248
255
255
255
249
232
211
171
158
131
114
100
155
113
88
62
58
47
42
36
28
27
31
44
55
58
60
71
61
50
52
60
84
99
97
64
43
52
48
48
55
52
46
63
83
61
64
79
96
99
60
66
66
39
34
26
31
33
34
88
111
132
129
154
176
146
161
170
185
144
166
246
255
237
246
255
255
255
255
239
221
253
255
255
254
226
139
100
115
242
250
241
170
73
62
107
108
150
234
255
255
255
255
255
254
251
244
218
201
181
159
104
121
109
77
48
40
47
39
31
25
25
28
42
44
37
48
61
48
52
47
45
64
101
126
97
73
61
49
44
35
29
34
46
89
77
58
63
74
84
66
69
46
35
30
27
28
26
31
74
94
121
147
147
162
147
180
151
197
164
179
252
255
244
189
247
255
255
255
255
255
255
255
255
255
244
155
91
95
213
255
250
187
100
78
84
168
247
255
255
255
255
255
255
255
255
255
246
226
221
144
108
96
92
70
49
35
45
35
29
25
26
30
35
32
34
44
47
39
60
50
31
39
95
151
156
140
111
77
40
32
34
39
53
95
109
57
60
65
78
69
66
69
42
40
29
24
24
25
78
104
113
153
141
151
163
196
180
201
176
222
255
255
252
233
245
255
255
255
255
255
255
255
255
255
239
157
91
88
161
223
220
156
125
121
217
252
255
255
254
254
255
255
255
255
255
255
255
253
219
156
132
121
91
76
61
38
38
35
31
24
25
28
27
28
29
39
44
40
67
60
34
32
109
217
236
218
159
120
52
31
40
54
60
89
102
91
89
77
87
59
64
78
45
39
37
28
24
26
83
100
121
158
142
171
193
202
199
210
232
254
255
255
233
238
254
255
255
255
255
255
255
255
253
243
203
144
73
59
97
118
131
110
134
240
255
255
255
255
250
251
255
255
255
255
255
255
255
244
195
200
141
126
99
78
69
36
36
37
32
26
24
24
24
24
26
31
42
62
87
67
30
33
73
170
246
253
204
144
68
39
43
48
64
83
100
109
100
60
73
47
60
84
47
39
40
28
25
32
112
146
153
163
135
179
222
217
240
244
251
255
255
255
254
227
198
240
255
255
255
255
255
254
254
232
165
111
56
44
70
82
94
147
196
251
252
251
255
255
255
254
255
254
255
255
255
255
251
188
219
229
172
132
85
62
71
46
39
38
32
24
24
26
24
25
26
32
42
82
83
75
48
44
65
110
174
236
193
122
82
53
42
40
60
93
94
108
101
55
69
48
69
94
56
40
39
27
24
32
111
215
195
172
138
151
219
212
246
255
255
255
255
255
255
252
222
168
213
242
255
255
254
247
244
220
137
92
86
67
91
110
158
225
206
187
224
251
255
255
255
255
254
235
232
245
253
251
255
206
246
235
207
126
64
57
77
56
47
41
33
27
25
26
25
25
25
31
41
76
67
56
52
48
68
102
107
154
148
119
82
59
49
43
64
91
109
123
91
64
74
51
80
93
50
42
44
26
24
29
91
194
230
206
192
168
192
185
229
255
255
255
255
255
248
205
180
142
116
128
241
255
255
253
238
229
175
141
120
115
148
208
184
144
120
159
246
255
255
255
255
255
243
213
211
226
253
254
254
250
196
195
165
122
76
78
69
60
56
43
42
29
27
28
26
25
27
34
51
57
71
66
48
37
49
71
75
77
120
130
78
65
52
45
59
89
108
119
95
79
70
56
78
85
50
47
51
28
26
28
94
181
253
235
238
236
230
206
223
255
255
255
255
255
254
200
113
101
100
95
181
255
255
255
255
244
185
132
114
102
142
180
140
115
114
178
252
255
255
255
255
255
247
224
229
235
247
244
246
235
171
207
182
95
94
75
77
61
65
49
45
41
33
28
28
28
33
41
43
42
49
40
44
42
48
65
126
115
101
136
96
78
57
43
52
100
84
98
103
84
66
59
73
89
72
49
57
38
32
26
103
206
254
253
254
255
255
251
250
254
255
255
255
255
255
254
220
134
89
91
121
251
255
255
255
245
179
122
115
104
122
120
114
102
100
198
255
255
255
255
255
255
251
240
239
222
202
226
217
199
218
166
144
113
103
89
67
52
57
52
63
62
47
37
34
32
35
35
44
52
56
52
63
57
68
99
169
217
112
119
126
97
57
39
55
97
93
98
86
80
61
74
76
101
74
46
54
55
32
27
145
195
233
255
255
255
255
255
255
255
255
245
195
252
255
255
255
242
160
111
137
230
255
255
250
215
159
132
127
124
124
95
104
77
101
235
255
255
255
255
252
246
236
204
141
133
176
193
227
240
227
158
135
132
95
88
64
54
49
52
50
52
49
49
43
40
43
42
46
57
55
56
93
81
98
105
123
204
96
74
127
87
44
41
60
100
102
97
86
75
60
93
91
109
68
60
73
43
27
26
163
240
235
254
255
255
255
255
255
255
255
254
174
242
255
255
255
255
244
148
122
202
255
255
243
213
187
147
133
144
153
110
172
132
195
255
255
222
170
251
240
234
235
215
144
126
188
206
220
200
208
222
192
122
108
94
71
49
47
47
52
61
60
66
47
44
44
41
44
49
47
44
53
71
87
93
56
46
33
55
94
49
39
48
56
103
109
110
102
78
70
101
105
110
75
78
67
35
25
24
151
250
255
253
255
255
255
255
255
255
255
255
206
194
255
228
159
149
198
215
137
144
254
255
251
227
192
154
122
95
115
184
249
222
249
255
253
220
164
194
195
186
182
207
240
231
174
143
114
206
255
228
138
138
177
154
76
51
66
57
66
65
64
53
48
42
39
46
55
52
52
61
84
98
106
80
47
26
38
49
58
33
40
54
79
105
97
101
87
81
101
113
113
94
93
86
76
47
27
27
168
255
255
255
255
255
255
255
255
255
255
246
138
170
255
242
219
182
155
162
164
137
239
255
255
250
226
158
119
102
114
203
222
193
229
239
170
114
89
110
124
110
104
102
111
111
116
150
151
217
240
141
124
145
155
148
101
64
58
44
49
66
65
45
37
33
41
52
63
44
46
55
97
104
87
67
53
41
53
61
59
29
38
50
57
80
94
79
82
80
91
102
123
131
94
122
130
80
48
29
168
255
255
255
255
255
255
255
255
255
255
232
89
130
210
253
255
245
239
231
239
236
251
255
255
255
255
197
115
112
142
203
168
132
181
121
79
102
112
138
156
171
157
148
150
143
162
170
109
176
178
102
127
123
126
127
122
106
89
64
45
67
80
70
57
43
37
49
47
49
49
55
76
82
81
65
69
55
48
65
50
41
48
48
54
66
78
81
82
83
91
94
115
147
102
130
153
129
66
26
168
255
255
255
255
255
255
255
255
255
255
205
85
62
58
247
203
104
94
172
220
218
245
255
255
255
254
196
123
86
159
191
136
152
115
115
150
138
111
101
99
109
112
89
119
198
187
142
92
123
105
154
175
179
179
170
137
88
79
66
59
58
73
71
70
75
42
43
50
43
40
54
54
59
61
56
40
35
51
55
50
35
35
55
63
76
75
76
77
86
90
96
116
152
117
139
148
116
40
27
168
255
255
255
255
255
255
255
255
255
255
186
82
74
60
213
84
56
39
61
216
205
208
255
255
255
255
208
117
87
147
142
124
217
220
160
122
87
78
91
76
87
90
93
79
116
149
114
129
120
95
123
122
118
122
123
104
95
65
79
79
42
57
60
51
52
51
59
47
43
41
35
43
56
84
94
85
54
33
36
40
33
47
63
79
75
80
62
75
83
88
91
99
125
123
131
135
76
28
25
168
255
255
255
255
255
255
255
255
255
255
197
111
178
51
101
61
142
56
43
122
152
164
183
255
255
255
206
114
106
110
99
183
245
247
212
207
201
208
239
208
142
83
75
80
93
124
116
133
182
232
178
181
196
178
118
85
87
81
82
93
70
52
55
60
52
65
62
47
50
60
42
43
109
113
90
61
42
33
32
43
65
69
62
72
65
87
64
85
94
82
88
91
99
114
131
121
54
25
24
168
255
255
255
255
255
255
255
255
255
217
187
106
166
109
46
54
119
55
50
77
108
89
136
255
255
255
230
105
138
184
97
242
244
146
241
248
254
254
242
188
176
209
215
112
99
91
99
111
155
161
122
136
153
189
163
138
123
93
81
66
64
57
70
73
84
73
55
47
50
64
34
64
104
81
62
48
47
54
76
82
59
49
63
58
60
95
68
86
83
70
96
83
91
113
128
113
60
25
24
168
255
255
255
255
255
255
255
255
250
132
79
85
65
201
172
105
74
89
79
54
65
61
121
254
255
255
252
152
119
139
92
90
93
101
132
244
255
222
86
61
60
87
146
136
91
85
101
116
126
117
135
136
98
59
91
149
150
121
98
87
81
67
70
72
82
68
70
65
60
61
45
80
84
80
78
105
98
81
71
50
40
58
74
52
80
100
68
84
71
84
95
70
96
126
123
100
61
29
24
168
255
255
255
255
255
255
255
255
244
115
74
92
54
61
107
109
78
63
40
40
40
69
166
252
255
248
156
99
79
88
63
84
53
100
58
186
252
111
36
45
46
53
82
62
69
85
141
190
117
113
125
100
103
79
67
114
110
129
95
90
96
67
69
82
79
83
62
71
62
63
62
77
84
90
90
58
41
37
37
35
39
59
72
63
93
81
81
75
76
87
70
82
117
125
118
84
57
28
25
168
255
255
255
255
255
255
255
255
250
157
87
80
74
51
44
45
34
31
34
37
54
132
243
255
255
251
137
57
43
40
78
116
79
96
101
73
170
60
159
79
59
41
52
55
70
106
149
123
89
105
96
80
62
74
76
107
78
111
102
88
84
78
69
87
72
65
58
63
42
91
112
84
80
73
59
57
53
52
54
74
78
83
78
94
96
80
90
69
62
74
66
57
101
118
115
96
74
42
31
168
255
255
255
255
255
255
255
255
255
221
114
49
62
63
49
53
44
43
54
62
113
222
255
255
255
255
196
68
41
33
76
146
130
90
90
77
39
46
96
68
43
44
76
80
106
154
114
105
96
97
96
70
67
68
67
85
77
81
82
95
95
71
78
78
68
54
53
68
75
123
96
63
69
79
74
68
69
68
76
92
97
82
78
93
97
84
93
77
53
69
69
53
101
110
106
101
92
52
26
168
255
255
255
255
255
255
255
255
255
226
126
86
68
65
58
52
86
111
100
116
206
252
255
255
255
253
199
113
50
36
58
149
165
115
97
171
133
95
105
109
92
90
99
91
150
121
84
101
103
100
95
65
78
89
70
72
80
82
76
72
67
69
82
75
52
51
51
75
78
88
68
67
99
91
91
96
95
87
92
94
92
86
91
93
92
91
89
82
62
68
65
54
104
105
97
96
68
32
25
159
255
255
255
255
255
255
255
255
255
253
207
156
62
62
58
55
87
150
170
193
246
255
255
255
255
254
218
136
93
63
68
105
150
96
60
113
185
212
206
162
122
87
75
126
146
103
92
109
105
94
84
65
104
98
81
74
79
93
87
71
69
93
75
92
94
70
56
75
57
45
53
103
101
84
83
88
93
103
111
111
102
99
98
81
81
99
101
80
59
64
55
47
101
111
98
90
49
26
26
125
245
255
255
255
255
255
255
255
255
255
254
241
133
64
50
74
132
167
215
246
255
255
255
255
255
255
197
120
114
97
68
67
140
114
55
45
49
73
95
87
54
38
93
150
144
106
95
94
78
62
63
75
85
81
73
80
78
92
87
71
55
58
60
76
64
62
77
52
55
61
94
128
104
121
120
105
93
99
104
110
104
100
107
84
76
107
120
62
54
47
55
54
110
110
112
72
39
24
30
101
218
255
255
255
255
255
255
255
255
255
255
255
245
197
96
110
207
243
254
255
255
255
255
255
255
255
250
226
164
134
118
106
99
112
102
79
84
72
66
50
98
113
141
152
134
105
82
60
78
81
77
73
82
80
83
93
106
86
79
73
62
57
43
64
58
66
78
54
50
71
123
103
122
120
91
85
92
91
93
92
96
89
74
67
98
110
74
54
49
46
60
83
123
128
89
60
28
25
28
88
175
252
255
255
255
255
255
255
255
255
255
255
255
254
222
230
255
255
255
255
255
255
255
255
255
255
255
255
235
168
139
127
122
103
99
128
157
127
86
119
137
140
152
166
136
111
90
81
73
91
88
77
86
81
72
92
90
84
84
88
67
88
81
57
74
81
72
79
104
111
87
68
94
85
54
50
64
66
68
75
78
68
80
89
122
85
57
58
57
61
58
90
132
116
71
43
25
28
32
93
168
243
255
255
255
255
255
255
255
255
255
255
255
255
253
254
255
255
255
255
255
255
255
255
255
255
255
255
253
187
113
135
125
104
87
94
97
128
116
96
108
127
146
145
120
113
116
99
100
88
96
81
88
96
95
71
68
75
87
96
88
96
81
76
82
88
103
99
75
75
68
68
71
74
65
63
61
76
97
90
65
76
78
75
106
73
60
57
61
78
62
87
130
110
85
44
25
26
36
91
189
227
253
255
255
255
255
255
255
255
255
255
255
255
255
255
255
255
255
255
255
255
255
255
255
255
255
255
255
239
146
159
140
98
93
84
65
68
75
78
81
83
108
111
120
136
119
96
95
99
98
75
85
92
77
79
69
72
79
75
90
103
92
78
83
118
102
66
71
86
80
76
66
66
63
65
80
95
96
88
90
89
83
85
101
68
60
58
77
95
71
88
133
116
69
30
26
33
38
77
152
206
245
255
255
255
255
255
255
255
255
255
255
255
255
255
255
255
255
255
255
255
255
255
255
255
255
255
255
254
214
173
133
75
69
70
60
51
66
75
77
73
87
96
141
145
111
113
86
101
88
80
81
81
84
87
68
65
77
77
90
119
108
71
104
116
76
77
100
93
86
74
63
62
83
98
90
81
77
89
92
80
83
93
93
70
55
64
92
103
80
121
133
82
38
25
27
29
36
75
116
185
239
255
255
255
255
255
255
255
255
255
255
255
255
255
255
255
255
255
255
255
255
255
255
255
255
255
255
255
255
244
189
112
74
65
57
59
69
76
81
85
109
130
147
108
120
92
96
97
88
77
83
95
99
74
66
74
81
108
143
103
98
96
115
87
80
100
97
73
60
55
51
64
92
100
86
82
84
79
69
76
93
101
93
70
58
69
87
73
93
139
99
57
33
27
27
32
32
74
82
122
216
255
255
255
255
255
255
255
255
255
255
253
245
254
255
255
255
255
255
255
254
252
254
255
255
255
255
255
255
253
225
208
129
109
97
84
97
104
112
117
150
160
105
99
105
84
103
100
76
74
89
96
92
66
67
68
98
157
131
95
100
101
92
91
115
106
98
81
72
60
55
58
85
92
90
82
67
62
79
75
88
88
74
65
67
69
82
80
104
104
93
70
42
30
38
35
33
71
66
79
113
179
244
255
255
255
255
255
255
255
255
255
255
255
255
255
255
255
255
255
255
253
246
253
254
251
255
255
255
255
239
212
215
234
224
216
213
201
182
179
159
113
115
92
91
102
112
102
69
71
74
82
82
53
53
64
95
114
128
110
86
87
80
113
110
95
74
63
62
72
91
89
89
92
96
64
55
82
90
59
68
85
76
78
88
83
80
87
95
93
85
49
30
36
40
37
29
58
57
73
94
170
192
252
255
255
255
255
255
255
255
255
255
255
255
255
255
255
255
255
255
255
255
255
255
232
230
245
254
255
255
255
255
255
255
255
253
246
227
186
115
103
108
106
110
110
106
94
77
65
73
81
74
52
46
60
90
120
118
91
103
77
81
135
95
93
79
77
77
94
97
100
97
99
57
47
70
88
66
76
78
81
77
87
77
76
78
86
98
84
50
29
29
31
34
39
30
55
58
87
87
115
227
248
255
255
255
255
255
255
253
255
255
255
255
255
255
255
255
255
255
255
255
255
255
255
249
250
255
255
255
255
231
225
216
205
216
214
183
144
109
120
117
119
111
102
100
83
63
71
84
83
68
44
46
46
78
111
90
101
93
83
121
125
91
97
86
70
74
76
86
103
101
89
52
56
69
81
89
88
88
88
91
88
72
65
73
85
91
80
54
41
29
29
32
27
27
58
69
92
97
98
205
255
255
255
255
255
255
255
251
255
255
255
255
252
254
255
255
255
255
255
255
255
255
255
255
255
255
255
255
255
246
227
190
149
144
145
140
130
166
147
130
123
111
102
98
90
80
77
76
74
64
40
39
50
76
92
90
99
98
103
151
105
88
103
88
80
79
87
91
83
69
66
56
56
68
80
96
108
112
97
86
72
73
71
85
96
94
74
46
30
26
27
31
30
27
59
70
86
103
191
250
255
255
255
255
255
255
255
255
255
255
255
255
251
241
252
250
255
255
255
255
255
255
255
255
255
255
255
255
255
255
255
255
239
201
184
179
164
163
146
116
124
117
102
103
94
83
79
84
76
56
45
41
60
82
87
100
106
115
159
137
80
110
97
84
82
96
92
57
55
67
77
90
79
81
105
113
118
105
77
54
46
66
89
110
93
72
46
33
28
28
28
33
37
35
55
63
79
92
199
255
253
255
255
255
255
255
255
255
255
255
255
255
255
255
254
249
251
251
245
250
255
255
255
255
255
255
255
255
255
254
255
247
205
188
172
155
143
149
148
143
139
124
106
97
88
83
92
94
74
62
50
57
85
83
102
105
103
164
153
93
104
119
91
87
88
82
51
41
66
77
83
93
102
97
103
117
116
92
68
47
46
73
116
104
68
47
33
30
27
29
31
37
43
38
56
59
72
110
233
255
255
255
255
255
255
255
255
255
255
255
255
255
255
255
255
255
255
255
253
254
254
255
255
255
255
255
255
255
255
255
255
252
232
207
169
156
149
147
142
136
100
115
108
101
97
94
95
93
74
58
53
58
63
77
99
80
121
147
118
115
131
118
86
71
49
39
38
50
62
78
93
98
99
79
61
52
64
78
76
78
95
129
121
95
68
48
33
29
27
28
32
41
40
38
58
55
61
87
217
255
255
255
255
255
255
255
255
255
255
255
255
255
255
255
255
255
255
255
255
255
255
255
255
255
255
255
255
255
255
252
235
237
227
191
152
146
137
119
105
124
122
122
98
102
104
103
91
76
64
51
41
43
69
103
84
83
99
109
107
133
107
101
86
67
47
50
61
70
71
76
89
106
95
51
56
51
65
68
70
103
118
139
131
103
75
44
33
28
31
29
26
31
44
46
53
53
58
61
155
255
255
255
255
255
255
255
255
255
255
255
255
255
245
243
248
251
251
252
255
255
255
255
255
255
255
255
255
255
255
250
214
206
205
160
150
133
123
134
138
119
113
96
94
101
86
91
88
66
65
44
36
51
87
86
73
85
97
92
121
98
84
90
88
76
73
81
93
89
92
92
93
97
85
70
72
59
87
97
109
114
116
127
120
98
63
40
34
31
34
30
27
26
39
43
54
41
51
70
138
247
255
255
255
255
255
255
255
255
255
255
255
255
255
249
219
207
201
191
207
230
251
253
253
255
255
255
255
255
255
255
255
255
255
243
190
170
153
160
128
101
99
114
105
108
101
88
80
58
52
39
37
40
68
62
63
78
85
119
98
83
83
91
89
81
80
80
79
82
91
99
84
90
103
99
94
75
88
108
116
109
111
120
98
64
36
31
34
34
31
26
25
25
31
36
50
38
47
71
111
178
251
255
255
255
255
255
255
255
255
255
255
255
255
255
255
255
254
245
239
237
247
238
223
227
237
244
253
251
248
246
247
231
211
189
147
134
153
132
130
116
96
111
93
117
99
77
74
50
39
34
38
46
51
48
64
92
95
116
102
79
82
91
90
83
78
77
73
87
103
93
86
106
136
105
89
95
114
116
103
108
124
95
63
36
30
32
37
36
27
27
27
24
27
34
48
38
46
56
86
112
195
255
255
255
255
255
255
255
255
255
255
255
255
255
255
255
255
255
255
255
255
255
254
245
238
242
253
247
238
243
247
240
231
234
212
164
190
158
135
104
90
123
117
114
109
89
66
52
32
30
30
37
53
47
71
102
107
106
91
94
87
85
84
78
75
69
80
106
123
119
115
133
167
142
130
126
118
106
113
133
99
57
43
32
30
35
36
33
26
27
27
26
29
30
46
38
45
56
63
74
98
144
243
255
255
255
255
255
255
255
255
255
255
255
255
255
255
255
255
255
255
255
255
255
255
255
255
255
255
255
255
255
244
214
186
149
138
133
114
136
147
123
115
124
112
79
67
56
31
32
34
35
47
65
87
85
94
100
113
102
91
78
82
96
102
105
103
105
107
111
126
156
192
164
136
127
121
119
130
109
65
42
33
29
36
40
37
28
27
27
26
24
27
30
52
40
44
56
60
64
88
106
223
255
255
255
253
255
255
255
255
255
255
255
255
255
255
255
255
255
252
255
255
255
254
255
255
255
253
243
222
213
205
183
176
171
161
154
141
127
109
98
96
102
84
79
60
45
38
39
37
37
59
66
75
65
116
127
104
87
81
79
100
97
99
100
86
96
99
127
164
193
180
168
143
126
118
116
106
80
47
35
29
37
37
39
32
26
26
26
26
29
27
31
51
37
38
43
54
55
73
107
168
249
255
255
255
255
255
255
255
255
255
255
255
255
255
255
253
241
238
254
255
255
253
249
249
246
255
253
239
246
250
223
196
175
151
131
120
109
107
100
104
103
71
78
76
45
41
41
45
42
65
76
83
113
144
131
91
92
74
80
90
66
67
60
80
108
138
145
152
151
142
134
114
104
108
86
72
64
41
30
31
36
39
28
28
24
25
26
24
25
31
40
54
36
29
32
43
51
65
81
149
251
255
255
255
252
255
255
255
255
255
255
255
255
255
246
253
241
226
244
234
247
255
253
230
205
232
232
241
239
196
168
159
153
143
128
125
123
112
98
107
107
74
88
77
48
52
67
48
65
77
78
103
153
133
109
101
97
88
86
83
63
68
103
107
90
96
90
110
140
146
106
88
119
95
64
49
50
35
26
31
35
26
24
24
25
24
25
28
28
29
44
53
31
33
35
43
44
59
87
157
253
255
255
255
254
246
252
255
255
255
255
255
255
255
254
249
232
209
226
185
212
239
195
196
218
197
208
173
174
166
157
158
127
122
137
141
136
113
102
103
110
102
76
74
65
68
69
62
69
87
102
119
157
125
94
104
114
99
72
64
65
66
93
88
72
61
63
78
82
77
77
94
109
68
53
43
34
33
31
35
29
27
25
24
24
26
24
26
24
33
46
50
37
39
36
36
39
51
87
202
251
255
255
255
254
250
247
251
255
255
255
255
255
255
255
255
242
208
218
196
200
168
140
167
163
185
184
168
159
142
148
164
129
126
129
118
115
117
95
103
99
101
86
65
71
79
79
74
51
68
93
154
148
106
119
116
103
75
49
41
47
58
68
77
67
47
41
48
59
83
99
111
107
87
63
46
38
32
28
27
27
24
24
24
24
25
25
26
29
42
51
56
49
41
36
34
33
46
90
159
247
255
255
255
255
255
254
251
255
255
255
255
255
255
255
255
254
229
153
152
122
122
168
161
144
181
184
190
144
125
146
128
114
131
109
121
126
129
98
97
100
101
92
65
62
50
58
61
59
70
110
149
96
107
129
103
92
84
65
46
45
62
74
60
46
35
47
54
62
100
122
99
69
48
41
44
39
31
30
28
26
25
24
24
24
24
26
25
25
31
35
63
52
38
33
31
28
32
85
199
252
255
255
255
255
255
255
255
255
246
237
240
246
241
237
253
234
249
221
191
123
99
181
182
141
180
214
148
136
132
134
106
111
135
93
127
139
122
101
95
92
101
94
73
69
65
76
65
75
91
98
81
67
91
98
105
99
95
85
73
66
78
53
33
27
33
48
57
74
86
78
54
36
30
28
37
34
29
30
26
26
24
25
25
24
24
25
24
24
27
39
57
47
34
29
28
25
31
65
116
247
255
255
255
255
255
255
255
255
253
242
228
220
218
226
209
215
240
191
214
197
138
164
171
156
146
170
167
173
141
114
123
133
122
110
96
104
106
109
109
98
94
89
87
80
78
70
61
58
65
78
85
91
102
107
108
97
96
97
78
74
50
40
34
27
40
59
73
86
82
65
43
31
25
29
30
33
28
30
25
24
24
24
24
24
24
25
25
25
28
36
55
45
34
31
29
28
25
29
38
167
255
255
255
255
255
255
255
255
255
255
255
254
252
246
248
250
203
149
242
216
138
165
160
177
144
190
216
229
233
190
136
132
149
141
116
89
95
96
103
106
109
108
103
92
79
73
79
80
66
55
76
91
98
87
81
89
84
71
49
42
46
43
42
42
54
73
85
89
64
38
29
27
27
28
29
29
28
27
26
24
24
24
24
24
24
24
25
25
26
30
57
44
37
28
31
35
27
24
28
57
185
252
255
255
255
255
255
255
255
255
255
255
255
255
255
233
183
148
244
219
133
137
176
208
224
210
226
204
218
250
242
160
127
150
179
169
137
120
130
134
132
118
106
96
97
98
93
86
77
62
75
88
89
76
75
58
52
57
60
64
58
47
43
58
73
83
71
56
39
28
29
28
25
28
25
29
27
28
24
25
25
25
29
26
26
24
24
25
29
26
55
44
38
32
27
30
32
27
24
27
54
124
213
254
255
255
255
255
255
255
255
255
255
255
255
255
254
198
241
231
161
190
195
203
246
249
248
240
193
209
243
254
229
171
143
152
160
147
134
109
110
104
99
94
94
100
92
82
75
81
92
96
87
89
74
76
80
78
80
68
61
55
54
74
94
85
65
46
36
30
32
31
29
25
27
29
27
28
26
27
27
28
30
31
25
25
24
25
29
25
52
40
33
28
28
30
31
35
25
24
25
26
69
180
252
255
255
255
255
255
255
255
255
255
255
255
255
247
253
251
207
245
252
224
220
251
255
255
246
221
219
250
254
252
213
169
137
139
154
171
144
112
102
80
81
100
106
95
93
111
108
92
72
76
80
84
84
78
60
53
91
120
114
115
99
79
53
36
30
34
37
31
26
26
28
30
27
26
27
28
34
34
35
35
32
25
26
27
25
26
47
36
32
26
25
26
28
35
30
24
28
25
26
72
172
232
255
255
255
255
255
255
255
255
255
255
255
255
255
255
241
238
255
255
244
236
254
255
255
254
248
255
254
253
226
197
178
153
134
139
158
151
116
99
93
93
96
104
131
136
103
79
64
79
93
94
101
86
76
98
132
125
103
93
78
51
36
31
36
36
36
31
26
26
29
29
25
24
24
27
31
36
36
36
32
26
26
25
26
25
51
34
33
31
24
24
25
27
29
31
28
24
24
31
52
84
225
255
255
255
255
255
255
255
255
255
255
255
255
255
254
233
252
255
255
253
252
254
254
255
249
232
240
229
248
234
203
177
187
197
170
143
140
130
133
135
140
152
144
105
97
93
96
98
96
104
102
100
104
112
104
93
83
75
61
40
32
31
36
31
33
28
25
25
24
26
24
24
24
25
27
32
31
32
27
25
24
24
25
24
57
50
41
32
25
24
24
24
28
31
25
24
24
24
25
27
69
123
162
232
255
255
255
255
255
255
255
255
255
255
255
251
244
252
255
255
255
255
255
255
248
218
199
186
195
194
184
168
157
161
166
146
122
110
115
116
123
125
124
118
104
95
100
117
135
122
109
114
118
106
113
107
83
60
41
29
33
34
26
32
28
26
24
24
25
24
24
26
24
25
28
26
29
27
26
24
24
25
26
25
59
53
39
31
24
24
24
26
24
24
24
24
24
24
24
25
24
29
59
123
249
255
255
255
255
255
255
255
255
255
255
255
255
255
255
255
255
255
255
255
255
247
226
204
179
152
149
140
132
124
125
125
121
110
118
124
122
113
104
102
113
118
102
106
117
129
139
121
107
98
89
80
61
40
27
25
29
30
29
27
24
24
24
24
24
24
24
24
28
29
28
29
25
25
25
24
24
24
24
24
