P2
# CREATOR: The GIMP's PNM Filter Version 1.0
100 100
255
255
255
255
255
255
255
255
255
255
255
253
251
250
250
250
250
251
254
255
255
250
234
227
232
248
254
253
252
248
241
236
235
235
236
237
237
236
236
236
236
236
236
236
236
236
236
236
236
236
237
238
236
234
229
224
216
206
194
182
175
173
175
182
191
203
215
228
234
233
234
231
216
205
207
212
222
228
231
235
236
238
239
242
245
248
250
250
251
252
251
251
250
250
250
250
251
251
251
252
252
255
255
255
255
255
255
255
255
255
254
254
253
252
252
250
250
249
247
238
205
165
159
160
170
184
219
234
238
238
238
237
237
237
237
237
236
235
234
234
234
234
234
234
234
234
234
234
234
235
236
236
236
235
234
232
226
212
195
181
171
164
162
162
162
163
164
164
162
164
164
165
167
170
174
182
191
204
220
233
242
246
248
248
249
250
251
250
250
251
250
250
250
250
250
250
250
251
251
252
254
255
255
255
255
255
255
255
255
255
254
252
252
250
248
245
238
224
199
166
136
134
131
131
130
137
150
176
197
209
216
220
223
224
225
224
224
223
222
223
224
224
224
226
226
227
226
227
228
228
228
229
229
228
226
218
199
180
165
154
146
139
136
134
133
133
135
134
134
132
134
134
138
138
143
146
153
157
169
183
202
218
232
240
246
248
249
250
250
250
250
250
250
250
250
250
250
251
251
252
254
255
255
255
255
255
255
255
255
255
254
252
250
247
238
218
193
167
145
122
114
112
110
110
110
109
113
126
148
168
178
186
192
198
202
204
205
206
206
206
208
209
210
212
212
214
214
214
214
214
215
215
213
206
195
178
157
142
134
129
125
122
118
117
116
119
118
120
117
118
117
121
120
123
123
127
129
132
136
142
152
169
184
202
220
236
244
246
247
249
250
250
249
249
249
250
250
251
252
253
254
255
255
255
255
255
255
255
255
254
253
250
246
233
206
177
153
134
117
102
97
95
96
95
95
95
98
102
118
133
143
150
156
162
168
171
174
176
178
180
180
182
182
183
183
184
184
184
184
184
183
180
174
166
154
139
124
121
116
114
112
110
108
108
109
111
112
113
114
114
114
114
114
114
115
116
116
118
119
124
128
135
146
152
168
187
212
230
240
246
248
246
246
248
248
249
250
251
252
254
255
255
255
255
255
255
255
255
255
254
252
248
237
206
172
147
125
108
94
83
81
82
84
85
86
87
89
94
105
116
122
127
130
134
137
139
142
145
148
150
149
151
150
151
150
151
149
150
150
150
147
143
136
132
125
117
112
108
106
104
102
102
102
102
104
108
110
112
112
112
112
112
112
112
111
111
111
112
114
115
116
121
125
132
139
146
162
186
210
234
240
241
242
245
247
248
250
251
252
254
254
255
255
255
255
255
255
255
255
254
252
245
219
183
151
123
101
84
73
63
63
69
74
77
80
83
86
93
100
107
112
116
116
118
118
122
121
123
126
128
128
126
128
127
128
128
128
127
128
127
122
120
116
114
110
105
102
100
98
97
97
98
99
100
104
108
111
112
113
114
114
114
113
112
111
110
110
111
112
112
113
114
118
119
124
131
140
150
170
194
218
232
238
241
245
248
250
251
252
254
253
255
255
255
255
255
255
255
255
254
251
242
204
168
130
97
75
65
58
52
51
56
64
70
76
81
87
94
100
105
108
110
111
111
112
113
113
113
115
116
116
115
116
115
116
116
116
115
115
113
110
106
104
101
98
94
92
92
92
92
93
95
97
101
106
110
114
116
119
120
120
121
118
116
115
114
114
113
112
112
112
113
113
114
121
118
125
132
144
160
183
210
228
236
242
246
250
250
252
253
252
255
255
255
255
255
255
255
255
254
251
239
196
152
102
70
56
50
45
42
39
44
54
64
75
84
92
98
103
107
109
110
110
110
111
110
110
110
110
111
112
113
113
113
113
113
112
110
107
103
99
93
90
85
82
80
80
81
84
87
89
92
96
101
106
111
115
120
126
132
135
137
135
128
127
124
123
120
117
115
116
115
114
113
113
114
118
118
126
136
150
175
204
226
238
244
248
250
252
252
252
255
255
255
255
255
255
255
255
254
252
236
185
120
69
49
40
36
34
33
35
40
48
64
79
90
99
106
111
114
115
114
114
113
112
110
108
107
107
108
111
113
114
114
114
113
112
106
98
87
78
68
62
60
56
57
60
63
71
77
82
86
93
98
103
107
113
121
133
144
152
158
159
156
150
144
138
133
128
128
120
124
114
111
113
112
112
114
116
121
131
147
177
206
231
241
246
250
251
252
251
255
255
255
255
255
255
255
255
255
251
222
149
79
44
33
29
26
27
28
34
44
62
79
91
100
107
115
122
126
125
122
122
115
113
104
101
96
100
98
106
108
117
113
114
104
94
77
66
53
48
41
41
38
40
41
45
49
57
64
72
82
90
92
94
98
103
113
124
137
150
161
167
169
167
162
153
145
139
131
132
131
121
118
114
112
110
110
110
114
120
134
155
184
214
237
245
248
250
250
250
255
255
255
255
255
255
255
255
254
226
171
100
51
30
24
22
22
23
27
34
51
72
95
107
112
117
124
136
143
138
128
116
107
94
92
85
82
83
82
88
88
94
93
88
75
62
48
44
39
36
33
32
32
31
33
35
40
46
54
62
70
74
76
77
78
80
84
90
98
108
123
134
140
143
145
146
146
142
136
120
121
123
120
116
113
110
107
106
109
113
124
139
162
194
225
242
247
248
248
248
255
255
255
255
255
255
255
252
214
169
120
67
37
23
20
20
20
23
28
38
54
78
100
110
118
124
135
143
149
145
127
108
94
90
79
82
80
80
79
73
70
65
63
57
51
45
41
38
36
33
32
30
29
27
28
30
34
38
44
50
54
58
58
56
55
54
53
52
54
60
72
84
96
100
103
110
123
142
138
147
135
126
114
114
114
112
106
103
104
109
118
132
150
178
212
237
246
247
247
247
255
255
255
255
255
255
247
200
156
131
76
44
32
23
18
18
20
23
29
40
57
81
96
102
110
113
115
113
116
121
113
103
85
75
78
75
81
74
68
62
58
52
46
43
42
42
40
38
38
36
34
30
27
25
24
26
28
31
35
39
42
43
42
38
35
33
34
33
35
38
42
50
64
70
74
76
86
94
120
132
138
136
130
120
118
113
105
101
101
106
113
125
139
165
199
233
244
246
246
246
255
255
255
255
254
236
192
158
132
89
51
36
26
21
18
19
21
24
30
46
64
83
91
90
89
86
82
76
72
76
80
68
66
60
64
57
52
54
53
52
45
40
37
37
38
40
41
41
41
39
35
28
24
22
21
22
24
26
28
31
32
33
31
26
25
23
24
25
26
26
32
37
47
56
60
62
69
72
86
97
128
126
131
130
124
114
104
99
98
102
110
119
135
156
189
230
242
245
245
245
255
255
255
255
238
202
162
142
106
64
38
28
23
20
19
21
24
31
42
59
72
80
81
74
68
61
54
48
48
50
52
46
43
40
36
36
34
35
36
36
32
30
30
32
35
38
41
43
43
40
32
24
20
18
18
19
21
22
24
26
27
27
25
23
21
20
20
20
21
23
26
30
38
47
54
54
57
60
70
72
94
108
117
124
126
114
103
98
97
100
108
116
132
152
185
226
240
243
244
244
255
255
255
250
208
169
145
121
82
48
32
26
22
20
21
24
30
44
64
80
84
78
67
57
48
40
34
32
32
32
31
31
28
26
27
26
25
25
24
24
24
24
26
28
32
38
43
46
46
40
29
22
18
18
20
20
20
21
22
24
25
25
24
21
19
18
18
18
19
21
24
28
33
44
52
51
54
53
62
61
77
90
104
114
118
109
101
97
96
99
106
117
131
152
186
222
237
242
243
243
255
255
255
232
174
144
126
98
64
40
28
24
22
21
23
28
40
64
91
108
100
75
53
40
32
26
24
22
20
20
20
19
20
20
21
22
20
18
18
18
20
22
24
26
32
40
48
52
51
44
32
25
24
24
26
24
22
22
24
26
27
27
24
21
18
16
16
16
17
19
22
26
34
42
54
48
51
50
53
54
62
77
92
101
103
101
97
95
96
100
107
116
132
155
188
223
235
240
242
242
255
255
252
192
153
136
116
83
55
34
27
23
22
23
28
36
54
82
112
120
102
69
41
29
23
18
16
14
14
14
14
15
16
17
20
20
18
16
15
16
18
20
23
27
34
45
58
64
64
56
46
44
40
39
36
28
25
25
27
30
32
30
27
24
20
16
14
14
16
18
20
25
33
47
54
54
53
51
46
49
57
68
82
89
93
93
93
94
96
101
107
117
132
157
192
222
233
238
241
240
255
255
230
166
138
126
98
70
48
34
27
24
23
26
31
41
59
86
109
108
85
57
35
22
16
14
12
10
10
10
12
14
16
18
21
22
20
17
16
18
20
22
25
31
40
57
73
83
86
80
66
57
51
44
37
30
27
28
32
36
37
35
32
28
23
19
16
16
18
21
25
31
37
50
61
66
67
66
47
48
54
64
74
81
85
88
90
92
96
102
108
116
132
162
198
222
231
238
240
240
255
251
201
156
134
118
86
63
45
34
28
26
25
26
32
41
55
73
84
79
62
41
26
16
12
10
8
8
8
10
12
14
17
21
25
27
23
20
20
22
24
26
28
36
49
68
91
106
110
92
71
59
51
42
34
30
29
32
37
43
42
40
37
32
27
24
23
24
29
34
42
47
61
61
69
81
92
93
63
54
55
62
70
76
80
84
88
92
98
103
109
118
133
166
204
222
231
237
240
240
255
236
184
150
128
104
76
58
45
34
30
27
26
26
30
37
46
55
59
55
43
27
18
14
11
8
7
6
7
9
12
15
20
24
28
29
26
24
24
26
28
30
32
39
53
76
103
118
113
90
66
58
52
40
33
30
29
33
42
46
44
40
38
34
28
27
30
35
44
48
60
74
86
75
61
71
91
99
73
58
58
63
69
74
78
82
87
92
98
104
110
118
136
171
208
222
231
237
240
240
245
223
172
143
122
95
68
55
44
36
32
27
26
26
28
32
37
41
42
38
30
22
16
13
9
7
6
6
6
7
10
14
20
26
29
32
31
30
30
30
32
34
36
39
50
80
106
112
107
84
67
58
51
39
34
28
26
30
38
38
36
34
32
29
27
27
29
32
37
45
55
66
81
70
66
66
88
92
71
62
60
65
70
74
78
82
87
92
98
104
110
120
143
175
208
221
230
236
240
240
232
213
164
136
114
84
64
52
44
37
32
27
26
26
26
28
30
32
32
28
23
18
14
12
8
6
4
4
4
5
7
11
16
22
30
38
40
38
36
36
36
38
40
42
55
85
103
108
104
82
68
62
48
38
28
23
21
24
26
27
27
27
26
25
25
25
25
26
28
30
40
44
55
60
63
67
79
90
70
62
63
67
72
76
78
83
88
93
98
104
112
124
145
176
205
220
229
236
240
242
229
206
158
132
109
78
60
50
44
38
32
28
26
26
26
26
26
26
26
23
19
16
13
10
6
4
3
2
2
3
5
7
11
17
29
42
50
47
44
44
44
45
47
53
68
89
103
106
106
86
68
66
49
31
20
20
16
15
18
19
19
20
22
22
22
22
22
22
24
24
21
23
38
48
56
62
79
78
68
63
66
71
75
79
82
83
88
94
100
106
114
126
148
176
202
218
229
236
240
243
226
202
155
129
101
74
58
49
42
37
31
28
27
26
26
26
25
24
23
20
18
14
12
8
4
3
1
1
1
1
3
5
8
13
24
43
56
53
52
52
53
55
58
68
82
96
106
110
112
88
81
64
34
20
18
13
11
11
11
12
12
14
16
18
18
18
19
19
14
14
14
20
26
34
46
62
68
65
64
65
69
75
80
84
85
87
91
96
102
108
115
128
148
175
200
216
228
236
242
244
224
201
150
126
98
70
56
48
41
36
31
30
29
28
28
27
27
26
24
22
18
14
10
6
4
2
1
1
1
1
1
3
6
10
19
36
49
54
56
60
64
68
76
84
96
106
113
116
128
101
74
42
30
21
16
14
10
8
8
8
8
10
12
14
16
16
17
18
14
11
13
20
25
30
35
51
57
58
62
67
74
82
87
90
92
93
96
99
104
109
115
128
148
174
198
216
228
237
244
247
224
199
150
121
90
66
53
45
39
35
32
32
31
30
31
32
32
31
29
26
21
15
9
6
4
2
1
1
1
1
1
1
4
8
16
28
40
50
59
68
76
85
94
102
110
118
123
127
131
94
56
40
34
22
14
10
8
8
8
8
8
8
10
13
16
19
22
25
17
13
14
18
19
24
31
40
42
51
62
72
81
89
96
98
100
100
101
103
106
110
116
129
148
174
197
215
229
238
246
248
222
198
149
116
84
61
50
43
39
35
34
34
34
34
36
38
40
40
38
33
26
17
11
7
4
2
1
1
1
1
1
1
2
6
14
23
34
45
59
75
92
104
114
120
126
130
132
130
115
93
61
44
33
20
15
10
8
8
8
8
8
10
13
16
19
22
24
20
14
12
13
14
15
19
20
24
31
47
65
79
90
98
105
108
108
108
107
107
108
110
116
129
149
174
197
216
230
240
247
248
220
197
150
113
79
58
48
43
39
36
36
36
36
39
43
47
51
53
51
45
34
26
19
12
6
2
1
1
1
1
1
1
2
5
12
20
29
40
56
78
106
125
134
140
143
142
136
121
111
99
69
42
36
22
14
10
8
8
8
8
10
14
17
21
23
27
21
15
12
13
13
13
14
12
14
14
23
45
72
90
99
108
115
120
120
117
113
110
109
111
117
130
150
176
200
218
232
243
248
248
219
195
150
108
75
56
47
43
39
38
38
38
41
46
52
58
65
70
71
63
51
39
28
18
9
4
1
1
1
1
1
1
1
4
10
16
24
36
51
74
104
135
154
164
163
151
135
123
120
93
74
50
32
27
16
10
8
7
8
10
14
17
20
22
23
22
16
12
14
13
12
9
9
8
10
14
23
44
74
96
108
117
127
134
136
128
119
112
109
110
115
128
151
178
203
221
235
245
248
248
218
194
147
102
71
56
48
43
40
40
40
42
46
52
60
69
80
91
97
88
73
55
39
25
12
5
2
1
1
1
1
1
1
3
6
12
18
28
41
60
86
120
154
172
168
149
134
123
112
91
73
55
37
24
16
12
8
7
8
12
16
19
22
23
23
21
16
13
12
8
8
6
7
8
9
14
23
39
64
94
113
126
141
155
158
139
123
113
110
110
114
126
151
180
206
224
238
246
248
248
220
196
144
96
66
54
47
43
42
42
42
45
50
58
67
78
93
112
127
120
96
72
50
31
16
7
2
1
1
1
1
1
1
1
4
8
13
20
26
39
61
91
125
148
146
136
126
116
102
83
68
49
34
23
18
14
10
9
10
13
17
18
19
20
22
16
15
13
9
6
4
3
4
5
7
12
20
30
50
82
114
138
162
182
174
145
124
113
109
109
113
126
150
182
210
228
240
246
248
248
221
199
142
89
64
51
46
44
44
44
45
50
56
63
72
83
101
124
154
148
118
87
60
36
18
8
2
1
1
1
1
1
1
1
2
5
8
12
16
21
32
54
79
100
113
114
111
102
90
69
49
40
31
25
20
17
14
12
12
13
14
15
16
15
13
12
10
10
8
6
3
3
4
5
6
10
15
22
36
64
108
149
188
211
181
147
125
111
106
106
112
124
150
183
214
231
242
246
248
249
224
204
139
84
62
52
48
46
46
46
48
53
59
66
74
84
98
118
154
160
131
97
66
38
18
7
2
1
1
1
1
1
1
1
2
4
5
8
10
14
18
25
37
58
77
90
95
85
74
59
43
38
31
26
22
19
16
14
13
13
14
15
15
14
11
10
9
9
7
6
4
3
3
3
4
8
12
18
30
49
85
149
208
226
185
144
119
105
100
101
109
124
149
183
216
233
241
246
248
250
226
205
137
84
62
53
52
50
49
48
52
57
62
68
74
81
88
100
122
132
117
90
60
33
14
5
1
1
1
1
1
1
2
3
4
5
5
5
6
8
10
14
18
27
46
62
70
68
62
54
46
39
34
29
25
21
18
16
15
14
14
16
16
14
12
12
10
8
7
4
3
3
3
3
4
6
10
17
29
48
74
124
183
204
168
128
106
95
91
93
102
120
146
182
218
234
241
246
248
250
229
208
138
87
70
63
60
58
56
54
57
62
66
69
72
75
77
79
86
92
84
67
45
22
8
2
1
1
1
1
1
2
4
7
9
9
7
5
4
4
6
8
10
14
22
35
46
51
52
50
48
43
38
32
28
24
22
20
18
17
16
16
14
12
12
10
8
6
7
4
4
3
3
3
4
6
8
14
29
46
62
84
120
146
130
100
86
80
79
82
92
110
138
177
219
233
240
246
248
250
232
212
143
97
82
75
72
70
67
65
66
68
70
70
70
69
67
62
63
64
58
46
29
12
4
1
1
1
1
1
1
5
10
15
18
17
12
8
5
3
2
4
6
8
10
16
28
37
43
47
50
48
42
35
31
28
26
24
22
20
18
17
15
13
12
10
8
8
6
5
5
7
5
4
4
6
9
16
30
40
48
57
78
99
99
81
71
66
66
69
76
93
121
164
212
230
238
245
249
250
236
218
154
109
95
89
86
83
79
76
75
74
73
72
68
64
58
54
50
46
40
30
16
5
2
1
1
1
1
1
2
8
18
28
34
32
22
14
8
4
2
1
2
4
6
8
14
25
34
42
50
48
43
39
35
31
31
30
29
27
24
20
18
16
13
10
10
8
8
6
8
8
7
6
6
7
10
16
24
32
37
43
56
74
76
68
61
57
56
59
64
75
95
138
188
220
234
244
250
251
239
222
169
130
114
105
100
96
92
88
85
82
78
73
66
60
53
46
40
36
28
19
8
2
1
1
1
1
1
1
4
12
30
48
58
56
42
24
14
8
2
1
1
1
3
5
8
15
24
34
41
44
44
42
41
40
41
42
40
38
34
28
24
21
17
14
14
12
10
9
9
12
10
9
9
9
11
15
20
26
30
37
42
58
60
56
52
50
50
52
55
60
76
108
154
191
218
241
249
252
237
226
187
152
135
124
116
110
105
100
96
91
83
74
66
57
48
40
34
28
21
12
4
1
1
1
1
1
1
2
6
22
45
74
91
88
69
46
24
12
6
2
1
1
1
3
5
9
16
25
34
40
44
47
50
52
54
57
56
52
45
38
33
28
23
23
22
20
16
16
16
17
16
15
13
12
12
14
17
21
26
32
36
49
48
46
45
45
46
48
50
56
65
90
128
160
191
226
246
250
234
229
203
176
156
142
132
124
118
113
108
99
88
76
64
54
44
34
28
22
14
8
2
1
1
1
1
1
1
2
10
27
53
86
107
109
96
68
40
19
8
2
1
1
1
1
3
6
11
20
30
39
46
53
59
64
70
75
76
70
56
49
42
34
34
32
29
25
26
30
30
26
24
22
20
17
16
14
15
17
22
26
32
41
41
38
40
42
43
45
47
52
60
81
110
136
161
192
230
250
231
230
214
192
172
157
146
137
130
124
119
108
90
74
60
48
38
28
22
16
9
4
1
1
1
1
1
1
1
4
12
27
48
74
95
105
104
81
49
26
11
3
1
1
1
1
1
4
8
16
26
37
48
59
68
77
85
92
94
87
77
68
58
49
44
38
32
30
33
42
42
35
32
30
26
22
19
16
15
15
20
24
30
38
38
37
39
42
43
44
46
48
54
72
96
120
141
163
199
245
231
229
218
200
184
169
156
146
138
132
128
112
88
69
52
40
30
22
16
10
4
1
1
1
1
1
1
1
1
4
11
23
39
57
72
82
86
73
48
26
11
3
1
1
1
1
1
2
6
13
23
35
48
63
76
89
102
108
108
101
93
82
64
53
44
36
31
32
38
46
47
43
40
37
32
28
22
18
15
16
19
22
29
37
41
40
42
44
46
46
46
48
53
64
88
111
130
142
176
217
230
228
220
206
192
177
163
150
141
134
123
102
78
58
41
29
21
14
10
6
2
1
1
1
1
1
1
1
1
2
8
17
29
41
51
58
59
52
38
22
10
3
1
1
1
1
1
1
4
9
20
33
48
66
84
101
117
125
122
111
99
80
62
49
39
32
30
34
42
51
54
52
48
43
38
32
26
20
17
17
20
24
30
41
51
57
52
50
52
51
50
49
52
61
82
105
128
137
158
183
229
228
220
208
196
181
165
151
138
128
109
86
63
42
26
17
12
8
6
3
1
1
1
1
1
1
1
1
1
1
5
10
18
27
34
38
39
34
26
16
8
3
1
1
1
1
1
1
3
8
16
30
47
68
92
114
133
141
132
115
95
74
56
42
33
29
30
38
48
58
64
62
56
50
42
34
28
22
19
19
22
26
35
50
68
82
71
63
61
60
56
52
52
58
74
101
114
124
140
165
229
227
220
210
197
181
164
147
131
114
92
68
44
21
10
7
5
4
2
1
1
1
1
1
1
1
1
1
1
1
2
5
10
15
19
22
23
21
16
10
5
2
1
1
1
1
1
1
2
6
12
25
45
70
98
128
152
150
132
110
88
66
48
36
29
27
31
41
54
67
73
71
65
57
47
38
30
24
21
21
24
29
38
56
78
96
80
72
72
73
67
57
53
58
68
94
115
130
134
154
228
226
220
210
196
179
159
140
120
97
73
48
25
7
3
2
2
1
1
1
1
1
1
1
1
1
1
1
1
1
1
2
4
7
10
11
12
11
8
5
2
1
1
1
1
1
1
1
1
4
10
20
40
68
102
140
159
148
125
102
77
56
38
28
26
26
32
46
62
78
84
81
74
64
53
41
32
26
24
24
26
31
40
58
82
102
87
74
76
87
85
72
61
59
66
86
112
115
128
150
228
226
220
210
194
175
153
131
107
81
54
28
12
3
1
1
1
1
1
1
1
1
1
1
1
1
1
1
1
1
1
1
1
2
4
4
4
4
2
1
1
1
1
1
1
1
1
1
1
3
8
17
36
64
96
134
152
140
114
90
65
45
32
24
24
27
36
51
70
91
97
90
83
74
58
43
32
27
26
28
30
33
42
60
86
111
92
72
75
89
100
89
68
62
66
84
112
121
131
140
228
227
220
210
192
170
146
121
94
65
35
12
5
1
1
1
1
1
1
1
1
1
1
1
1
1
1
1
1
1
1
1
1
1
1
1
1
1
1
1
1
1
1
1
1
1
1
1
1
3
7
16
30
55
85
116
137
124
100
75
52
35
26
22
23
28
39
57
80
106
107
100
92
80
60
43
30
27
28
32
34
36
46
64
88
110
101
75
69
84
101
99
78
65
67
82
112
114
120
142
228
227
220
210
190
166
140
112
82
51
20
7
2
1
1
1
1
1
1
1
1
1
1
1
1
1
1
1
1
1
1
1
1
1
1
1
1
1
1
1
1
1
1
1
1
1
1
1
1
2
6
13
25
45
70
94
113
104
82
60
40
29
23
20
22
28
42
65
94
120
117
107
96
80
60
43
31
27
30
36
40
40
47
66
89
110
104
75
71
79
98
106
83
65
67
80
112
119
130
134
229
228
221
209
188
163
135
104
72
39
14
4
2
1
1
1
1
1
1
1
1
1
1
1
1
1
1
1
1
1
1
1
1
1
1
1
1
1
1
1
1
1
1
1
1
1
1
1
1
1
4
10
20
35
53
71
84
79
64
47
33
24
19
19
22
28
46
73
108
133
128
113
98
78
59
42
30
28
32
42
48
44
52
67
88
111
104
80
70
78
96
108
90
70
65
80
112
114
117
132
230
230
222
210
188
161
131
98
63
30
10
4
2
1
1
1
1
1
1
1
1
1
1
1
1
1
1
1
1
1
1
1
1
1
1
1
1
1
1
1
1
1
1
1
1
1
1
1
1
1
2
7
15
26
38
49
56
54
46
35
26
19
16
17
21
28
49
85
127
150
135
115
96
75
56
42
33
29
33
44
53
50
56
69
89
110
106
77
71
70
90
111
92
68
68
76
108
115
124
133
233
232
225
211
188
160
129
94
57
24
10
4
2
1
1
1
1
1
1
1
1
1
1
1
1
1
2
2
2
2
1
1
1
1
1
1
1
1
1
1
1
2
2
3
2
1
1
1
1
1
1
4
10
17
24
30
34
34
30
23
18
14
12
14
18
29
51
96
145
160
137
113
91
71
55
42
33
32
38
48
57
60
62
70
88
111
109
85
72
68
85
111
93
74
67
73
106
114
115
126
236
236
228
214
191
162
129
93
54
26
14
6
2
1
1
1
1
1
1
1
1
1
1
1
2
4
5
6
6
6
4
2
1
1
1
1
1
1
1
1
3
4
7
7
6
4
2
1
1
1
1
2
5
9
12
14
17
19
17
14
11
9
8
10
15
24
48
100
154
156
129
106
85
66
54
44
35
34
41
52
61
67
69
73
88
110
110
79
67
68
78
106
94
70
68
75
99
115
125
133
241
240
232
216
194
166
132
96
58
34
20
10
4
1
1
1
1
1
1
1
1
1
1
2
6
9
12
14
16
16
12
8
4
1
1
1
1
1
1
3
7
11
14
15
12
8
4
1
1
1
1
1
2
4
6
7
8
9
9
7
6
6
6
8
10
15
33
81
126
129
111
94
76
62
54
45
38
37
47
56
65
77
76
74
85
109
110
84
70
70
80
102
94
70
64
72
96
114
116
132
244
241
234
219
196
170
139
104
68
44
28
15
6
2
1
1
1
1
1
1
1
1
3
7
13
18
23
26
30
30
27
19
9
3
1
1
1
1
2
6
11
18
25
26
22
14
8
3
1
1
1
1
2
2
3
4
4
4
4
4
4
4
4
6
8
12
22
44
74
86
87
79
66
59
53
48
40
42
50
60
71
87
84
74
85
111
114
88
67
66
73
96
88
66
66
72
94
117
127
134
245
242
236
220
200
175
146
114
82
56
36
20
10
3
1
1
1
1
1
1
1
2
6
14
24
32
37
42
46
51
49
36
18
7
4
2
2
2
4
8
14
27
39
41
31
21
12
6
2
1
1
1
2
4
3
4
4
4
3
3
3
3
3
4
6
9
14
21
34
51
62
63
58
54
52
49
44
47
56
63
77
97
89
75
83
111
116
96
72
64
69
88
81
66
66
72
92
115
119
139
245
242
236
222
204
182
156
127
96
67
42
24
12
4
1
1
1
1
1
1
2
5
13
28
41
48
53
57
63
71
74
56
36
17
8
5
4
4
6
10
20
36
52
55
40
26
15
7
3
1
1
1
3
3
3
3
4
4
4
3
3
3
3
3
4
6
9
14
22
31
40
46
51
51
54
53
50
53
59
67
84
102
90
76
80
106
114
91
65
64
70
85
78
66
65
70
91
116
127
137
244
243
235
224
209
191
169
142
109
75
45
24
11
3
1
1
1
1
1
2
5
13
30
50
63
67
69
71
75
80
81
74
55
30
16
9
7
6
8
14
25
42
59
62
44
29
17
9
5
3
2
2
3
3
3
3
3
3
3
3
3
3
3
3
3
4
6
9
15
21
27
33
45
52
57
60
58
60
64
74
90
98
89
77
80
102
112
86
70
64
68
82
77
66
65
72
95
115
118
137
244
242
235
225
213
198
181
159
120
80
43
20
8
3
1
1
1
1
1
3
9
22
42
70
84
84
80
79
81
83
82
82
73
46
23
15
9
8
10
16
27
42
58
59
43
29
18
10
7
5
4
4
4
4
4
4
5
5
5
4
3
3
3
3
3
3
4
7
10
16
20
26
39
52
61
70
69
68
70
79
90
93
85
77
76
96
110
83
63
63
70
76
73
66
62
72
94
115
126
136
244
242
235
227
216
204
190
170
128
81
40
17
8
3
1
1
1
1
1
3
9
22
42
65
76
77
76
77
79
79
76
80
86
65
34
19
12
10
12
18
27
40
52
52
40
28
17
12
9
7
7
7
7
7
7
9
10
11
10
7
6
4
3
3
3
3
4
6
9
13
18
24
35
54
69
84
81
76
78
84
91
90
82
73
76
95
107
79
68
62
67
76
71
65
66
74
101
114
119
139
244
241
235
228
218
206
194
168
122
76
37
20
10
4
1
1
1
1
1
2
7
17
31
44
53
56
56
57
58
60
62
72
86
73
41
22
14
10
12
17
26
37
48
47
38
26
18
14
12
11
11
12
15
15
16
20
22
21
18
14
10
7
4
3
3
3
4
6
10
14
17
24
34
57
80
99
92
86
86
88
90
88
80
72
70
85
99
74
62
64
72
73
72
64
66
73
106
116
126
140
244
240
236
229
219
206
189
156
113
66
33
21
12
6
2
1
1
1
1
1
5
11
20
28
34
37
37
36
36
38
44
55
69
62
38
20
12
10
11
16
24
34
44
45
38
30
23
18
16
16
16
20
28
32
38
41
40
36
30
24
18
14
10
7
4
4
6
8
12
16
20
27
40
66
98
105
100
96
94
92
90
86
78
70
70
81
92
73
68
62
67
73
68
64
66
78
109
116
125
148
242
240
237
230
219
204
178
144
105
63
38
25
16
10
4
1
1
1
1
1
2
6
12
16
21
24
25
26
27
29
33
40
46
40
27
14
10
8
10
14
22
32
42
45
42
36
30
26
23
22
24
32
48
62
69
68
62
54
44
35
26
22
18
14
9
8
9
11
15
20
26
34
53
85
108
111
109
106
102
97
92
85
76
69
66
74
86
72
61
64
70
70
69
62
64
84
113
117
126
151
242
242
238
231
220
198
168
136
102
65
42
31
22
14
8
3
1
1
1
1
1
3
6
10
13
15
18
19
21
23
25
28
30
25
18
11
8
6
8
12
19
30
42
50
50
46
40
36
34
33
37
50
75
98
109
102
87
73
61
47
35
28
24
22
18
16
16
16
20
30
37
52
72
100
112
119
120
118
112
103
94
84
74
66
64
69
79
70
64
60
67
74
67
64
70
88
116
123
131
148
244
243
240
233
220
190
158
130
102
74
51
40
30
22
12
5
3
1
1
1
1
2
4
7
9
11
13
15
17
17
18
20
18
16
11
7
6
5
6
10
16
28
46
60
62
58
53
49
48
48
54
73
105
137
153
140
119
98
84
63
45
37
31
28
27
27
25
22
27
42
54
69
91
108
120
130
136
133
122
109
96
84
72
64
61
65
70
66
59
63
70
73
71
65
66
91
115
118
132
154
244
245
242
236
216
179
145
124
106
85
64
51
43
34
21
12
8
5
2
1
1
2
4
6
8
10
12
14
14
14
14
14
12
10
7
5
4
4
5
8
13
21
44
65
76
71
68
67
67
69
79
103
132
162
176
169
152
134
116
92
63
50
41
38
34
34
32
25
30
52
69
89
107
116
128
141
153
149
133
116
99
84
70
60
57
62
61
64
64
60
73
75
64
63
70
93
116
126
134
155
246
247
244
238
209
166
140
122
109
93
78
68
61
51
37
26
17
10
4
1
1
2
4
6
8
10
12
14
14
13
12
10
9
7
5
4
4
4
4
6
10
18
38
60
78
80
82
87
92
99
112
131
152
165
167
159
150
144
144
141
106
77
68
60
56
52
38
38
42
61
93
106
111
120
135
153
169
162
142
121
102
84
69
59
56
59
54
60
60
68
74
76
67
62
71
98
114
118
136
158
248
249
247
238
200
159
134
120
109
99
90
85
82
76
60
42
26
15
8
3
1
2
4
7
10
13
14
16
15
14
12
10
8
6
4
4
4
4
4
6
10
18
34
54
71
84
95
108
119
131
141
152
153
145
136
124
114
112
118
135
135
137
130
113
108
92
73
68
72
79
94
105
111
122
139
161
180
172
148
124
102
83
67
57
54
56
48
60
64
65
76
73
62
66
73
100
118
128
138
163
250
252
250
241
193
154
131
119
109
103
100
100
103
105
84
55
34
20
11
6
2
2
4
8
13
16
18
18
19
18
16
12
9
6
4
4
4
4
4
6
10
18
31
48
65
83
102
126
147
162
166
157
137
120
103
89
82
78
79
84
82
77
88
100
102
93
82
81
82
87
94
100
108
120
138
162
182
175
150
125
101
80
64
55
53
53
44
53
60
68
75
72
66
65
75
108
115
123
141
171
254
254
254
245
186
148
129
116
110
106
108
112
120
126
103
64
38
24
14
8
4
3
4
10
16
18
20
22
25
26
23
17
10
6
4
4
4
4
4
6
8
16
28
42
58
76
98
130
164
180
176
147
118
94
76
66
61
59
59
61
61
55
51
56
62
70
74
80
84
88
88
92
101
113
130
151
168
168
146
122
98
74
60
54
54
52
42
54
65
70
77
67
58
61
77
111
123
130
145
178
255
255
255
248
182
143
126
115
110
109
112
120
131
139
117
74
42
28
17
10
5
3
4
8
12
14
16
22
30
35
33
22
12
6
4
4
4
4
4
6
8
15
25
37
50
65
83
113
150
172
164
130
96
73
59
51
47
44
44
46
48
47
42
42
42
45
50
60
70
74
75
80
89
101
116
132
144
148
137
116
94
72
59
53
53
47
42
44
65
71
72
64
63
65
85
113
116
130
149
193
255
255
255
250
176
142
123
114
110
110
115
124
138
149
131
86
49
32
20
12
6
3
3
5
8
10
10
12
20
24
24
17
10
6
5
5
6
6
6
6
8
15
23
33
44
55
68
88
120
144
137
105
74
57
47
41
37
34
33
36
40
41
40
38
36
36
38
43
47
52
57
65
76
88
101
114
124
127
121
106
87
66
58
53
54
48
39
46
66
77
70
60
56
64
88
116
128
134
157
216
255
255
255
249
179
140
125
114
110
110
115
125
142
159
146
103
60
38
25
14
7
4
3
3
5
6
7
8
10
13
12
10
8
6
7
8
8
8
8
8
12
18
24
30
39
48
58
71
90
106
100
79
57
45
38
34
31
28
27
31
36
39
39
37
34
32
32
32
32
32
39
50
62
74
86
98
108
112
109
94
74
64
55
52
50
42
40
43
64
80
69
61
62
65
90
114
118
137
169
239
255
255
255
250
178
148
125
114
110
109
113
124
143
164
158
118
78
49
30
17
8
4
3
3
3
4
4
5
7
10
9
8
8
8
10
13
14
15
15
15
18
22
26
30
35
41
49
57
65
70
65
55
45
38
33
30
27
25
24
30
38
41
41
38
33
29
26
25
24
25
29
36
48
60
72
83
94
101
102
84
60
52
54
51
53
46
36
43
67
78
63
60
59
66
90
120
130
145
192
250
255
255
255
250
189
146
129
116
110
108
111
118
138
162
160
126
89
58
34
18
8
4
3
3
3
3
3
3
6
8
9
9
10
12
14
19
22
24
27
30
31
30
29
30
33
36
40
43
45
42
36
36
33
31
30
28
26
25
26
38
47
49
46
40
34
29
25
22
22
22
24
29
36
46
58
70
84
95
99
79
52
46
51
53
51
42
39
42
62
73
63
56
59
68
91
117
133
156
218
255
255
255
255
252
195
155
133
118
111
107
108
115
128
148
150
123
90
61
37
18
9
4
3
3
3
3
3
3
4
8
9
11
14
18
20
25
30
34
43
55
56
44
34
31
30
31
32
32
30
26
22
24
25
26
29
31
32
34
43
57
64
62
56
47
37
30
25
22
20
20
21
24
27
34
45
60
76
91
99
77
46
39
42
49
52
46
36
42
61
67
60
58
59
67
95
130
136
166
243
255
255
255
255
253
208
163
136
123
113
109
108
111
118
126
126
110
82
57
37
21
10
6
4
3
3
3
3
3
4
6
9
12
16
21
26
32
40
48
64
83
86
66
42
32
28
26
24
22
19
16
16
17
20
25
30
38
48
60
75
88
90
84
72
58
42
32
26
22
20
20
20
21
23
27
34
48
68
90
102
74
46
36
38
47
58
47
40
42
53
63
54
53
58
70
95
126
148
190
254
255
255
255
255
255
226
172
146
125
115
111
108
107
106
100
91
80
65
49
34
21
12
8
6
4
3
3
3
3
4
6
8
12
16
22
29
40
55
71
90
98
97
88
60
37
27
20
17
14
12
11
11
12
16
23
33
46
64
84
106
122
124
113
96
73
49
36
29
24
20
20
20
20
22
24
27
38
62
92
104
72
42
39
36
43
58
56
45
42
50
60
58
56
59
67
100
134
156
219
255
255
255
255
255
255
247
184
152
132
123
114
109
104
94
74
54
47
46
39
30
20
14
9
7
6
4
4
4
4
5
6
8
11
15
20
28
43
65
90
103
103
99
93
72
41
24
15
10
8
8
8
8
10
14
21
33
52
76
104
132
152
154
144
124
92
66
48
36
26
22
20
20
20
22
24
26
35
51
86
104
75
49
44
44
50
63
64
50
40
45
56
51
52
56
72
101
146
172
242
255
255
255
255
255
255
255
214
165
142
125
118
111
99
77
53
41
36
35
32
25
19
14
11
10
8
7
7
6
6
6
7
8
10
14
18
25
37
56
74
82
82
78
71
58
34
16
9
6
6
6
6
6
8
12
17
31
54
82
115
145
157
162
154
133
102
78
60
46
34
26
24
22
24
26
28
30
36
45
69
105
79
54
48
47
50
59
62
53
43
46
53
53
54
59
68
106
149
196
253
255
255
255
255
255
255
255
246
185
153
134
127
108
86
63
47
38
34
30
27
23
19
16
14
14
14
13
12
11
11
10
10
10
11
12
16
21
30
40
50
53
49
44
39
34
26
14
8
6
5
5
5
6
8
10
15
27
50
77
110
136
146
148
140
122
102
84
70
59
48
36
28
26
28
30
32
34
38
42
53
91
86
63
56
54
56
60
61
56
48
50
53
55
57
62
75
107
160
226
255
255
255
255
255
255
255
255
254
228
172
145
130
105
81
59
46
38
32
28
25
23
21
20
20
21
22
22
21
20
20
18
16
14
12
13
14
18
23
28
33
35
33
30
27
24
20
14
8
6
5
5
5
6
8
10
15
25
44
66
89
108
118
120
114
104
92
82
74
68
63
53
38
34
34
35
36
38
40
42
46
66
80
70
62
60
61
63
64
60
57
57
58
58
60
65
79
115
176
242
254
254
255
255
255
255
255
255
255
253
208
163
135
101
76
58
47
38
31
26
24
24
27
28
30
32
34
34
34
33
31
28
24
20
17
15
16
16
19
22
24
26
25
24
22
20
18
14
10
7
5
5
5
6
8
10
15
24
37
51
66
79
86
88
86
82
78
74
73
74
75
72
60
49
46
42
41
42
44
43
44
52
67
68
66
65
66
68
68
67
66
66
66
68
70
74
88
127
194
244
252
253
254
255
255
255
255
255
255
255
248
198
146
103
78
62
48
38
29
25
24
27
34
39
44
47
50
51
50
49
46
42
36
29
24
20
18
18
18
19
20
21
22
21
20
20
18
16
14
10
7
6
6
6
8
10
14
20
28
37
46
53
58
61
62
62
62
64
68
75
86
92
85
72
58
50
45
43
44
42
40
44
54
62
65
68
70
73
75
75
76
76
78
80
82
84
98
142
204
241
248
250
249
255
255
255
255
255
255
255
255
244
166
112
85
67
52
39
29
26
23
31
43
52
59
65
70
72
73
70
66
59
50
40
32
26
22
20
20
20
20
21
21
22
22
22
22
21
20
17
12
9
9
9
10
12
14
17
21
26
31
34
36
39
42
44
46
50
58
70
90
106
107
90
67
51
42
38
37
36
36
39
48
57
64
70
75
80
83
85
87
88
90
94
97
103
118
159
208
237
245
247
247
255
255
255
255
255
255
255
255
255
201
140
98
76
58
42
36
32
31
39
56
68
77
85
92
97
99
96
89
80
69
56
42
34
29
26
24
23
23
23
24
25
26
28
29
29
28
26
23
17
14
15
16
16
15
15
16
18
20
22
23
24
26
28
32
36
44
56
74
94
104
94
66
47
37
32
30
30
32
36
44
54
64
72
80
87
92
96
98
101
104
109
115
125
142
174
210
232
242
245
245
255
255
255
255
255
255
255
255
255
216
166
132
92
72
58
48
44
48
59
73
85
96
106
116
123
128
122
112
103
92
78
64
51
40
33
30
28
28
29
30
32
34
37
40
40
40
40
46
46
39
34
28
22
17
14
13
13
14
14
14
15
15
17
19
22
29
36
50
66
78
73
52
35
28
26
25
26
28
32
42
54
66
77
87
96
103
108
112
116
120
126
133
145
162
186
210
230
239
244
244
255
255
255
255
255
255
255
255
255
232
176
149
127
98
82
73
71
74
82
93
104
116
128
137
144
148
143
135
126
115
102
89
75
62
50
44
40
37
38
39
41
44
50
56
60
63
71
80
90
90
64
42
28
20
16
12
11
10
10
10
10
11
12
13
16
18
24
30
42
49
46
34
24
21
21
21
22
26
31
42
56
70
84
96
107
116
123
128
132
136
143
151
162
177
195
214
229
238
243
245
255
255
255
255
255
255
255
255
255
245
195
158
137
118
110
100
98
99
103
112
124
137
149
158
163
164
161
155
148
138
127
114
102
89
77
68
60
56
54
54
56
60
66
75
84
88
92
95
94
88
74
52
34
24
18
14
12
10
10
10
10
10
10
11
13
15
18
23
28
31
29
21
18
18
18
18
20
24
31
44
60
77
92
107
120
131
138
144
148
153
160
166
176
190
205
220
231
238
243
246
255
255
255
255
255
255
255
255
255
254
222
174
154
139
129
123
115
120
124
131
144
161
172
179
181
182
178
174
168
160
150
140
128
116
104
93
84
76
72
72
74
77
82
91
99
98
95
90
83
76
67
55
42
31
23
17
14
12
11
10
10
10
10
11
12
14
16
18
20
22
20
16
15
16
16
17
20
25
35
49
68
87
105
121
135
146
154
159
164
170
175
182
191
203
215
225
233
240
245
247
255
255
255
255
255
255
255
255
255
255
252
210
164
156
137
139
142
139
142
156
172
189
197
199
199
198
195
192
187
180
173
164
155
144
132
120
107
97
91
89
90
90
92
96
100
100
96
91
84
76
67
60
52
43
36
27
21
18
16
14
13
13
13
13
14
16
16
17
18
18
16
15
14
15
17
19
23
28
38
58
80
101
120
136
151
162
170
176
181
186
190
196
205
215
224
231
238
243
246
247
255
255
255
255
255
255
255
255
255
255
255
250
208
183
178
161
157
164
178
190
211
222
221
218
215
213
210
207
203
198
193
187
180
173
162
146
130
117
108
103
100
99
99
100
102
101
98
94
88
82
75
69
64
58
52
45
39
31
26
22
20
20
20
20
20
20
20
20
20
19
18
17
16
17
20
22
26
36
48
72
96
118
138
154
168
179
186
192
196
200
205
211
218
226
232
238
243
247
249
250
255
255
255
255
255
255
255
255
255
255
255
255
254
228
205
202
200
202
210
232
240
239
234
230
228
225
222
220
217
214
211
208
205
202
191
173
153
135
122
114
110
108
106
104
104
103
102
99
95
90
85
81
78
74
71
67
64
59
54
48
42
40
35
32
30
28
26
26
25
24
23
22
21
22
25
28
36
46
63
91
117
140
158
174
186
195
202
207
210
213
218
222
228
234
239
244
248
250
252
252
255
255
255
255
255
255
255
255
255
255
255
255
255
255
250
242
240
245
249
251
250
246
242
240
237
234
232
230
228
227
226
225
225
224
218
202
179
155
139
126
120
116
114
112
110
108
107
105
102
100
97
95
94
93
93
92
93
92
92
90
87
81
72
63
53
44
38
36
33
33
32
31
30
31
34
42
50
66
90
119
144
166
184
196
204
211
216
218
220
224
227
231
236
241
246
249
252
252
253
253
255
255
255
255
255
255
255
255
255
255
255
255
255
255
255
255
255
255
254
252
252
251
248
245
243
242
240
239
239
238
239
239
238
236
234
227
211
186
162
143
136
129
124
121
119
116
115
113
112
112
110
110
112
113
116
120
124
129
133
136
137
136
131
122
109
94
78
66
57
53
47
47
44
49
53
64
78
101
128
153
178
198
211
216
220
224
225
227
228
232
235
239
243
247
250
253
254
254
255
255
255
255
255
255
255
255
255
255
255
255
255
255
255
255
255
255
255
255
254
254
253
252
252
250
249
248
247
246
247
247
247
247
246
246
245
242
237
222
200
176
159
147
140
138
132
129
128
126
125
124
124
126
130
134
140
147
156
165
174
182
188
190
189
184
173
158
142
126
113
102
94
90
90
92
100
114
130
149
172
197
217
226
226
228
229
231
232
234
235
238
242
246
248
251
254
255
255
255
255
255
255
255
255
255
255
255
255
255
255
255
255
255
255
255
255
255
255
255
255
254
254
253
252
252
252
252
251
252
252
253
253
253
252
251
250
248
246
244
236
219
200
182
170
162
155
149
144
142
140
138
138
140
146
152
160
172
184
197
206
212
216
217
218
216
210
204
198
189
177
165
155
148
148
150
156
166
181
199
220
236
240
238
237
236
236
236
238
238
241
244
248
250
252
254
255
255
255
255
255
255
255
255
255
255
255
255
255
255
255
255
255
255
255
255
255
255
255
255
255
255
254
253
252
252
252
252
253
254
255
255
255
255
253
250
246
242
239
235
231
225
217
204
194
181
170
158
150
147
145
142
142
146
149
154
159
168
178
186
192
196
198
196
190
186
184
191
212
238
240
226
202
184
176
174
180
190
208
222
242
248
245
243
241
239
237
238
238
240
244
248
249
250
253
255
255
255
255
255
255
255
