P2
# CREATOR: The GIMP's PNM Filter Version 1.0
100 100
255
250
247
245
242
241
239
237
236
234
232
228
222
218
215
215
214
216
218
218
215
208
202
197
198
197
198
199
200
202
206
207
210
212
215
216
221
225
230
229
226
220
214
207
197
190
184
180
178
182
194
191
184
175
165
156
147
141
136
130
125
122
120
120
124
128
135
145
158
171
183
194
204
210
211
210
211
213
214
212
213
215
217
223
230
238
245
248
248
246
245
247
248
250
252
254
255
255
255
255
255
240
238
236
235
233
229
227
222
217
212
204
197
193
196
200
204
209
210
206
199
191
185
183
184
186
188
190
190
189
188
189
187
187
187
191
193
199
203
208
208
204
198
189
182
173
167
163
160
162
160
156
152
146
141
135
130
123
117
111
108
105
103
103
104
107
112
118
127
138
148
158
167
174
182
186
188
190
192
191
190
192
194
198
208
218
228
232
232
229
227
228
231
236
243
249
253
255
255
255
255
233
231
228
226
225
218
211
200
193
188
182
178
177
178
182
188
191
192
188
181
174
169
169
170
173
174
174
172
171
170
168
168
166
165
166
168
174
177
182
185
186
183
177
171
163
157
152
150
146
142
138
134
130
126
122
116
112
108
104
100
98
96
96
96
96
98
101
106
114
121
130
139
150
160
170
177
180
181
178
178
178
180
183
189
195
203
208
207
204
200
200
204
211
223
235
245
251
254
255
255
226
223
221
217
212
202
191
181
176
173
170
168
164
162
161
165
171
173
169
162
160
157
160
162
163
163
162
159
157
154
152
150
148
147
146
148
152
156
161
166
169
171
168
162
155
152
149
146
142
138
134
130
128
124
121
116
114
109
104
100
96
95
94
92
92
92
92
95
98
104
111
120
131
144
157
167
172
171
169
168
168
170
174
178
182
185
186
184
180
178
176
179
184
197
214
232
244
252
254
255
220
216
214
206
197
186
178
171
166
163
161
159
154
148
143
141
144
146
147
146
147
149
151
152
153
152
150
146
144
142
140
137
134
132
130
130
132
136
142
149
156
160
159
153
149
146
147
146
143
139
134
132
129
126
124
122
119
114
108
103
99
97
96
94
92
89
88
90
90
92
98
104
115
128
143
156
162
164
162
160
160
162
166
171
175
177
172
170
166
162
162
162
164
172
188
210
230
245
251
254
217
211
207
196
187
176
170
166
160
156
152
148
143
136
129
125
124
126
129
134
137
140
141
142
142
141
139
136
135
134
133
130
127
122
119
118
118
119
124
132
140
146
148
144
139
138
141
144
144
140
135
133
130
128
127
125
122
119
112
105
98
97
98
97
94
91
89
87
85
86
88
93
101
111
124
137
147
151
153
152
151
154
159
165
172
174
171
164
159
156
154
153
154
158
166
186
212
235
246
251
218
212
204
189
176
169
166
162
154
147
142
138
132
126
120
115
112
113
116
122
125
128
129
130
129
128
127
126
126
129
130
129
126
121
116
111
107
106
109
114
123
132
134
130
124
122
128
137
141
140
137
132
129
128
127
125
123
121
120
114
107
102
100
100
97
95
92
88
84
82
82
84
89
97
106
116
125
133
139
142
145
149
154
158
166
172
172
166
160
154
151
150
148
148
152
166
193
220
240
247
222
212
200
178
170
167
163
156
145
136
130
126
122
117
114
108
106
104
105
110
112
114
115
114
114
112
112
111
114
118
122
125
125
121
116
109
102
98
96
99
108
114
116
112
108
106
110
121
131
136
136
131
128
125
124
123
121
122
123
122
119
113
108
105
101
98
94
90
85
81
78
78
83
88
93
100
108
116
125
132
138
144
146
150
159
170
173
170
163
156
150
147
144
143
144
150
174
204
230
241
224
207
190
174
168
166
160
148
136
128
121
116
113
111
109
106
103
100
98
100
102
103
101
99
97
98
97
98
98
103
108
113
115
114
111
104
97
90
86
87
91
96
96
94
90
88
91
101
113
123
126
126
123
122
120
120
118
118
120
122
121
118
114
110
106
102
97
91
85
79
74
74
78
82
85
88
94
100
110
120
129
135
136
138
150
164
172
171
165
157
150
146
143
140
138
141
158
188
218
234
218
199
184
173
169
166
155
143
131
122
115
112
108
107
105
104
100
98
96
95
96
96
92
89
87
85
84
84
85
87
91
95
98
98
96
91
85
80
77
76
77
78
78
76
75
75
77
82
91
102
110
113
114
114
114
113
112
112
113
114
114
113
112
109
106
103
98
91
83
75
70
69
72
76
79
82
84
88
96
105
113
118
122
128
140
156
166
168
165
156
150
146
142
138
136
135
145
173
205
227
213
197
186
178
172
164
152
140
128
120
113
109
106
105
103
102
99
97
94
92
92
92
88
83
79
78
75
75
75
75
77
78
78
76
72
70
70
69
70
69
71
71
72
72
73
71
70
72
76
84
91
97
99
101
102
101
101
100
102
104
104
104
104
104
108
116
118
113
104
88
74
70
70
72
75
77
78
80
83
90
96
102
108
118
130
146
157
162
162
156
150
145
141
137
134
132
138
160
192
222
211
204
196
184
172
162
151
138
128
120
114
108
106
104
103
100
98
96
93
92
90
88
84
80
77
73
71
70
69
68
70
71
70
68
68
69
72
74
76
78
78
79
80
82
84
84
84
81
80
82
84
86
88
88
89
88
90
90
91
92
94
99
106
110
110
106
101
101
96
92
84
81
78
74
74
76
77
76
77
80
85
91
98
108
120
130
140
149
153
151
148
142
139
134
132
130
132
148
184
221
214
212
203
186
171
161
149
137
126
119
113
108
106
104
102
99
96
95
93
90
88
85
82
80
77
74
70
69
68
68
69
68
68
68
73
76
78
80
82
82
84
84
86
89
90
92
92
92
91
89
88
89
91
92
94
93
86
85
86
91
103
109
108
102
99
97
98
98
97
95
91
87
83
82
78
78
75
76
77
79
84
91
95
102
110
114
120
130
136
140
138
136
132
130
128
125
127
147
188
228
218
216
203
184
170
158
146
134
123
117
111
106
104
103
101
98
96
94
92
89
86
83
81
79
78
74
72
70
68
66
66
67
70
74
76
78
80
81
82
84
84
86
87
90
92
94
95
96
96
96
96
97
99
101
102
104
105
105
104
104
102
102
101
98
96
98
98
100
99
96
93
89
86
86
86
82
80
78
80
82
84
88
92
98
100
100
104
110
118
123
125
125
124
121
119
117
124
152
201
236
216
215
200
182
168
155
141
128
120
112
106
102
102
100
100
98
96
94
92
89
86
82
80
78
76
74
72
69
65
65
67
69
72
76
77
77
78
80
81
82
83
84
86
88
93
94
95
96
97
98
98
100
102
103
104
104
105
107
104
103
102
99
98
97
98
100
102
100
98
99
97
94
89
86
89
91
90
80
76
77
79
81
85
91
94
94
95
98
102
108
111
112
112
110
109
109
124
162
212
242
216
212
197
180
166
152
136
124
116
109
104
100
98
98
96
97
96
95
92
89
86
82
81
79
77
74
72
68
65
66
69
72
74
75
76
76
77
77
79
80
80
82
82
86
91
94
95
96
96
97
98
99
101
102
102
102
102
104
102
100
98
98
99
98
98
101
102
100
98
98
97
96
94
91
87
93
98
91
76
72
72
74
78
85
89
90
91
92
95
97
100
100
100
99
98
105
126
167
216
244
216
209
193
178
164
150
134
122
114
108
104
101
98
97
96
98
98
96
93
90
87
84
82
81
79
77
73
66
66
68
72
73
73
74
74
74
76
75
76
77
78
78
80
81
90
93
94
96
96
97
98
99
100
100
100
100
100
101
103
102
100
98
96
96
96
99
101
98
97
96
95
96
95
94
92
89
92
99
90
70
68
69
74
80
86
87
88
89
90
91
92
91
90
89
90
100
123
161
207
243
215
205
190
176
166
151
135
124
116
112
108
104
101
100
98
100
100
98
95
91
88
85
84
83
80
76
68
66
68
70
71
71
70
70
70
70
72
72
74
73
74
74
75
78
90
92
94
95
95
97
97
99
98
100
100
101
101
101
102
100
98
96
94
94
95
96
98
95
95
94
94
93
94
94
94
92
90
91
99
82
68
68
71
76
82
85
86
87
87
87
88
87
85
84
85
95
117
151
196
240
212
202
188
177
168
154
138
127
122
118
114
108
104
102
100
101
100
99
96
92
89
86
85
83
78
69
67
68
68
69
68
68
67
67
66
67
66
68
70
70
70
72
71
77
89
91
92
94
95
96
98
98
99
101
101
101
101
101
101
100
98
94
92
92
93
94
95
93
92
92
91
91
92
91
92
93
92
90
92
97
76
71
73
76
80
82
83
84
84
84
85
83
82
81
83
91
112
146
192
238
214
201
188
179
171
158
144
132
126
124
120
115
109
104
102
101
100
98
95
92
90
87
86
80
72
68
67
67
67
66
66
66
65
65
65
65
65
66
66
68
69
69
71
79
88
90
92
93
94
96
97
96
99
101
101
101
101
100
100
100
96
94
92
91
92
92
93
91
90
90
89
90
89
89
89
91
92
91
90
93
97
80
78
78
80
82
82
82
82
82
82
81
80
80
82
91
111
148
192
236
214
200
186
180
174
162
148
135
130
128
124
121
113
107
102
101
100
97
94
91
90
88
84
76
69
67
67
66
65
64
64
64
64
64
64
64
65
66
66
66
67
69
72
77
83
88
91
93
94
96
96
98
99
100
100
102
101
101
99
99
97
94
92
90
89
89
90
90
88
88
88
88
87
88
88
89
90
90
90
90
97
102
90
88
86
82
80
78
79
80
80
79
78
79
82
93
117
155
194
231
212
200
186
181
175
165
151
138
129
126
123
120
114
108
104
101
97
95
93
91
90
88
80
74
69
66
66
65
64
64
64
64
64
64
64
65
66
67
67
67
68
70
74
78
82
86
89
92
94
95
97
98
100
102
102
102
102
102
100
98
97
94
92
90
88
88
87
88
88
87
86
86
86
86
87
87
88
89
90
90
94
99
95
91
88
84
79
76
75
77
79
78
78
79
86
101
128
164
194
224
211
198
186
182
176
167
154
138
128
120
116
116
113
108
104
100
98
96
94
92
90
85
80
74
69
65
65
64
64
64
64
64
64
64
65
66
67
68
69
69
70
72
76
80
84
87
90
92
94
96
98
101
103
103
103
102
102
101
100
98
97
95
92
91
88
88
86
86
86
86
86
86
86
86
86
86
86
87
88
89
92
97
95
94
91
85
80
74
73
73
77
76
76
81
92
110
137
167
195
218
210
196
186
183
178
169
156
140
128
117
112
110
110
106
104
101
99
96
95
93
90
84
79
74
67
65
64
64
64
64
64
64
64
64
66
67
69
71
71
72
70
75
80
82
86
88
89
92
95
99
103
104
104
103
101
101
100
100
100
99
97
96
94
92
90
88
88
88
88
87
86
86
85
85
86
86
86
86
86
87
91
96
97
95
92
87
80
74
72
71
74
74
76
83
96
113
135
165
192
213
210
197
188
186
180
172
158
142
129
119
112
110
108
107
105
103
101
99
97
95
92
84
80
73
66
64
64
64
64
64
64
64
64
66
68
70
72
74
75
76
73
78
83
84
86
89
91
94
98
104
105
103
102
100
99
99
98
99
99
99
98
97
96
94
92
91
90
90
90
90
90
90
87
85
85
86
86
86
86
87
90
93
97
98
95
89
82
76
72
70
72
74
76
84
98
114
136
162
188
212
208
198
191
189
185
176
162
146
135
124
115
112
110
108
106
105
104
101
98
96
92
84
79
71
64
64
64
64
64
64
64
64
65
68
70
73
75
76
80
77
78
82
83
86
88
90
94
98
104
105
103
101
99
98
97
96
97
98
98
98
98
97
97
96
94
94
92
93
93
93
93
93
94
90
86
86
86
86
86
86
88
92
96
98
96
92
87
80
74
71
72
73
75
82
96
113
131
156
187
212
210
200
193
194
190
181
166
151
140
128
119
115
113
110
108
107
105
103
100
97
92
84
80
68
64
64
64
64
64
64
64
64
66
70
72
72
74
80
83
80
80
83
85
87
90
94
98
104
105
103
101
99
98
96
95
94
95
96
96
97
98
98
98
96
96
95
94
94
94
94
94
94
94
95
93
87
86
86
86
86
87
89
92
96
98
96
89
82
75
72
73
72
72
80
95
112
130
153
184
210
211
201
199
198
194
186
172
156
144
133
124
118
116
113
111
109
106
104
102
98
93
86
78
66
64
64
64
64
64
64
64
65
69
70
68
71
77
84
84
80
83
84
88
92
96
102
106
106
104
101
99
97
94
94
94
94
92
93
94
95
96
98
98
98
97
95
95
94
94
93
93
94
94
94
95
92
86
86
86
86
87
88
90
94
98
97
92
85
77
72
73
70
70
78
93
111
127
149
181
208
211
203
202
203
200
191
176
158
145
134
126
121
118
116
114
110
108
105
103
98
94
87
74
65
64
64
64
64
64
64
64
67
70
71
72
76
81
87
86
82
85
89
94
100
106
109
108
105
102
99
96
94
94
95
94
90
86
90
95
94
94
96
98
99
97
94
94
94
93
93
93
93
94
95
94
94
88
86
86
86
86
87
89
92
96
97
93
86
79
74
71
68
68
78
93
105
120
142
174
203
211
206
207
206
203
193
177
158
143
132
126
122
120
117
114
111
108
105
102
98
94
86
72
65
64
64
64
64
64
64
65
68
72
71
72
77
84
91
87
86
90
97
105
109
109
109
106
104
100
96
94
94
95
94
90
82
85
98
90
88
92
93
95
97
94
92
92
92
93
93
93
93
94
94
94
94
90
86
86
86
86
87
88
91
96
98
96
89
81
75
71
67
65
74
87
98
112
132
163
198
211
208
210
209
204
195
178
158
142
130
124
121
119
117
116
111
108
105
102
98
93
84
72
66
64
64
64
64
64
65
67
72
73
74
77
82
90
97
97
101
105
108
110
110
109
107
106
102
98
95
94
95
96
92
81
74
84
79
75
76
85
90
92
94
91
90
89
91
92
92
93
93
94
94
95
94
92
87
86
86
88
87
88
90
94
97
95
90
82
76
72
68
65
71
80
88
98
120
154
190
210
209
210
209
206
195
176
156
141
131
124
121
118
116
114
111
107
104
100
96
92
83
72
66
64
64
64
64
64
66
70
77
77
77
81
88
96
102
106
107
110
110
111
110
109
106
103
100
97
94
94
96
95
86
72
75
91
83
68
74
82
86
88
90
90
90
89
90
92
92
93
93
93
94
94
94
92
88
87
86
90
90
86
89
92
96
95
90
82
77
73
69
68
72
77
81
91
112
145
185
209
210
210
209
205
194
176
157
143
134
128
122
120
117
114
111
107
104
99
95
92
84
74
68
65
64
64
64
66
70
78
82
82
84
88
95
101
105
110
109
110
110
110
110
107
104
101
98
95
94
95
97
95
81
66
77
70
35
25
48
78
86
85
86
87
90
90
90
90
91
92
93
93
94
95
95
93
90
86
87
92
94
88
88
91
96
93
88
82
78
76
73
72
76
80
78
87
107
142
186
209
210
210
208
204
194
177
159
145
137
132
128
124
119
114
111
107
103
99
94
92
85
75
68
65
64
66
70
78
88
93
95
96
96
97
100
105
109
110
110
110
111
110
109
106
102
99
96
94
95
96
99
92
70
57
44
14
8
10
14
50
83
88
85
85
91
91
88
89
90
91
92
93
94
94
95
94
92
90
91
94
96
92
88
92
95
92
88
83
80
79
77
77
81
86
80
87
107
143
187
209
210
209
206
202
193
178
160
147
140
136
133
128
122
116
111
107
104
99
94
92
86
77
71
67
66
68
77
86
93
97
100
101
102
103
106
108
110
110
110
110
110
110
108
103
100
97
95
94
96
100
98
82
59
48
9
1
0
2
0
4
41
91
92
87
89
91
87
88
90
91
92
93
94
94
95
95
98
96
94
96
98
96
89
91
95
92
87
85
84
83
82
82
86
93
84
89
109
144
188
210
210
208
204
200
192
178
161
149
142
138
136
133
126
118
112
108
104
98
95
94
87
79
71
68
67
72
82
90
94
98
100
102
105
106
106
109
110
110
110
110
110
109
106
101
98
95
94
95
98
102
96
66
56
16
0
0
6
23
18
3
5
35
90
98
93
93
86
84
88
90
92
93
94
94
95
96
98
102
100
100
100
100
90
92
95
92
88
87
86
86
86
88
92
98
92
91
110
144
183
208
210
207
202
198
192
179
164
151
143
139
138
136
129
121
114
108
104
100
96
94
88
80
74
69
68
78
87
93
97
100
101
103
104
106
106
109
110
110
110
109
108
107
105
100
96
95
95
96
101
103
86
54
33
4
0
6
40
66
54
27
4
0
51
104
110
107
100
84
86
89
90
92
94
94
94
95
98
105
104
102
104
102
92
93
95
92
89
89
89
90
90
91
95
101
102
96
109
139
180
208
211
207
200
196
190
181
168
156
146
140
137
134
131
123
116
109
105
101
98
97
90
82
74
69
72
82
90
95
99
100
102
104
105
105
105
108
110
109
109
108
108
108
104
98
96
95
96
99
104
102
75
40
9
0
0
24
80
103
128
103
32
3
22
88
119
124
122
98
83
86
89
91
92
93
93
94
95
101
106
106
106
103
93
93
96
92
90
90
91
92
92
94
98
104
108
108
104
135
176
209
214
206
199
194
188
181
171
160
150
142
136
133
128
123
118
111
106
102
100
98
91
83
72
70
75
84
91
95
98
100
102
104
105
104
104
106
108
108
108
108
108
111
104
96
95
95
97
100
106
100
69
24
2
0
12
48
106
154
172
163
98
26
4
32
84
122
136
122
86
82
86
89
90
92
93
94
94
95
100
106
109
103
94
93
96
93
90
92
92
93
93
95
100
107
112
122
107
125
170
213
216
207
198
192
186
180
174
164
154
146
139
134
128
123
119
113
107
102
101
99
91
82
73
73
78
85
92
96
99
100
102
104
103
102
104
104
106
107
108
109
110
111
102
96
95
95
97
101
106
98
68
21
5
3
51
102
138
184
183
181
163
98
22
0
9
46
92
120
94
80
81
85
88
91
92
92
91
92
94
99
105
103
96
94
95
94
92
93
94
94
94
97
102
108
115
128
129
122
168
218
216
204
195
190
183
178
174
167
158
148
140
136
131
126
120
113
108
103
102
100
92
81
74
75
78
87
93
96
98
101
102
102
102
102
103
104
106
108
109
110
110
108
100
95
95
96
98
101
106
97
66
24
12
10
84
139
177
191
186
182
180
154
86
20
0
1
23
66
97
85
75
79
84
89
90
89
90
92
95
96
98
95
94
93
92
89
88
94
95
94
94
96
101
107
117
127
144
136
176
220
214
201
192
187
182
177
172
167
159
151
144
138
134
128
121
114
107
103
102
100
93
81
76
77
80
88
94
97
99
100
101
101
101
101
103
104
106
108
110
110
107
103
98
94
95
96
98
100
104
94
66
22
19
51
126
168
200
206
199
186
182
176
146
77
14
0
2
29
81
88
75
74
81
86
86
86
87
90
93
94
93
94
92
90
90
87
84
92
96
94
94
95
99
105
113
127
154
157
190
219
210
197
190
186
182
177
170
165
159
152
144
139
135
128
120
112
106
104
104
101
94
80
78
78
81
89
93
96
99
100
100
100
100
102
102
104
107
108
108
108
101
98
95
94
96
96
98
100
104
94
66
19
14
77
151
190
215
222
214
201
188
180
168
131
58
10
0
11
45
75
72
71
77
82
82
84
85
87
91
93
92
93
92
91
88
88
85
88
98
96
94
94
96
101
109
124
152
167
210
217
206
193
186
184
181
175
168
162
158
151
144
137
131
124
117
110
106
104
104
103
92
82
81
79
82
89
94
98
100
100
99
99
100
100
103
104
106
106
106
104
97
96
95
94
96
97
98
99
101
90
65
11
13
56
171
201
222
228
228
223
206
186
171
155
106
42
6
1
8
33
53
64
72
78
79
81
83
86
89
91
92
92
93
90
90
89
87
88
97
99
94
93
94
96
105
121
146
164
219
214
201
191
184
182
180
173
164
159
155
149
140
133
126
119
113
108
105
104
105
104
90
82
82
81
83
90
95
99
99
98
98
98
99
101
102
104
105
104
102
99
95
95
94
96
96
98
98
99
100
90
52
2
9
70
192
209
224
230
233
234
226
204
178
166
133
85
30
6
0
3
16
47
66
76
79
81
82
86
90
91
92
92
93
91
91
92
90
91
96
100
96
92
92
94
102
114
129
154
225
211
198
187
182
180
178
172
164
156
152
145
137
128
122
115
108
105
104
104
106
104
89
85
83
81
83
91
97
98
98
97
97
98
99
101
102
104
103
102
100
96
94
95
95
96
97
98
98
97
98
80
21
1
13
114
200
214
230
236
237
240
238
218
179
162
144
112
77
34
4
1
8
32
63
75
78
80
82
86
88
91
92
92
94
91
92
96
94
95
99
105
97
92
92
92
96
104
116
147
226
208
194
185
178
176
177
171
162
154
148
140
131
122
116
112
107
105
104
106
108
102
89
85
85
83
85
94
98
98
96
96
96
98
100
101
102
102
101
99
98
94
95
95
96
96
98
98
97
96
102
77
5
3
53
155
206
216
240
244
244
245
233
207
170
152
139
129
112
64
10
2
12
31
61
75
78
79
81
85
89
91
92
93
94
92
94
100
100
100
105
110
100
94
91
90
90
96
110
140
218
205
192
182
175
173
173
168
159
151
144
136
126
118
113
109
106
104
104
106
108
98
90
87
86
84
90
96
96
96
95
94
96
98
99
100
100
100
98
98
97
94
95
96
97
98
98
98
97
93
90
80
5
17
98
177
207
216
234
242
244
244
226
185
155
142
132
124
117
56
10
3
17
40
66
75
78
79
81
86
89
90
92
92
94
93
96
103
103
105
108
110
101
95
92
89
88
94
107
131
205
203
190
180
172
168
168
166
157
149
140
131
122
116
112
110
107
105
106
108
109
98
91
89
88
88
93
95
95
95
94
95
96
98
98
99
99
98
99
98
95
94
95
97
98
98
98
97
96
90
57
68
5
24
109
165
192
214
225
222
214
208
204
176
138
132
127
121
105
50
14
4
22
48
68
76
77
78
81
86
89
92
92
93
94
94
98
104
105
106
110
110
100
95
92
88
87
90
101
124
190
201
189
178
169
162
162
159
151
142
135
127
120
115
112
110
108
105
106
108
108
99
93
89
88
90
94
95
94
94
94
95
96
96
96
96
96
98
98
95
94
94
95
97
98
98
98
98
95
95
64
42
4
16
85
137
168
203
204
194
187
177
165
144
127
126
123
117
103
54
20
10
26
57
72
77
77
79
83
86
90
92
92
94
94
94
98
102
105
107
114
109
100
95
91
88
86
88
96
118
177
199
189
178
167
158
154
152
143
135
129
124
118
116
114
111
108
106
107
110
108
100
93
92
89
91
93
94
94
94
94
94
94
94
93
93
92
92
93
93
94
94
96
98
98
98
98
97
96
102
88
47
6
12
68
124
142
172
186
178
166
157
144
129
122
124
119
112
89
46
31
16
34
65
76
77
77
80
84
88
90
92
92
94
94
96
98
103
107
110
114
108
100
96
92
88
85
84
91
114
170
197
190
180
168
156
149
143
136
128
124
122
118
116
114
112
109
107
107
110
108
100
95
91
89
92
93
93
94
94
93
92
92
91
90
90
90
90
91
92
94
95
97
98
99
99
98
97
97
105
102
76
23
3
52
103
124
136
146
148
147
139
128
123
121
118
113
100
59
39
28
16
49
72
78
77
78
82
86
88
91
92
93
94
94
96
99
103
108
112
114
106
100
96
91
88
85
84
88
114
163
195
190
181
170
157
147
139
132
125
122
121
120
116
114
112
110
107
107
110
108
100
94
90
90
92
93
93
94
94
93
92
91
91
90
90
90
89
91
92
94
96
98
99
99
98
98
97
98
102
104
96
54
5
16
63
104
123
126
125
124
124
122
121
114
92
61
41
29
25
17
25
61
76
78
78
79
83
87
90
92
92
94
95
95
97
100
105
110
117
114
103
99
96
92
88
85
82
86
115
158
194
190
182
171
158
146
138
130
125
122
121
120
116
114
112
110
108
108
110
108
101
94
90
91
92
93
93
94
93
92
92
92
93
92
93
93
92
92
92
94
97
99
100
100
98
97
96
96
98
102
102
81
19
3
15
78
107
117
118
118
119
118
116
91
46
26
18
11
6
8
38
68
79
78
78
81
86
88
90
92
93
93
95
94
98
102
107
114
119
111
102
99
95
90
88
84
81
85
111
150
194
190
182
172
160
148
139
132
126
125
123
120
117
114
112
110
108
107
110
108
101
93
90
91
92
93
93
93
92
93
92
94
95
96
96
96
96
95
94
95
98
100
101
100
98
98
97
96
98
100
104
98
44
0
0
23
63
89
98
96
99
104
103
64
30
20
17
9
2
15
52
76
80
78
79
83
86
89
90
92
93
94
95
95
99
103
110
117
118
108
101
99
94
90
88
84
81
84
107
143
193
189
181
173
160
148
138
133
130
127
125
120
116
113
110
109
108
108
110
108
101
92
90
92
92
93
93
92
92
92
94
94
96
95
95
95
96
97
96
98
100
102
102
100
98
98
97
96
96
98
102
102
71
3
0
0
7
28
44
56
70
80
63
27
8
3
1
0
2
26
62
79
79
78
80
85
88
90
92
93
94
95
95
96
100
106
115
116
113
105
101
99
94
90
88
84
81
85
106
137
191
187
180
172
161
149
139
135
131
129
126
121
116
112
109
108
108
108
109
107
100
90
91
92
92
93
93
92
92
93
94
95
94
94
93
94
95
96
98
100
103
105
104
100
98
98
98
97
96
97
100
104
86
19
0
0
0
0
2
9
18
33
26
10
1
0
0
0
7
38
72
82
79
78
82
86
89
90
92
94
94
94
96
98
102
111
115
113
111
104
101
99
94
89
88
85
82
86
104
134
191
185
178
172
162
149
140
134
132
130
126
121
115
111
108
108
108
108
109
107
98
90
90
91
92
93
93
92
92
93
94
94
93
94
94
95
98
101
104
104
105
106
105
102
99
98
98
97
95
95
98
102
100
50
11
3
2
2
1
1
2
8
16
16
11
2
0
9
18
49
78
82
78
79
83
86
90
92
93
94
94
94
97
100
106
112
112
112
110
103
101
99
94
90
88
84
84
88
104
134
192
186
179
173
162
150
140
134
132
129
124
120
114
111
109
108
108
108
108
106
95
90
91
91
92
93
92
92
93
93
92
92
92
92
94
96
98
101
106
112
109
109
108
105
102
99
98
98
95
94
96
100
108
91
39
19
13
10
8
11
13
12
11
12
14
16
22
17
26
66
82
81
79
82
84
88
90
92
94
94
94
95
98
102
109
111
111
110
107
103
101
99
92
88
88
86
85
90
109
141
193
186
180
174
163
151
140
135
131
128
124
120
114
110
108
108
108
108
107
105
94
90
90
91
92
92
92
92
91
91
91
91
91
92
94
94
98
98
107
112
115
116
112
108
103
100
98
96
94
93
95
100
108
114
78
64
49
25
24
28
34
36
21
17
19
29
24
25
56
79
82
80
82
84
86
88
91
93
94
92
93
96
99
105
108
108
110
110
106
102
101
98
93
89
88
86
87
94
115
152
192
187
182
174
165
152
143
134
130
126
124
119
114
110
110
109
108
108
106
104
94
90
91
91
91
90
90
90
90
90
91
90
91
92
93
95
97
102
108
114
116
116
113
107
102
99
98
96
94
93
94
99
110
126
100
101
98
79
52
38
38
41
38
36
54
54
40
52
75
83
82
82
84
86
88
90
92
94
92
92
94
96
101
106
106
108
110
108
104
102
101
98
92
88
89
88
89
100
126
168
190
188
184
175
165
154
143
135
131
127
124
119
115
110
110
109
109
109
106
103
94
90
90
90
90
89
89
88
89
88
89
90
90
92
94
100
102
108
109
114
116
117
112
106
102
99
97
94
92
92
93
98
106
115
93
93
94
92
87
74
63
50
55
68
63
50
56
76
83
83
83
85
87
88
90
90
92
91
90
92
93
97
102
104
105
108
109
107
103
102
101
96
90
90
90
90
92
103
140
186
190
188
184
176
166
156
144
136
130
127
124
119
115
112
111
110
110
109
106
102
94
90
90
89
89
88
88
88
88
88
89
90
90
93
96
99
101
106
109
114
116
116
109
104
101
98
97
96
93
91
92
97
106
108
102
101
100
99
97
96
98
108
98
72
60
66
77
84
85
85
86
88
89
90
91
91
91
90
89
90
92
95
101
102
104
108
108
104
102
101
101
96
90
90
92
92
93
110
149
196
190
189
183
176
168
156
145
136
131
128
125
121
116
113
112
110
110
109
105
99
91
90
88
88
88
88
88
88
88
88
88
89
92
93
96
98
98
102
109
114
116
114
106
103
100
98
96
94
92
90
92
98
110
109
112
122
120
116
114
108
100
84
71
70
75
82
86
88
88
88
90
92
93
93
93
92
90
90
88
88
88
95
99
101
104
108
106
102
101
101
100
95
90
90
94
95
95
118
153
200
190
188
182
176
167
157
146
136
131
129
125
121
118
114
112
110
110
110
104
94
90
88
88
88
88
88
88
88
88
88
88
89
91
91
93
93
95
100
108
112
114
111
103
100
99
96
96
95
95
96
98
102
105
105
100
102
100
95
91
86
81
80
81
86
89
90
91
90
92
94
97
98
96
96
94
92
91
89
87
85
86
95
97
99
104
108
104
101
101
101
98
92
89
92
95
94
101
122
154
201
190
188
182
175
167
157
146
137
132
130
128
124
120
116
113
111
111
110
100
92
88
88
88
88
88
88
88
88
88
88
88
89
90
90
92
93
93
98
106
111
112
107
100
98
96
96
96
98
98
100
100
101
100
99
98
95
95
94
96
96
97
96
95
94
95
96
95
98
99
100
100
98
97
95
92
90
89
86
84
84
87
93
96
99
105
105
101
101
101
100
95
89
90
94
95
96
107
126
160
206
189
186
182
175
168
157
146
137
133
131
129
126
122
118
114
112
112
108
96
90
88
88
88
88
88
88
88
88
88
88
88
89
89
90
90
91
92
97
104
109
111
103
97
95
95
96
97
99
100
102
102
105
105
106
106
106
106
106
107
107
106
105
102
102
100
102
103
103
101
100
98
97
94
92
90
88
86
84
83
84
88
93
96
100
104
100
100
101
102
98
91
87
90
94
94
105
115
137
174
216
188
185
182
174
167
157
147
138
134
132
130
128
125
120
117
115
112
106
92
89
88
88
88
88
88
88
88
88
88
89
88
88
88
89
89
90
90
96
101
107
106
98
94
94
94
96
98
102
105
111
110
113
115
115
115
115
115
112
112
111
112
110
109
106
106
106
103
102
100
99
98
95
92
90
89
86
84
84
84
85
90
92
96
102
102
99
100
101
100
96
88
84
88
91
99
113
128
152
192
227
188
184
180
176
168
158
149
140
135
133
132
130
127
123
120
118
113
101
91
89
88
88
88
88
88
88
88
88
88
89
88
88
88
88
88
88
89
93
99
103
101
95
94
94
94
96
97
100
105
113
117
119
120
120
120
118
118
116
115
113
113
110
110
107
105
103
102
101
100
100
96
92
90
88
86
84
84
84
85
87
90
93
98
102
98
99
100
102
100
92
85
84
89
91
110
125
143
168
206
234
188
184
180
175
169
162
153
143
137
134
133
131
129
126
122
121
118
107
93
89
88
88
88
88
88
88
88
89
89
90
88
88
88
88
88
88
88
90
96
100
96
94
94
94
94
95
97
98
100
102
106
109
113
116
118
118
117
115
114
112
110
108
106
104
104
103
104
104
105
100
94
91
89
87
85
84
84
85
87
89
92
96
100
100
98
99
102
102
98
89
81
81
86
97
122
136
153
179
214
236
188
182
178
176
172
164
156
146
138
135
134
133
130
128
124
123
121
109
94
89
88
88
88
88
88
88
88
89
90
90
88
88
88
88
88
88
88
89
94
96
94
93
93
94
94
95
96
98
100
100
102
104
106
108
110
111
112
111
110
108
107
106
105
106
108
109
111
108
101
94
91
89
87
85
85
85
86
87
88
90
93
98
102
96
98
101
102
101
96
86
78
77
82
110
127
141
160
183
211
234
188
181
177
175
172
167
158
147
139
135
135
134
132
130
127
124
124
112
98
90
88
88
88
88
88
88
88
89
90
89
88
88
88
88
88
88
88
88
90
93
94
93
92
93
93
94
96
97
99
100
102
102
104
105
106
106
107
106
106
106
107
108
110
112
114
112
108
101
96
92
89
86
86
86
86
86
88
88
88
91
96
100
97
96
99
102
103
100
91
80
73
74
94
119
132
145
162
182
206
231
188
180
176
172
171
167
159
149
141
136
135
135
134
132
128
127
127
118
101
92
88
88
88
88
88
88
88
88
89
88
88
88
88
88
88
88
88
88
88
90
92
92
91
92
92
94
95
96
98
100
101
102
104
106
106
107
107
108
109
110
112
114
114
113
108
104
100
94
92
90
88
87
86
86
87
88
88
88
91
95
98
96
94
96
101
103
102
98
87
75
67
74
109
125
136
149
162
177
201
228
188
180
174
170
169
166
160
151
144
138
136
136
135
133
131
130
130
124
106
96
90
88
88
88
88
88
88
88
88
88
88
88
88
88
88
88
88
88
88
88
89
91
90
91
91
92
93
96
96
99
100
102
104
106
106
109
110
112
113
111
111
109
107
105
100
98
94
92
89
88
86
87
87
88
88
88
88
90
94
95
93
94
96
99
103
105
102
93
79
66
63
82
116
128
138
150
159
173
198
226
188
181
174
169
167
164
160
153
146
140
136
136
136
136
132
131
131
128
112
101
93
90
88
88
88
88
88
88
88
88
88
88
88
88
88
88
88
88
88
88
88
89
89
90
90
91
92
94
94
96
97
100
101
104
106
109
111
111
110
109
106
104
102
98
97
94
92
89
88
86
88
88
88
89
88
89
90
93
92
92
93
96
98
102
105
105
102
91
76
64
65
92
116
126
136
146
155
170
196
224
188
182
174
170
165
162
159
154
147
142
137
136
138
137
135
132
132
131
119
106
98
92
89
89
88
88
88
88
88
88
88
88
88
88
88
88
88
88
88
88
88
88
89
89
89
90
90
92
92
94
95
99
102
106
107
108
108
108
106
104
103
100
98
96
94
92
90
88
87
88
88
88
90
89
88
89
90
90
90
92
94
98
102
105
108
108
104
88
73
66
74
99
115
125
135
144
153
169
196
224
186
181
175
168
162
159
158
154
148
142
138
136
138
139
137
133
131
130
124
113
102
97
94
91
90
88
90
89
89
89
88
88
88
88
88
88
88
88
88
88
88
89
90
90
91
92
93
93
95
96
98
101
102
103
104
103
103
102
102
101
102
101
100
98
97
95
94
92
92
90
88
90
90
89
89
89
89
90
92
94
98
102
106
109
110
110
100
87
74
70
84
100
112
125
136
147
158
176
203
229
186
179
172
165
160
157
156
152
148
142
137
136
138
140
139
136
132
128
126
118
109
102
98
94
93
90
92
90
91
90
88
88
88
88
88
88
88
88
88
88
87
87
87
88
89
90
92
94
96
98
99
100
100
100
100
99
98
98
98
98
98
98
98
98
97
96
94
92
90
88
89
92
90
89
89
89
91
93
94
98
102
107
110
114
117
114
104
91
78
80
92
105
116
129
144
160
175
190
212
234
183
176
168
160
156
155
154
150
146
142
138
137
138
140
141
138
134
128
124
116
113
108
103
99
97
94
94
92
92
92
88
88
88
88
88
88
88
88
88
86
84
84
82
82
83
84
85
86
88
90
93
94
94
95
94
95
94
94
93
93
93
93
93
93
93
92
90
89
87
88
90
92
90
90
90
91
93
95
97
102
106
112
117
122
121
115
103
86
82
93
105
118
132
147
164
180
190
203
220
239
181
172
164
158
155
154
152
150
146
142
138
137
139
142
142
141
137
132
127
120
115
110
106
104
100
98
96
96
94
94
90
89
88
88
88
88
88
87
86
84
82
79
77
75
74
74
75
76
76
78
80
82
82
83
83
84
84
83
82
82
83
83
84
84
85
84
85
86
88
90
94
93
91
91
92
92
94
97
102
106
113
118
127
129
127
120
98
85
104
117
126
138
154
170
183
192
199
207
223
242
179
169
160
154
152
152
152
150
146
142
139
138
139
141
142
143
140
136
134
129
124
114
108
105
103
101
98
98
98
96
93
90
89
90
90
88
88
86
84
82
78
75
73
71
70
70
70
70
71
72
73
74
74
75
76
77
78
79
80
80
82
82
84
84
85
86
88
89
92
95
96
92
90
90
92
91
96
100
107
113
120
130
134
137
135
110
89
109
132
144
151
162
174
185
193
197
201
210
227
244
177
165
158
153
152
152
151
150
147
144
140
139
139
141
144
145
142
139
138
135
131
126
118
112
106
105
102
100
100
101
94
90
90
90
90
89
86
84
82
80
78
77
76
76
76
75
75
75
76
76
77
76
78
78
80
80
82
82
85
86
87
88
89
89
90
91
94
96
98
97
93
89
88
88
90
93
97
106
112
122
130
136
142
146
124
98
112
136
153
164
170
177
184
190
193
196
202
212
231
247
176
164
157
154
153
152
152
150
147
145
143
140
140
141
143
145
144
142
140
137
134
130
126
121
118
114
112
112
111
103
97
93
91
90
90
88
87
85
84
82
84
84
85
85
84
84
83
82
83
84
82
84
84
86
86
88
88
90
91
93
93
95
95
97
97
98
98
98
93
90
85
84
84
84
86
94
100
109
121
130
138
148
155
148
130
124
135
155
167
176
180
183
187
191
194
198
203
215
233
249
175
164
158
154
154
155
153
151
148
146
145
142
141
142
143
145
146
144
141
138
136
132
129
127
126
124
124
124
118
107
101
97
94
93
92
90
88
88
88
88
91
93
93
94
92
92
91
89
88
87
88
88
88
90
89
90
90
91
88
90
89
90
90
91
90
90
88
86
85
85
84
83
80
80
85
94
107
117
126
138
151
162
168
164
153
145
154
168
176
182
186
188
189
191
194
198
206
220
238
251
176
165
159
156
155
156
156
154
153
152
149
145
142
142
143
144
145
146
144
141
138
135
133
132
131
130
129
126
119
111
106
101
99
96
96
94
91
91
94
95
98
100
100
99
100
100
98
97
94
92
90
89
88
89
88
88
88
89
89
90
90
90
90
90
89
88
88
88
88
88
87
84
78
73
79
92
104
119
137
153
168
179
183
181
172
164
168
178
184
187
190
192
194
195
198
203
212
228
244
252
176
165
159
156
154
155
157
158
160
159
155
149
144
142
142
143
145
147
146
142
140
139
138
137
136
134
132
127
119
114
109
105
102
101
100
99
96
95
96
100
103
104
104
105
105
106
106
103
102
100
100
98
98
96
96
95
95
95
95
95
95
94
93
92
92
92
92
92
92
91
88
83
76
72
74
90
112
130
151
169
180
186
190
193
190
182
178
184
189
193
194
196
198
200
203
209
220
236
249
254
177
166
161
156
154
153
155
160
163
163
160
155
148
144
143
144
143
147
147
145
143
142
142
140
140
137
134
129
120
116
110
107
106
105
105
104
101
99
100
106
107
107
106
106
106
108
107
106
108
111
112
112
111
109
108
107
106
105
103
101
100
98
95
95
94
95
96
98
98
96
92
85
75
71
75
92
115
134
153
172
182
189
195
200
200
196
189
188
192
195
199
200
203
205
209
217
230
244
254
255
179
168
163
158
154
153
154
160
166
167
166
162
156
150
145
144
145
147
148
146
144
144
144
143
142
140
137
133
123
118
114
111
110
110
109
107
104
104
104
107
106
106
107
106
107
108
108
110
111
118
120
119
117
116
112
108
104
104
102
100
99
97
96
96
98
102
105
107
106
103
94
84
75
71
78
99
125
139
153
173
186
194
199
204
207
207
201
196
195
198
202
204
206
210
216
226
241
251
255
255
179
170
164
160
155
154
156
162
167
169
171
171
166
158
152
148
147
147
149
147
145
145
145
145
145
143
140
137
132
124
120
118
116
114
112
110
110
110
111
111
111
111
112
112
114
114
115
117
120
126
130
128
128
125
120
112
107
105
103
100
98
96
96
98
104
111
118
120
116
105
92
80
72
70
84
113
140
151
159
174
189
198
204
209
212
214
214
208
203
202
204
207
211
217
226
238
249
254
255
255
180
172
168
162
157
156
159
165
170
174
178
178
176
171
164
156
152
151
150
148
147
146
147
148
148
147
144
142
141
136
128
126
124
122
121
122
123
125
126
124
122
122
124
124
126
126
127
129
132
136
140
140
139
136
130
121
114
110
108
105
102
100
100
104
114
124
133
133
122
103
86
75
69
72
92
127
157
166
166
176
193
204
210
213
217
222
222
221
218
214
212
214
219
228
238
248
253
255
255
255
181
173
168
162
158
159
163
169
174
179
182
184
184
180
176
168
162
156
154
150
149
148
149
151
152
152
150
148
146
145
142
138
134
134
136
139
142
145
144
141
140
140
140
140
140
140
141
143
146
149
152
152
150
147
140
131
122
119
115
114
111
110
113
120
132
145
149
145
126
100
84
74
69
77
102
141
172
182
179
180
193
205
213
217
221
224
228
232
232
231
229
230
235
242
248
253
255
255
255
255
183
174
168
162
161
162
167
174
180
184
186
187
187
185
184
180
174
166
160
156
153
151
151
152
154
155
155
154
154
152
150
150
148
148
150
153
156
156
157
158
158
157
157
156
155
156
157
159
161
164
166
164
161
158
150
143
137
133
131
128
127
125
129
138
152
162
165
155
128
102
86
78
77
90
119
158
187
197
193
189
196
207
217
224
225
224
230
239
242
244
244
245
247
250
254
255
255
255
255
255
188
176
168
164
163
167
172
178
184
187
188
188
189
190
190
187
181
174
168
164
160
159
158
158
158
159
159
160
162
162
160
158
157
156
158
160
164
166
168
170
172
173
172
172
172
173
174
177
180
181
181
179
175
171
166
162
159
156
154
152
150
150
152
158
168
177
181
171
144
120
102
94
96
110
141
176
201
209
205
198
202
215
224
229
230
230
234
241
248
249
249
251
252
254
255
255
255
255
255
255
193
180
170
165
167
170
175
180
185
188
188
189
190
193
193
191
185
180
175
172
172
171
169
166
165
165
167
168
170
172
172
172
172
170
170
171
174
178
182
184
187
187
188
188
188
190
193
196
198
200
198
196
195
191
188
187
185
183
181
179
177
176
174
178
184
192
192
185
170
152
142
129
128
141
169
198
215
219
214
212
218
225
231
234
236
236
239
246
248
249
250
252
253
254
254
255
255
255
255
255
195
183
173
170
171
174
176
180
185
188
188
189
191
191
192
190
188
186
182
182
182
183
180
177
177
177
178
180
182
185
188
189
189
188
186
186
188
192
196
198
200
201
203
204
206
208
209
213
214
214
214
214
213
213
212
211
211
208
207
205
202
198
193
193
196
202
205
202
197
192
185
179
172
177
196
216
226
228
226
227
231
234
236
238
240
242
245
247
248
249
250
252
253
254
254
255
255
255
255
255
196
186
177
174
176
178
178
182
186
188
189
190
190
192
192
191
190
190
189
189
190
192
192
192
192
192
194
195
196
199
202
205
206
204
204
202
203
204
206
208
209
210
212
214
216
219
219
222
224
225
226
226
226
227
227
227
228
227
227
227
224
220
214
208
206
210
214
218
222
224
225
222
218
218
223
230
234
236
236
237
238
239
240
242
244
246
247
248
249
250
251
252
253
254
255
255
255
255
255
255
199
188
180
180
182
185
184
185
187
190
190
190
191
192
192
192
194
194
194
194
196
198
200
202
202
204
206
207
208
210
213
214
217
216
216
215
215
214
214
214
214
216
217
220
220
222
224
226
229
230
231
232
232
233
234
235
236
236
237
237
238
236
231
223
217
217
221
226
232
235
237
238
238
238
238
239
240
241
241
241
242
242
244
245
246
248
249
251
251
252
253
254
254
255
255
255
255
255
255
255
203
191
185
186
190
192
193
191
191
192
192
192
192
192
193
194
196
198
200
199
200
202
203
207
209
212
213
214
215
216
218
220
221
222
223
223
224
223
222
221
220
222
223
225
225
226
227
228
231
232
232
232
234
234
234
236
236
237
238
238
240
240
238
234
229
224
224
226
230
234
236
237
238
238
240
240
241
241
242
242
244
244
246
247
250
251
251
252
253
254
254
254
255
255
255
255
255
255
255
255
208
196
190
191
195
197
198
199
199
198
196
196
195
196
196
198
201
204
205
204
203
204
205
208
210
212
214
215
216
216
218
219
220
223
224
225
226
227
227
227
228
228
230
230
232
232
233
234
234
234
234
234
235
236
236
236
236
237
237
238
238
239
240
240
237
234
230
229
230
232
235
237
237
238
239
240
240
241
243
244
245
246
248
250
252
253
254
254
255
255
255
255
255
255
255
255
255
255
255
255
212
202
198
196
198
199
202
202
199
198
199
199
200
200
202
203
206
209
209
207
207
208
208
210
211
214
215
216
218
220
221
222
223
224
226
228
229
231
233
234
234
236
237
238
239
240
240
241
241
240
240
240
240
240
240
240
239
240
238
238
238
238
239
240
240
239
238
234
233
233
234
236
238
239
240
241
242
242
244
245
246
248
250
251
254
254
254
255
255
255
255
255
255
255
255
255
255
255
255
255
