P2
# CREATOR: The GIMP's PNM Filter Version 1.0
100 100
255
255
255
253
247
236
225
221
223
232
238
218
162
131
91
70
52
39
30
27
27
30
22
27
34
41
51
66
92
115
127
148
180
248
255
255
255
255
255
255
255
255
255
255
255
255
255
255
255
255
255
255
255
255
255
255
255
255
255
255
255
255
255
255
254
253
249
243
234
228
221
223
217
220
220
222
220
219
221
221
223
224
227
231
235
240
243
248
250
253
254
255
255
255
255
255
255
255
255
255
255
255
252
240
220
201
189
181
178
181
178
152
124
103
68
61
46
35
28
25
24
27
25
29
33
39
48
68
91
111
128
149
184
251
255
255
255
255
255
255
255
255
255
255
255
255
255
255
255
255
255
255
255
254
254
254
253
253
253
253
253
252
253
251
250
243
232
226
220
213
211
213
209
210
211
212
214
209
212
213
215
217
220
224
229
235
241
246
250
252
254
255
255
255
255
255
255
255
255
255
255
253
240
216
191
177
164
154
147
131
106
89
81
68
54
49
37
31
28
26
27
26
26
26
30
40
50
72
97
113
129
151
196
254
255
255
255
255
255
255
255
255
255
255
255
255
255
255
255
255
255
254
251
248
247
248
248
248
249
248
247
245
244
244
234
221
213
212
207
202
202
203
202
199
201
201
204
204
202
204
207
210
215
218
225
233
241
248
252
254
255
255
255
255
255
255
255
255
255
255
255
248
226
199
173
156
141
133
118
93
75
60
48
39
38
33
28
26
27
28
28
31
31
32
34
43
60
89
110
121
130
159
210
255
255
255
255
255
255
255
255
255
255
255
255
255
255
255
255
253
249
238
229
229
231
233
233
235
236
237
232
232
231
225
207
202
196
202
196
194
193
192
193
190
190
191
193
195
199
201
204
212
221
230
236
242
248
252
254
255
255
255
255
255
255
255
255
255
255
255
255
241
215
181
156
137
126
114
88
67
54
41
34
30
30
22
19
18
19
25
29
30
31
30
48
61
87
105
113
124
143
162
228
254
254
253
253
253
253
253
254
254
254
255
255
253
251
249
240
229
213
202
200
203
207
209
212
215
219
214
214
214
211
197
188
191
186
192
189
185
183
183
183
182
182
183
185
188
193
202
215
230
241
244
245
246
249
253
254
254
255
255
255
255
255
255
255
255
255
255
255
237
206
165
140
123
112
91
65
52
37
28
24
23
26
19
14
14
13
19
24
30
32
45
58
76
105
118
122
131
147
196
237
241
237
237
237
239
242
244
246
247
248
249
244
228
210
202
195
184
171
165
168
173
177
180
186
189
198
195
200
197
189
178
178
181
177
180
180
177
174
174
174
175
177
179
183
191
201
215
228
232
234
237
238
241
244
250
253
253
253
254
255
255
255
255
255
255
255
255
255
237
198
153
128
112
97
69
49
36
24
20
19
21
19
14
12
12
14
18
24
27
30
40
52
74
104
112
117
144
190
213
221
216
209
209
213
217
222
226
229
231
230
217
190
176
172
160
149
142
137
135
140
144
149
152
161
168
184
182
181
178
173
165
168
170
170
168
170
170
169
168
168
169
173
180
189
196
207
214
217
220
222
226
227
232
234
246
252
252
252
252
253
254
255
255
255
255
255
255
255
241
196
146
121
100
80
51
34
23
16
14
13
14
13
10
10
12
16
21
25
24
33
37
43
67
99
116
139
169
194
209
209
200
195
191
189
193
195
199
200
197
177
146
131
130
126
123
118
115
113
112
117
122
126
130
145
161
169
168
167
163
161
155
159
160
161
159
159
160
162
164
165
169
175
182
190
195
199
201
204
205
208
211
213
219
221
240
250
250
250
251
251
252
254
255
255
255
255
255
255
248
198
148
113
89
62
35
23
15
11
9
9
9
11
8
10
11
17
23
24
25
32
36
39
54
76
101
144
177
189
192
186
179
181
182
176
169
170
171
164
148
128
116
110
109
103
99
98
97
98
99
102
107
111
120
140
153
152
151
152
150
151
146
148
150
151
153
154
154
155
157
161
166
174
183
187
187
184
186
186
188
189
192
194
201
204
231
248
248
249
249
250
250
252
254
254
255
255
255
255
253
211
152
112
74
43
27
19
12
10
8
7
8
10
9
11
15
21
24
24
29
29
33
41
58
82
112
148
177
183
186
172
167
164
165
162
152
145
145
128
117
107
96
95
94
92
89
88
87
89
91
93
97
102
117
137
146
149
150
149
144
142
140
137
141
145
148
151
152
154
156
160
171
180
184
176
173
168
168
168
167
169
169
174
176
187
223
244
244
244
244
246
246
248
252
253
254
255
255
255
255
228
163
114
59
34
23
15
13
10
8
8
9
12
12
12
20
27
29
34
38
43
48
50
56
77
125
166
174
170
166
156
156
158
154
145
137
124
121
106
102
94
87
87
87
85
84
84
83
85
86
89
91
101
121
136
138
138
138
139
137
134
133
131
132
138
144
148
152
155
159
168
178
178
176
163
157
152
152
150
147
148
146
149
147
171
219
240
239
239
239
242
242
245
249
250
253
255
255
255
255
239
169
100
52
36
24
19
13
11
9
10
11
16
20
28
37
42
45
49
53
61
67
76
80
104
135
152
149
144
138
138
140
141
144
133
120
109
104
94
91
85
82
82
82
83
83
84
83
82
85
86
90
104
121
126
129
129
130
130
127
126
125
126
132
135
140
144
149
154
160
165
168
167
161
149
144
142
140
136
132
129
126
125
130
163
217
233
232
231
232
235
236
241
245
247
250
254
255
255
255
244
153
75
47
35
25
23
19
16
13
18
24
31
40
48
53
54
56
60
67
76
82
89
90
96
99
110
116
118
117
116
118
118
119
121
107
98
94
84
82
79
77
78
79
82
82
83
83
83
84
86
95
116
127
130
130
126
122
121
120
119
118
120
127
134
140
146
149
154
159
159
159
156
152
148
151
148
143
134
125
119
115
114
120
153
216
224
223
221
223
225
229
236
240
244
247
253
255
255
254
223
117
66
46
37
27
26
22
22
22
28
35
41
50
57
60
64
66
64
64
63
62
64
64
66
68
68
72
73
75
81
87
92
95
98
95
94
87
78
76
74
73
75
77
79
81
83
85
86
86
92
109
115
121
123
123
121
119
116
115
114
114
118
123
130
136
142
148
152
154
154
154
153
158
163
163
160
151
140
128
117
109
105
110
146
186
200
208
207
211
214
220
228
234
239
244
250
255
255
243
169
96
59
42
35
30
29
25
27
33
40
45
51
57
60
61
58
53
50
46
43
42
42
43
44
45
47
49
52
54
55
59
66
74
79
81
84
81
72
69
69
71
72
75
79
82
84
86
86
91
100
105
111
116
115
112
113
111
110
108
108
108
109
113
125
133
139
144
146
147
148
150
156
164
163
160
154
144
131
118
106
99
96
105
139
177
170
182
188
190
194
203
212
222
232
240
247
254
255
195
114
80
58
45
36
33
28
29
32
40
48
56
60
60
61
59
57
55
53
48
41
33
30
31
31
33
34
36
38
39
41
43
47
54
66
70
72
74
66
61
63
67
73
77
81
83
86
88
89
93
98
101
107
107
107
106
107
106
105
104
104
103
102
107
118
124
129
133
136
138
143
151
156
159
164
157
148
136
122
109
98
92
93
101
126
154
161
162
167
171
172
177
185
198
211
229
242
253
255
137
90
71
60
47
42
35
31
36
46
54
62
64
64
61
58
56
51
46
41
37
35
32
27
25
26
26
27
27
29
29
30
31
32
38
47
57
60
60
61
56
56
61
69
77
84
88
90
90
90
93
96
101
103
103
103
104
103
102
101
100
100
99
99
107
111
111
114
120
128
137
140
145
156
158
162
153
144
129
114
101
93
88
89
96
114
138
152
152
151
154
156
159
166
177
193
210
230
249
255
101
74
63
56
53
46
38
37
43
50
60
66
71
68
62
57
55
51
46
42
36
30
26
25
22
21
21
22
22
23
23
24
25
25
27
32
41
48
48
48
50
50
55
64
73
83
88
90
90
90
94
95
99
100
100
100
101
100
99
97
96
96
96
100
105
110
113
116
119
125
131
141
142
148
159
160
151
139
126
112
100
90
84
84
90
103
124
134
136
136
138
146
152
158
167
181
198
214
238
254
83
68
59
52
52
45
41
44
53
64
72
76
74
67
60
55
53
46
41
35
31
28
24
22
20
18
18
19
19
20
20
21
20
21
23
25
30
38
39
38
42
44
50
61
72
82
88
90
90
90
93
95
98
98
98
98
98
97
96
94
93
92
95
99
103
105
106
110
115
123
129
136
142
146
158
162
149
135
120
106
94
86
82
81
86
93
107
117
122
127
132
133
146
150
161
170
190
208
226
249
69
60
54
52
49
45
48
53
64
75
81
82
78
68
59
55
50
44
39
34
28
24
21
19
16
15
15
16
16
18
18
19
20
21
21
22
23
29
32
31
33
35
38
49
63
75
84
89
90
90
91
95
97
96
96
96
96
95
93
91
90
89
94
96
100
104
106
110
113
120
126
134
143
148
164
163
146
133
117
103
92
84
80
78
82
88
98
104
112
117
126
128
135
145
151
165
178
203
219
241
64
55
52
49
50
49
53
61
72
84
89
86
80
67
57
53
46
40
34
29
26
23
19
17
15
12
12
12
13
14
15
16
16
18
20
22
21
24
26
26
28
30
30
34
45
62
78
87
91
90
91
94
95
96
95
94
93
92
90
89
87
88
92
94
99
101
103
107
111
118
124
134
148
154
170
165
145
130
115
100
90
83
79
78
79
84
93
98
102
111
115
125
126
140
142
163
170
197
215
238
59
54
51
51
50
52
58
69
83
96
97
91
80
65
55
50
44
38
33
27
22
19
18
14
13
10
11
10
12
11
13
13
14
17
18
21
21
21
22
23
23
24
25
27
32
39
52
70
86
92
93
91
93
93
93
92
91
90
89
87
85
84
90
93
97
100
101
105
110
116
123
134
151
162
172
163
144
128
114
100
90
82
78
77
77
82
89
92
96
105
107
123
118
135
137
158
164
193
213
236
54
52
51
53
52
55
63
80
96
105
102
90
78
62
53
47
40
34
29
25
21
18
16
14
12
10
9
9
9
9
9
9
11
12
17
21
21
21
20
20
21
21
21
23
26
29
37
47
68
87
92
92
92
91
91
90
90
89
87
86
82
84
88
91
95
98
102
105
108
112
119
130
147
157
156
150
138
126
113
99
89
82
78
77
78
82
86
89
91
101
101
119
114
127
135
152
164
187
217
237
53
51
52
54
57
59
72
90
107
114
105
91
73
58
50
44
38
32
27
22
18
17
14
13
17
15
13
11
11
10
8
8
8
10
15
19
21
21
19
19
19
19
18
20
22
25
30
38
51
68
90
95
92
90
89
90
88
89
85
82
78
80
87
91
95
98
100
102
104
108
112
117
123
124
125
130
128
119
111
97
89
82
77
77
77
80
82
86
89
97
99
111
112
120
135
146
161
188
221
240
51
51
53
55
57
64
77
100
117
120
109
90
70
54
48
41
35
29
25
21
18
16
14
16
24
24
18
15
13
11
10
8
7
9
14
18
21
21
20
19
18
17
17
19
18
22
25
32
44
56
74
94
97
93
90
87
86
85
82
75
71
78
86
90
93
96
97
98
101
103
105
108
108
109
115
120
122
117
107
97
88
82
78
77
78
78
81
83
88
91
99
104
107
117
128
136
159
199
231
240
52
53
57
65
62
70
89
115
130
126
109
86
62
52
44
38
32
28
23
19
17
15
15
19
26
24
19
16
15
13
11
8
7
7
11
16
19
21
21
19
17
17
17
17
16
19
21
28
41
52
65
87
100
95
91
86
84
83
82
76
68
74
84
90
92
94
95
97
98
100
102
104
104
110
117
123
128
121
108
98
90
83
80
77
77
78
79
81
85
88
95
94
98
106
112
133
177
222
235
239
51
55
60
67
67
79
101
126
139
131
112
80
58
50
43
37
31
26
22
19
17
16
19
24
27
25
19
17
16
14
11
9
7
6
9
13
17
21
21
21
17
17
16
15
16
17
17
24
37
50
63
81
102
105
95
91
85
83
82
77
68
71
81
88
92
94
94
97
98
100
102
101
104
111
115
119
121
120
113
103
94
87
82
78
78
77
78
79
80
83
82
83
86
94
117
163
209
234
232
241
51
57
66
74
79
95
115
135
142
132
111
70
55
46
40
34
29
24
21
18
17
16
22
27
27
24
18
17
18
16
14
11
8
6
6
11
16
20
22
20
19
17
17
16
16
15
15
22
34
48
61
78
100
115
105
91
87
84
82
77
67
66
76
85
92
94
95
97
98
100
101
101
104
110
114
117
119
116
112
103
98
92
87
82
80
78
77
75
75
74
73
76
86
111
154
196
220
230
235
240
56
61
74
87
97
111
121
137
144
136
102
64
54
46
39
33
28
24
21
19
18
20
26
28
28
26
20
18
19
17
15
12
9
6
5
9
13
17
23
23
21
21
17
16
15
15
15
20
32
47
61
79
102
117
112
96
86
84
83
78
71
64
70
81
90
93
95
97
98
100
100
102
104
109
112
115
115
112
107
102
97
94
90
86
82
79
76
74
73
73
74
79
99
133
177
201
217
224
231
238
59
67
86
116
129
124
127
142
149
135
85
62
51
43
38
32
27
23
20
20
19
22
28
26
26
27
23
20
20
19
17
14
11
7
5
6
12
18
23
23
21
20
18
16
15
14
13
19
32
46
60
78
100
118
114
97
86
85
85
80
74
64
63
73
85
90
93
94
96
98
99
100
103
108
112
115
113
108
102
98
93
90
87
83
79
76
74
73
73
73
75
85
113
159
187
204
215
224
231
237
68
80
108
163
158
135
140
151
154
121
78
64
53
45
37
31
26
23
22
20
22
25
26
25
25
26
26
22
21
20
17
14
10
6
5
6
11
16
23
23
21
21
17
16
14
13
13
19
33
49
64
83
102
118
115
101
91
86
89
81
74
66
59
64
78
86
89
91
93
96
97
100
103
107
111
112
107
102
98
95
90
86
84
80
77
75
74
73
73
75
77
103
150
173
193
205
214
221
229
235
75
95
147
218
182
154
157
159
152
108
81
65
53
45
38
31
26
23
22
21
24
26
25
24
24
25
26
25
23
20
18
15
11
7
5
5
11
19
25
23
21
19
17
15
13
13
12
19
37
51
68
87
105
119
118
104
92
87
87
83
78
70
58
55
64
78
83
85
87
90
94
99
101
106
109
105
99
97
94
90
86
83
80
77
75
74
73
73
75
76
90
143
163
181
196
203
212
220
227
234
87
124
200
249
200
173
169
166
146
111
84
69
58
47
38
32
27
24
24
23
25
24
23
22
23
23
26
26
23
20
17
14
10
6
4
6
11
19
24
24
22
21
17
16
13
12
12
22
41
55
72
91
107
120
121
108
98
91
88
83
80
71
63
53
52
61
71
79
81
81
90
97
101
104
103
99
95
92
89
86
82
80
77
75
74
73
73
75
76
78
116
159
170
183
194
202
211
219
227
232
111
171
231
254
213
187
181
170
141
112
90
72
58
47
34
26
24
22
23
22
22
21
21
20
20
19
19
23
22
20
17
12
8
5
3
5
10
21
27
24
20
18
15
14
13
12
13
28
43
59
76
95
109
121
124
113
100
91
88
83
79
73
63
53
47
46
50
58
67
72
83
96
101
99
96
93
90
87
85
83
80
77
75
74
73
73
76
77
76
86
132
165
172
184
193
200
209
217
223
232
143
203
247
255
209
189
181
168
142
116
93
75
52
35
28
25
24
23
23
21
21
20
18
19
17
16
15
14
15
16
14
11
7
4
3
5
10
19
24
25
23
21
17
15
12
10
17
28
43
59
76
96
110
122
126
116
105
96
87
83
80
72
64
53
47
44
44
47
52
57
77
92
96
95
90
88
86
84
82
79
78
76
74
73
73
75
78
76
75
95
139
164
173
183
191
200
209
219
224
229
175
227
253
253
198
182
175
161
142
118
88
60
40
33
27
26
25
25
23
23
20
19
18
16
16
14
13
11
9
9
10
9
7
5
3
5
10
25
26
22
18
16
13
10
9
10
17
29
43
59
76
95
112
124
130
125
113
100
90
84
80
74
63
53
45
42
43
46
50
54
77
88
91
90
84
83
83
81
78
77
76
74
73
73
76
79
76
71
76
95
139
168
175
185
192
201
208
215
221
227
202
245
255
248
187
170
162
152
140
109
74
50
37
31
29
29
28
28
25
24
22
20
19
16
16
13
12
9
9
8
7
6
5
4
3
5
9
24
25
22
17
15
11
8
8
9
17
29
44
61
76
96
112
127
136
131
119
106
93
84
79
74
64
53
46
42
42
45
48
52
72
82
86
84
79
80
79
79
76
76
74
73
74
77
82
79
72
72
78
94
132
166
177
185
195
203
212
217
221
226
227
253
255
241
188
162
145
143
131
94
69
48
41
34
32
31
30
30
27
25
22
20
19
15
15
11
10
8
7
6
5
5
4
4
3
3
5
13
12
12
11
8
6
6
7
12
18
30
44
59
77
96
120
132
140
137
129
115
101
89
83
75
65
53
45
41
41
43
46
51
67
76
80
80
77
77
77
76
76
75
73
73
75
82
85
72
72
77
85
98
129
162
179
188
198
203
210
213
218
231
247
255
255
237
196
161
142
131
121
90
70
50
40
35
34
33
32
31
28
25
22
18
18
14
14
10
9
7
6
5
4
3
3
3
3
2
5
7
6
6
5
5
5
5
9
16
25
34
46
64
84
116
134
140
143
144
138
125
110
99
92
82
67
56
46
41
39
42
47
50
61
71
74
77
76
75
76
75
76
74
73
74
79
87
82
73
78
83
94
110
131
162
180
191
200
207
210
212
218
239
254
255
255
237
209
163
152
130
117
91
70
52
45
39
37
34
33
31
28
24
23
19
18
14
13
10
9
6
5
4
4
3
2
2
3
2
4
4
5
5
5
4
4
6
12
20
30
44
61
80
108
136
148
150
148
151
145
133
120
108
102
94
74
59
47
40
39
41
43
49
59
65
71
73
76
75
75
76
74
73
74
77
86
89
80
80
84
94
104
119
137
164
184
194
199
204
206
210
222
246
255
255
255
241
221
179
157
130
115
92
71
53
44
39
38
36
34
30
28
23
23
20
18
16
12
9
8
5
5
3
3
2
1
2
2
2
4
6
4
5
4
4
7
9
15
22
37
53
69
94
128
150
157
158
154
156
154
140
127
115
110
98
83
64
51
42
38
39
44
51
54
63
68
71
73
76
76
75
74
74
77
84
92
90
84
92
95
105
116
129
146
168
187
197
202
204
204
209
229
246
255
255
255
248
229
195
177
137
114
93
72
56
48
42
39
36
34
30
26
23
21
22
19
18
14
11
8
6
4
3
1
2
2
2
3
4
6
9
9
8
9
7
9
14
22
36
54
63
85
111
134
152
165
167
165
161
159
145
133
120
115
101
94
73
53
42
38
39
44
47
54
61
65
71
74
76
75
73
74
76
82
92
97
94
93
100
109
114
128
138
154
175
191
196
199
199
203
212
236
246
255
255
255
253
241
213
187
148
116
94
68
53
45
42
40
38
34
29
24
22
25
22
23
19
17
13
9
6
4
3
1
1
0
2
4
5
8
11
14
17
14
13
19
25
39
55
71
74
92
111
132
150
164
170
171
167
162
146
134
122
116
100
96
80
59
45
37
36
41
48
58
60
67
73
76
76
74
74
76
79
87
97
102
99
104
110
119
123
137
145
161
181
194
199
199
196
200
217
237
245
255
255
255
255
252
238
210
158
113
85
68
57
48
44
39
35
34
30
31
41
40
34
33
30
26
20
15
9
6
2
1
0
0
1
4
8
10
16
20
23
20
17
22
28
44
60
77
78
93
109
128
148
163
174
177
170
161
145
132
119
113
99
91
79
67
49
38
38
42
47
51
60
70
75
77
76
75
77
80
87
95
105
106
104
113
118
128
131
144
153
171
188
194
195
194
194
205
224
236
246
255
255
255
255
255
253
243
179
111
88
70
57
50
46
42
38
33
35
49
61
57
55
53
51
53
45
28
16
8
4
2
0
0
0
6
11
15
22
24
27
29
21
20
26
39
53
73
85
91
110
125
142
156
168
174
162
154
137
123
111
104
94
83
74
61
52
41
33
31
38
50
62
72
79
77
76
78
80
85
93
102
112
111
113
122
126
135
139
152
162
181
192
196
195
191
195
206
223
237
248
255
255
255
255
255
255
255
181
116
92
74
62
53
48
42
40
36
40
59
70
68
64
59
57
55
53
44
28
15
7
2
1
0
1
8
17
21
22
22
26
31
26
23
25
34
48
68
86
94
106
126
142
156
166
168
146
121
116
105
96
87
82
72
64
53
43
36
32
33
41
55
69
79
79
77
77
78
82
89
97
107
116
114
121
131
135
142
149
163
179
191
194
193
189
190
201
213
226
241
252
255
255
255
255
255
255
253
175
125
97
80
66
58
52
47
43
43
51
74
79
77
70
69
62
56
49
40
29
16
8
2
0
0
3
12
23
22
22
19
22
32
33
28
25
33
42
61
80
99
111
125
141
155
166
165
135
92
78
74
70
64
59
54
48
43
36
31
31
40
54
68
79
83
79
77
78
80
86
94
104
115
119
120
130
140
145
150
166
181
192
195
192
183
183
187
196
212
230
244
253
255
255
255
255
255
255
248
182
134
105
84
71
61
56
50
48
51
62
91
87
91
79
82
68
57
48
38
24
13
6
1
0
0
5
16
25
25
25
21
25
36
41
37
29
30
36
54
74
90
112
130
145
158
165
159
118
80
64
56
49
40
32
29
26
25
25
31
39
54
73
82
83
82
78
77
78
82
89
99
110
118
123
130
141
147
154
166
183
193
197
188
179
178
181
188
200
216
233
248
253
255
255
255
255
255
255
244
191
143
111
91
76
67
61
59
65
70
82
100
89
91
79
81
69
61
49
34
21
12
5
1
0
0
5
21
29
31
30
27
35
44
43
40
34
31
39
46
61
83
103
124
145
159
167
155
95
74
63
51
39
28
20
15
12
14
21
32
47
64
74
82
84
83
80
78
80
86
95
104
114
121
129
140
146
154
170
186
196
198
189
177
175
172
174
181
196
214
233
248
254
255
255
255
255
255
255
245
200
151
117
95
81
73
77
82
88
87
86
86
73
68
59
54
47
39
36
27
16
9
3
0
0
0
4
25
34
38
37
35
37
41
43
39
33
31
41
48
58
75
95
118
139
154
162
153
101
71
60
49
37
27
19
14
12
14
21
32
45
62
74
79
84
84
80
78
80
86
96
105
115
124
134
135
148
167
183
194
198
191
176
168
168
168
172
180
194
212
233
250
254
255
255
255
255
255
255
246
204
153
119
94
85
86
91
92
92
86
75
69
56
45
41
35
29
23
18
16
12
9
4
0
0
0
1
32
47
52
43
36
36
38
44
37
30
28
36
46
57
72
96
117
133
147
147
133
91
65
54
43
33
25
17
13
11
14
19
31
46
63
70
78
85
83
78
77
78
84
93
106
119
129
138
155
167
180
191
197
187
174
170
165
163
163
165
173
191
213
239
253
255
255
255
255
255
255
255
242
195
136
101
91
93
94
95
90
81
74
63
53
45
36
30
27
24
20
18
14
13
12
10
5
1
0
2
46
60
56
43
37
36
35
45
45
30
27
29
36
47
66
84
98
110
118
113
101
73
54
44
37
28
21
15
11
10
13
20
33
45
63
68
74
82
80
77
77
81
89
101
115
127
140
155
171
185
196
201
183
167
164
164
163
161
161
165
175
193
219
243
254
255
255
255
255
255
255
254
222
158
116
101
96
97
94
87
79
72
60
53
45
37
34
32
32
33
34
33
29
22
21
21
17
7
1
12
52
64
64
49
39
32
34
41
42
33
25
25
29
37
51
63
74
84
89
82
77
56
46
36
28
22
17
12
9
8
13
20
34
45
60
67
75
72
69
76
77
83
93
105
120
139
159
176
189
199
200
191
166
159
156
158
157
157
158
163
175
196
224
249
255
255
255
255
255
255
255
240
188
143
115
101
98
95
87
78
65
57
49
44
42
44
46
47
49
49
49
49
48
42
38
36
34
26
10
39
70
74
66
48
37
33
29
29
31
30
24
23
24
30
39
46
55
61
65
59
57
45
36
28
23
17
12
9
7
8
13
22
36
45
57
64
73
63
66
82
86
94
110
124
141
160
175
190
200
202
195
177
152
154
153
152
153
152
154
160
174
198
236
254
255
255
255
255
255
255
253
215
174
133
116
105
99
91
82
69
55
49
46
46
48
52
55
58
60
61
61
60
61
58
57
53
52
49
40
59
64
65
60
42
28
21
19
20
23
26
23
21
20
24
29
33
40
44
46
42
40
34
28
22
17
14
11
8
6
7
14
25
37
45
56
64
66
61
68
83
103
120
137
154
168
182
195
201
202
195
188
160
147
148
150
149
148
148
150
158
176
212
246
255
255
255
255
255
255
255
243
201
163
134
116
105
96
85
76
66
57
54
53
57
63
67
70
70
69
71
71
70
68
66
65
63
63
66
65
64
65
67
50
27
17
12
12
11
17
19
20
19
17
19
22
25
29
31
32
30
28
26
19
17
14
9
6
5
5
9
17
30
36
44
54
63
61
61
67
86
113
137
157
174
189
200
205
203
198
189
168
148
144
145
146
148
147
146
148
156
180
224
249
255
255
255
255
255
255
254
227
193
156
132
115
104
94
83
74
68
63
63
62
62
65
69
74
79
81
77
77
74
72
69
68
64
64
72
71
66
63
51
33
18
10
8
8
8
12
14
13
12
13
16
18
19
20
21
21
21
20
18
15
11
9
8
6
5
6
11
23
30
37
44
52
59
60
61
67
87
114
141
165
184
195
201
200
195
187
166
148
145
142
143
144
144
144
144
146
157
186
230
250
255
255
255
255
255
255
249
217
185
151
129
115
106
96
87
78
74
69
69
70
75
80
83
83
81
85
83
80
76
75
69
68
64
62
67
69
67
58
42
21
13
9
7
6
6
8
12
11
10
10
12
14
15
15
15
15
15
13
12
11
9
6
4
4
3
7
18
26
30
35
44
49
59
58
59
67
88
110
133
157
178
193
199
193
181
162
147
137
142
141
140
142
142
142
142
143
154
187
238
252
255
255
255
255
255
255
240
210
175
149
130
117
107
97
89
86
82
75
75
74
77
82
87
91
92
86
86
81
77
76
69
67
63
59
62
65
62
48
30
18
10
7
6
5
6
6
8
8
8
11
11
10
10
10
11
10
10
9
8
6
6
5
4
4
6
13
21
25
29
35
43
45
56
55
55
65
80
103
126
144
162
176
186
182
160
145
134
133
138
140
140
141
140
140
140
143
153
198
245
254
255
255
255
255
255
252
230
203
172
149
130
118
107
99
91
93
84
81
83
87
92
95
94
92
94
92
88
81
80
77
70
68
63
58
58
60
57
43
25
15
8
7
5
5
5
6
6
8
8
10
11
8
6
5
7
6
6
6
6
5
4
4
4
4
8
14
20
25
29
34
40
42
51
49
51
59
75
96
112
130
144
157
168
172
162
140
125
128
134
138
140
140
140
140
140
141
158
214
251
255
255
255
255
255
255
248
222
193
169
149
133
121
111
101
97
95
87
91
90
91
95
97
101
101
95
94
88
83
83
77
72
68
63
57
54
55
55
39
22
14
8
6
4
4
5
6
5
6
8
11
9
7
5
3
3
4
3
3
3
3
3
3
3
5
9
15
20
24
28
33
37
39
43
41
46
54
68
82
96
115
129
140
147
154
148
127
122
128
129
134
137
138
139
139
138
140
167
240
254
255
255
255
255
255
254
239
216
190
168
149
134
123
115
109
105
99
98
100
103
105
107
105
103
102
99
95
87
86
86
79
75
68
62
56
52
51
55
39
22
14
8
6
4
3
5
5
5
7
8
12
10
8
5
3
3
3
3
3
3
3
3
3
4
6
9
13
19
23
28
33
34
35
33
32
39
46
59
70
86
99
111
122
132
137
127
116
120
125
128
130
135
136
137
136
134
139
204
254
255
255
255
255
255
255
251
234
214
192
173
154
141
129
120
118
117
104
109
106
103
106
108
111
110
104
100
95
91
94
88
80
75
68
60
54
51
50
57
39
23
12
8
5
6
4
4
6
5
6
9
9
9
8
6
3
3
3
3
3
3
3
3
3
4
6
10
15
20
25
28
30
32
27
21
22
30
38
48
61
75
85
97
107
118
121
112
111
120
121
127
131
133
134
134
133
131
151
240
255
255
255
255
255
255
254
248
234
217
196
176
160
147
137
130
127
122
113
117
120
119
118
117
114
113
108
103
99
99
93
84
75
66
62
56
52
49
47
60
44
26
12
9
7
5
5
5
6
6
6
9
10
12
9
5
3
3
3
3
3
3
3
3
3
3
6
9
15
20
23
26
27
25
18
12
14
22
31
39
52
62
76
84
97
106
108
103
109
117
122
124
130
132
134
133
130
130
183
253
255
255
255
255
255
255
253
247
234
217
201
183
167
154
145
142
139
129
124
128
121
119
118
120
118
111
106
107
102
98
89
79
70
62
55
52
46
46
44
58
52
25
14
9
7
6
5
5
7
8
9
9
9
9
8
5
3
3
3
3
3
3
3
3
3
4
6
10
15
19
22
23
21
17
11
6
10
19
25
34
47
55
69
75
88
95
99
101
110
114
122
128
129
131
131
129
125
138
221
255
255
255
255
255
255
255
253
245
232
214
195
179
166
159
154
153
148
137
135
140
136
132
126
119
115
115
112
109
102
93
84
74
66
60
51
48
43
41
40
43
47
28
15
10
7
6
6
6
8
8
6
7
7
8
7
5
3
3
3
3
3
3
3
3
3
3
5
8
13
18
18
16
14
10
5
5
10
19
27
34
46
52
68
72
85
92
95
102
109
116
118
125
129
132
131
127
125
165
242
254
255
255
255
255
255
255
251
243
230
217
201
187
174
163
159
163
158
142
147
139
134
130
126
123
123
122
118
111
101
89
79
73
65
59
53
46
44
39
38
35
43
29
16
12
9
7
8
8
10
9
6
5
7
7
7
4
3
3
3
3
3
3
3
3
3
3
5
10
14
19
17
13
8
4
3
7
11
24
36
45
52
58
71
78
88
96
102
106
108
116
123
125
127
127
125
121
132
203
241
251
255
255
255
255
255
255
250
242
231
218
203
190
180
174
169
170
154
144
150
144
138
132
127
126
127
125
120
112
102
92
81
73
67
60
57
48
46
39
37
34
34
25
16
11
10
8
8
8
11
9
7
8
8
8
6
5
3
3
3
3
3
3
3
3
3
4
5
6
8
9
9
7
3
3
4
7
13
27
44
59
64
67
73
82
89
100
105
111
114
113
121
125
128
127
122
119
155
208
227
247
255
255
255
255
255
255
249
243
234
224
212
200
188
180
179
172
150
159
156
147
140
133
129
126
126
126
122
115
105
94
85
75
70
63
63
53
52
42
38
34
31
21
17
12
11
9
10
10
10
10
7
9
10
9
7
7
4
3
3
3
3
3
3
4
4
4
5
6
6
10
10
7
4
3
4
8
14
26
38
53
63
66
68
79
88
97
104
109
117
120
123
124
125
120
116
119
163
192
213
239
255
255
255
255
255
255
249
244
234
223
212
201
197
192
181
167
165
173
166
154
141
133
132
132
134
132
128
118
107
98
92
81
76
71
71
64
61
49
44
38
30
22
16
12
13
13
12
14
12
9
8
11
12
11
10
8
5
4
3
3
3
3
4
6
5
6
6
7
9
10
9
8
5
4
4
7
15
24
34
47
56
62
67
75
84
92
103
106
113
118
122
124
119
112
106
120
153
171
195
231
254
255
255
255
255
255
249
244
238
229
220
210
200
193
187
176
179
176
166
153
142
135
133
134
134
134
130
122
111
102
96
89
84
83
82
80
72
61
52
40
28
21
18
14
14
14
14
15
12
9
9
10
12
13
10
8
7
5
4
3
3
3
3
6
7
9
8
8
10
10
9
8
7
5
6
9
18
24
38
47
57
68
75
87
94
104
110
116
120
123
124
119
109
99
99
119
139
154
177
220
251
255
255
255
255
255
249
245
238
230
221
212
209
199
190
184
187
188
177
158
144
137
135
138
141
140
134
126
114
104
100
96
90
89
84
79
70
61
50
35
22
20
15
14
12
12
13
13
10
10
9
11
11
12
9
9
9
8
7
5
5
3
3
5
9
9
8
9
9
9
9
8
8
7
7
13
19
30
40
53
61
75
81
95
103
115
123
129
132
128
119
108
97
92
97
114
125
140
165
212
247
253
255
255
255
255
249
245
241
234
225
218
212
201
196
196
198
188
176
159
145
138
138
141
142
140
134
127
116
109
106
105
96
88
76
67
60
50
43
34
29
25
20
13
10
12
11
11
11
10
12
12
13
12
11
11
12
11
14
12
8
6
7
8
9
8
6
6
9
9
9
9
10
9
10
17
22
36
43
59
66
81
89
99
107
114
121
125
124
119
110
98
89
89
97
107
117
132
155
203
241
252
255
255
255
255
249
247
243
238
230
224
217
203
201
200
202
197
185
163
146
140
142
148
150
146
133
118
111
109
104
102
96
91
81
69
62
55
47
41
35
33
28
24
16
11
12
10
11
12
16
15
15
17
16
16
17
16
21
17
12
10
9
9
10
10
7
7
6
8
10
11
11
12
12
22
26
43
49
65
74
87
96
102
109
110
115
117
114
106
95
87
84
88
95
102
112
127
147
196
229
250
255
255
255
255
250
248
245
242
237
232
228
212
206
208
209
198
186
165
145
142
144
147
149
138
128
119
116
114
107
100
94
85
87
83
76
70
62
58
50
47
41
36
31
21
16
14
15
18
21
24
23
21
21
20
21
24
23
19
17
15
14
13
12
10
9
8
7
7
10
10
11
13
18
26
32
45
54
68
79
88
99
103
107
110
108
105
99
92
84
81
84
88
94
100
108
120
141
192
222
248
255
255
255
255
251
249
247
245
242
239
236
219
210
212
213
204
192
162
147
144
148
154
149
137
128
126
123
119
110
101
95
96
88
92
86
81
75
67
62
54
51
44
41
34
25
21
20
24
31
39
37
34
34
32
35
36
31
25
23
22
22
20
16
13
12
9
8
8
10
10
11
15
20
28
40
47
60
68
82
87
94
102
104
105
102
96
87
82
79
80
83
86
90
96
105
117
138
186
219
248
255
255
255
255
252
250
248
247
245
244
242
226
215
216
217
207
195
162
149
146
150
152
146
141
134
134
131
124
116
106
100
100
98
94
93
89
82
74
70
60
58
49
46
41
34
30
27
32
43
52
55
54
51
48
47
41
34
30
29
26
22
21
19
15
14
12
9
12
13
15
14
16
22
30
42
51
61
70
79
88
91
95
97
95
90
86
80
76
77
79
82
85
90
96
103
115
142
180
221
251
255
255
255
255
252
251
250
249
248
247
245
231
219
221
220
211
193
163
151
149
153
154
151
144
140
136
134
126
120
112
106
103
104
96
98
94
87
79
75
65
63
53
50
44
40
37
42
47
58
61
69
70
76
68
50
44
37
35
34
30
24
22
17
14
15
13
12
15
16
16
14
17
23
31
43
54
65
73
77
84
87
88
85
83
78
75
74
74
76
78
80
84
89
96
104
118
145
183
231
254
255
255
255
255
253
252
251
250
250
249
248
235
224
222
222
213
197
167
154
152
156
156
154
146
142
138
136
128
122
115
110
105
108
99
103
98
93
84
80
70
67
56
52
47
51
54
63
64
72
71
77
74
83
79
66
52
44
40
40
34
29
20
20
16
15
14
17
19
21
20
16
18
23
32
42
53
66
75
78
79
78
78
74
71
68
69
71
73
75
78
81
86
92
99
106
125
156
194
241
254
255
255
255
255
253
252
252
251
251
250
249
238
228
228
225
219
200
173
159
155
159
157
156
147
144
138
136
128
123
117
112
109
112
103
110
105
98
92
84
77
63
53
51
53
59
61
64
66
65
64
62
62
61
61
61
58
51
45
38
33
28
26
23
18
16
17
21
24
30
28
19
20
25
30
37
43
55
66
71
70
69
69
67
66
67
68
70
73
75
78
82
89
96
102
114
139
170
206
247
255
255
255
255
255
253
253
252
251
251
251
250
242
233
229
226
224
206
181
163
160
162
159
156
147
143
138
135
128
122
117
113
112
115
112
116
109
99
90
75
62
55
54
58
60
63
63
61
58
56
55
54
53
53
53
52
50
46
42
39
37
35
35
31
26
21
23
27
32
40
35
25
24
24
27
33
38
46
58
68
67
67
67
65
66
67
68
71
73
75
79
86
93
100
107
127
156
184
213
251
255
255
255
255
255
255
253
253
253
252
252
251
245
239
234
232
228
214
189
171
165
162
160
156
150
145
140
137
129
122
117
113
116
121
126
120
108
92
77
64
60
59
61
63
65
64
60
59
58
57
56
56
56
54
54
52
51
51
50
51
52
52
50
41
32
28
30
34
42
51
45
35
29
26
28
30
35
39
50
60
64
63
66
67
67
68
69
70
74
77
83
91
99
106
121
145
170
194
221
255
255
255
255
255
255
255
254
253
253
253
253
252
248
243
237
235
231
223
198
178
171
165
162
158
151
147
141
138
130
124
117
115
124
145
135
117
99
83
74
70
68
68
68
68
65
61
60
59
61
63
65
66
62
60
58
59
62
65
69
71
72
77
72
54
38
35
38
43
52
62
57
45
36
32
31
32
34
37
44
53
60
62
64
67
67
70
71
73
76
81
91
99
106
112
123
148
183
206
232
255
255
255
255
255
255
255
255
255
254
253
253
253
251
247
242
240
236
231
208
190
180
168
163
160
153
150
145
141
134
127
120
118
139
149
126
107
90
79
76
76
80
79
74
67
63
63
63
64
66
67
74
79
73
68
69
73
78
84
90
95
97
101
90
63
49
46
47
52
59
69
69
60
46
42
39
38
40
41
43
47
54
61
63
67
69
70
72
75
81
90
100
107
114
124
145
174
202
220
245
255
255
255
255
255
255
255
255
255
255
255
254
254
252
250
246
243
241
238
218
200
191
173
166
162
157
154
149
144
139
132
127
123
137
140
123
106
93
85
82
83
85
83
73
67
66
67
69
73
76
81
82
88
83
80
81
85
89
97
106
114
122
124
107
77
62
53
53
56
64
74
80
72
60
56
50
49
50
49
48
49
52
58
62
65
68
72
77
82
94
103
111
114
120
134
160
193
219
237
252
255
255
255
255
255
255
255
255
255
255
255
255
255
255
253
250
247
245
243
231
213
199
183
168
166
162
157
153
148
144
139
134
136
137
135
122
108
99
92
89
88
86
82
74
71
71
73
77
82
89
96
99
97
92
88
85
88
93
101
111
124
139
147
126
95
70
61
66
72
78
82
82
77
71
69
66
64
64
63
57
60
61
65
68
72
76
84
93
102
112
117
119
120
129
154
186
219
238
251
255
255
255
255
255
255
255
255
255
255
255
255
255
255
255
255
253
250
248
247
239
225
208
195
174
170
166
162
158
153
148
144
142
144
138
130
124
115
106
100
95
92
88
80
77
74
73
75
80
88
97
109
113
106
99
95
97
101
107
112
117
127
148
168
151
110
81
81
83
84
84
86
88
85
80
80
78
78
78
78
72
75
75
81
83
89
97
106
116
121
124
123
123
128
146
179
213
238
249
255
255
255
255
255
255
255
255
255
255
255
255
255
255
255
255
255
255
254
252
250
245
237
220
209
184
176
171
166
162
157
154
151
146
143
138
131
126
120
116
111
104
95
87
83
79
78
79
82
87
91
99
116
125
116
111
110
111
114
118
122
125
130
144
173
180
123
105
100
96
96
95
98
98
100
97
90
90
91
91
93
89
92
92
98
100
104
110
118
124
129
127
125
127
143
170
206
233
250
255
255
255
255
255
255
255
255
255
255
255
255
255
255
255
255
255
255
255
255
255
254
252
245
230
221
198
184
179
172
167
163
161
157
151
141
138
134
129
127
125
119
114
102
90
87
84
84
86
88
92
93
96
104
117
123
124
124
125
127
128
130
130
131
134
146
163
130
123
117
115
112
112
111
113
119
119
116
109
108
110
111
109
108
111
114
118
120
123
128
129
128
125
125
138
164
200
230
249
254
255
255
255
255
255
255
255
255
255
255
255
255
255
255
255
255
255
255
255
255
255
255
255
252
236
225
212
195
187
178
174
170
166
165
156
145
142
137
135
133
128
125
122
108
97
91
90
91
93
93
95
94
95
96
111
122
130
134
134
135
136
135
134
134
135
139
148
144
140
134
132
130
128
127
133
136
138
144
144
135
133
135
135
132
132
133
135
134
134
133
130
127
126
134
160
198
229
249
255
255
255
255
255
255
255
255
255
255
255
255
255
255
255
255
255
255
255
255
255
255
255
255
255
255
239
224
218
205
196
186
181
177
173
172
163
154
148
144
141
137
134
132
129
115
101
98
97
98
99
99
99
100
102
105
114
126
134
137
139
141
139
139
142
145
147
149
155
160
153
150
148
145
142
144
150
152
154
160
167
171
173
174
171
163
152
147
143
139
134
129
127
124
135
169
206
237
252
255
255
255
255
255
255
255
255
255
255
255
255
255
255
255
255
255
255
255
255
255
255
255
255
255
255
255
248
227
213
204
198
194
187
184
179
178
171
163
157
151
146
142
140
138
136
125
109
105
105
104
105
105
106
108
111
115
119
131
139
140
142
143
143
147
151
154
156
159
167
167
165
162
161
159
156
158
163
166
167
174
180
184
188
190
187
174
151
132
120
117
116
119
128
138
177
232
249
254
255
255
255
255
255
255
255
255
255
255
255
255
255
255
255
255
255
255
255
255
255
255
255
255
255
255
255
255
253
241
221
209
198
194
191
189
183
182
177
171
165
160
152
150
147
145
145
137
121
114
113
112
114
112
115
116
121
123
127
131
140
142
145
144
148
152
156
159
161
167
174
175
176
173
172
171
167
170
175
178
181
185
190
194
196
195
185
163
136
109
97
96
106
122
141
166
227
255
255
255
255
255
255
255
255
255
255
255
255
255
255
255
255
255
255
255
255
255
255
255
255
255
255
255
255
255
255
255
255
252
241
229
219
208
198
194
190
187
186
182
175
171
163
159
155
154
155
151
136
126
124
121
122
120
123
125
130
131
137
135
138
141
145
144
150
155
159
161
164
171
179
182
185
184
183
183
180
181
186
189
192
194
199
202
198
188
173
149
123
102
96
103
117
127
144
197
247
255
255
255
255
255
255
255
255
255
255
255
255
255
255
255
255
255
255
255
255
255
255
255
255
255
255
255
255
255
255
255
255
255
253
248
241
236
228
214
207
200
200
197
193
186
178
171
167
165
166
166
155
142
137
133
133
131
133
135
140
140
147
146
144
143
146
146
153
157
162
165
167
175
183
191
196
199
196
196
195
191
197
201
204
205
206
201
189
171
143
117
95
89
101
111
122
138
154
227
253
255
255
255
255
255
255
255
255
255
255
255
255
255
255
255
255
255
255
255
255
255
255
255
255
255
255
255
255
255
255
255
255
255
255
255
255
255
255
251
238
225
220
220
220
217
210
194
184
179
181
182
178
166
155
149
147
144
147
148
152
154
159
161
161
158
157
152
157
161
166
171
172
181
190
200
205
211
215
215
214
208
208
213
214
209
201
188
169
142
110
84
76
93
113
120
125
141
180
245
255
255
255
255
255
255
255
255
255
255
255
255
255
255
255
255
255
255
255
255
255
255
255
255
255
255
255
255
255
255
255
255
255
255
255
255
255
255
255
255
255
254
250
247
245
245
245
237
218
206
201
201
203
196
181
173
168
164
162
164
167
171
174
178
182
183
181
172
165
170
175
179
183
187
198
207
216
224
230
233
234
234
226
214
201
187
176
151
122
90
67
61
73
99
115
122
138
153
206
252
255
255
255
255
255
255
255
255
255
255
255
255
255
255
255
255
255
255
255
255
255
255
255
255
255
255
255
255
255
255
255
255
255
255
255
255
255
255
255
255
255
255
255
255
255
255
255
255
252
242
230
226
226
226
219
207
197
191
186
186
188
192
194
198
202
206
209
206
192
187
190
195
199
201
207
218
227
234
240
245
249
251
230
182
158
147
122
87
68
57
57
59
68
100
126
130
145
166
225
254
255
255
255
255
255
255
255
255
255
255
255
255
255
255
255
255
255
255
255
255
255
255
255
255
255
255
255
255
255
255
255
255
255
255
255
255
255
255
255
255
255
255
255
255
255
255
255
255
255
255
254
251
249
248
247
242
233
227
219
215
214
216
218
221
225
228
233
238
234
223
217
217
219
223
225
229
236
242
247
251
252
255
224
171
138
122
101
82
77
70
66
65
70
94
122
136
148
183
242
255
255
255
255
255
255
255
255
255
255
255
255
255
255
255
255
255
255
255
255
255
255
255
255
255
255
255
255
255
255
255
255
255
255
255
255
255
255
255
255
255
255
255
255
255
255
255
255
255
255
255
255
255
255
255
255
255
254
252
248
245
243
242
244
246
247
249
249
251
252
252
247
244
244
246
245
248
250
251
253
254
255
255
230
173
145
128
101
86
80
76
76
77
82
99
130
142
157
206
252
255
255
255
255
255
255
255
255
255
255
255
255
255
255
255
255
255
255
