P2
# CREATOR: The GIMP's PNM Filter Version 1.0
100 100
255
255
255
255
255
255
255
255
255
255
255
255
255
255
255
255
255
255
255
255
255
255
255
255
255
255
255
255
255
255
255
255
255
255
255
255
255
255
255
255
255
255
255
255
255
255
255
255
255
255
255
255
255
255
255
255
255
255
255
255
255
255
255
255
255
255
255
255
255
255
255
255
255
255
255
255
255
255
255
255
255
255
255
255
255
255
255
255
255
255
255
255
255
255
255
255
255
255
255
255
255
255
255
255
255
255
255
255
255
255
255
255
255
255
255
255
255
255
255
255
255
255
255
255
255
255
255
255
255
255
255
255
255
255
255
255
255
255
255
255
255
255
255
255
255
255
255
255
255
255
255
255
255
255
255
255
255
255
255
255
255
255
255
255
255
255
255
255
255
255
255
255
255
255
255
255
255
255
255
255
255
255
255
255
255
255
255
255
255
255
255
255
255
255
255
255
255
255
255
255
255
255
255
255
255
255
255
255
255
255
255
255
255
255
255
255
255
255
255
255
255
255
255
255
255
255
255
255
255
255
255
255
255
255
255
255
255
255
255
255
255
255
255
255
255
255
255
255
255
255
255
255
255
255
255
255
255
255
255
255
255
255
255
255
255
255
255
255
255
255
255
255
255
255
255
255
255
255
255
255
255
255
255
255
255
255
255
255
255
255
255
255
255
255
255
255
255
255
255
255
255
255
255
255
255
255
255
255
255
255
255
255
255
255
255
255
255
255
255
255
255
255
255
255
255
255
255
255
255
255
255
255
255
255
255
255
255
255
255
255
255
255
255
255
255
255
255
255
255
255
255
255
255
255
255
255
255
255
255
255
255
255
255
255
255
255
255
255
255
255
255
255
255
255
255
255
255
255
255
255
255
255
255
255
255
255
255
255
255
255
255
255
255
255
255
255
255
255
255
255
255
255
255
255
255
255
255
255
255
255
255
255
255
255
255
255
255
255
255
255
255
255
255
255
255
255
255
255
255
255
255
255
255
255
255
255
255
255
255
255
255
255
255
255
255
255
255
255
255
255
255
255
255
255
255
255
255
255
255
255
255
255
255
255
255
255
255
255
255
255
255
255
255
255
255
255
255
255
255
255
255
255
255
255
255
255
255
255
255
255
255
255
255
255
255
255
255
255
255
255
255
255
255
255
255
255
255
255
255
255
255
255
255
255
255
255
255
255
255
255
255
255
255
255
255
255
255
255
255
255
255
255
255
255
255
255
255
255
255
255
255
255
255
255
255
255
255
255
255
255
255
255
255
255
255
255
255
255
255
255
255
255
255
255
255
255
255
255
255
255
255
255
255
255
255
255
255
255
255
255
255
255
255
255
255
255
255
255
255
255
255
255
255
255
255
255
255
255
255
255
255
255
255
255
255
255
255
255
255
255
255
255
255
255
255
255
255
255
255
255
255
255
255
255
255
255
255
255
255
255
255
255
255
255
255
255
255
255
255
255
255
255
255
255
255
255
255
255
255
255
255
255
255
255
255
255
255
255
255
255
255
255
255
255
255
255
255
255
255
255
255
255
255
255
255
255
255
255
255
255
255
255
255
255
255
255
255
255
255
255
255
255
255
255
255
255
255
255
255
255
255
255
255
255
255
255
255
255
255
255
255
255
255
255
255
255
255
255
255
255
255
255
255
255
255
255
255
255
255
255
255
255
255
255
255
255
255
255
255
255
255
255
255
255
255
255
255
255
255
255
255
255
255
255
255
255
255
255
255
255
255
255
255
255
255
255
255
255
255
255
255
255
255
255
255
255
255
255
255
255
255
255
255
255
255
255
255
255
255
255
255
255
255
255
255
255
255
255
255
255
255
255
255
255
255
255
255
255
255
255
255
255
255
255
255
255
255
255
255
255
255
255
255
255
255
255
255
255
255
255
255
255
255
255
255
255
255
255
255
255
255
255
255
255
255
255
255
255
255
255
255
255
255
255
255
255
255
255
255
255
255
255
255
255
255
255
255
255
255
255
255
255
255
255
255
255
255
255
255
255
255
255
255
255
255
255
255
255
255
255
255
255
255
255
255
255
255
255
255
255
255
255
255
255
255
255
255
255
255
255
255
255
255
255
255
255
255
255
255
255
255
255
255
255
255
255
255
255
255
255
255
255
255
255
255
255
255
255
255
255
255
255
255
255
255
255
255
255
255
255
255
255
255
255
255
255
255
255
255
255
255
255
255
255
255
255
255
255
255
255
255
255
255
255
255
255
255
255
255
255
255
255
255
255
255
255
255
255
255
255
255
255
255
255
255
255
255
255
255
255
255
255
255
255
255
255
255
255
255
255
255
255
255
255
255
255
255
255
255
255
255
255
255
255
255
255
255
255
255
255
255
255
255
255
255
255
255
255
255
255
255
255
255
255
255
255
255
255
255
255
255
255
255
255
255
255
255
255
255
255
255
255
255
255
255
255
255
255
255
255
255
255
255
255
255
255
255
255
255
255
255
255
255
255
255
255
255
255
255
255
255
255
255
255
255
255
255
255
255
255
255
255
255
255
255
255
255
255
255
255
255
255
255
255
255
255
255
255
255
255
255
255
255
255
255
255
255
255
255
255
255
255
255
255
255
255
255
255
255
255
255
255
255
255
255
255
255
255
255
255
255
255
255
255
255
255
255
255
255
255
255
255
255
255
255
255
255
255
255
255
255
255
255
255
255
255
255
255
255
255
255
255
255
255
255
255
255
255
255
255
255
255
255
255
255
255
255
255
255
255
255
255
255
255
255
255
255
255
255
255
255
255
255
255
255
255
255
255
255
255
255
255
255
255
255
255
255
255
255
255
255
255
255
255
255
255
255
255
255
255
255
255
255
255
255
255
255
255
255
255
255
255
255
255
255
255
255
255
255
255
255
255
255
255
255
255
255
255
255
255
255
255
255
255
255
255
255
255
255
255
255
255
255
255
255
255
255
255
255
255
255
255
255
255
255
255
255
255
255
255
255
255
255
255
255
255
255
255
255
255
255
255
255
255
255
255
255
255
255
255
255
255
255
255
255
255
255
255
255
255
255
255
255
255
255
255
255
255
255
255
255
255
255
255
255
255
255
255
255
255
255
255
255
255
255
255
255
255
255
255
255
255
255
255
255
255
255
255
255
255
255
255
255
255
255
255
255
255
255
255
255
255
255
255
255
255
255
255
255
255
255
255
255
255
255
255
255
255
255
255
255
255
255
255
255
255
255
255
255
255
255
255
255
255
255
255
255
255
255
255
255
255
255
255
255
255
255
255
255
255
255
255
255
255
255
255
255
255
255
255
255
255
255
255
255
255
255
255
255
255
255
255
255
255
255
255
255
255
255
255
255
255
255
255
255
255
255
255
255
255
255
255
255
255
255
255
255
255
255
255
255
255
255
255
255
255
255
255
255
255
255
255
255
255
255
255
255
255
255
255
255
255
255
255
255
255
255
255
255
255
255
255
255
255
255
255
255
255
255
255
255
255
255
255
255
255
255
255
255
255
255
255
255
255
255
255
255
255
255
255
255
255
255
255
255
255
255
255
255
255
255
255
255
255
255
255
255
255
255
255
255
255
255
255
255
255
255
255
255
255
255
255
255
255
255
255
255
255
255
255
255
255
255
255
255
255
255
255
255
255
255
255
255
255
255
255
255
255
255
255
255
255
255
255
255
255
255
255
255
255
255
255
255
255
255
255
255
255
255
255
255
255
255
255
255
255
255
255
255
255
255
255
255
255
255
255
255
255
255
255
255
255
255
255
255
255
255
255
255
255
255
255
255
255
255
255
255
255
255
255
255
255
255
255
255
255
255
255
255
255
255
255
255
255
255
255
255
255
255
255
255
255
255
255
255
255
255
255
255
255
255
255
255
255
255
255
255
255
255
255
255
255
255
255
255
255
255
255
255
255
255
255
255
255
255
255
255
255
255
255
255
255
255
255
255
255
255
255
255
255
255
255
255
255
255
255
255
255
255
255
255
255
255
255
255
255
255
255
255
255
255
255
255
255
255
255
255
255
255
255
255
255
255
255
255
255
255
255
255
255
255
255
255
255
255
255
255
255
255
255
255
255
255
255
255
255
255
255
255
255
255
255
255
255
255
255
255
255
255
255
255
255
255
255
255
255
255
255
255
255
255
255
255
255
255
255
255
255
255
255
255
255
255
255
255
255
255
255
255
255
255
255
255
255
255
255
255
255
255
255
255
255
255
255
255
255
255
255
255
255
255
255
255
255
255
255
255
255
255
255
255
255
255
255
255
255
255
255
255
255
255
255
255
255
255
255
255
255
255
255
255
255
255
255
255
255
255
255
255
255
255
255
255
255
255
255
255
255
255
255
255
255
255
255
255
255
255
255
255
255
255
255
255
255
255
255
255
255
255
255
255
255
252
245
239
236
238
242
250
254
255
255
255
255
255
255
255
255
255
255
255
255
255
255
255
255
255
255
255
255
255
255
255
255
255
255
255
255
255
255
255
255
255
255
255
255
255
255
255
255
255
255
255
255
255
255
255
255
255
255
255
255
255
255
255
255
255
255
255
255
255
255
255
255
255
255
255
255
255
255
255
255
255
255
255
255
255
255
255
255
255
255
255
255
255
255
255
255
255
255
255
248
231
220
211
202
200
205
215
230
245
248
248
249
252
254
255
255
255
255
255
255
255
255
255
255
255
255
255
255
255
255
255
255
255
255
255
255
255
255
255
255
255
253
248
239
230
222
217
217
222
230
239
248
253
255
255
255
255
255
255
255
255
255
255
255
255
255
255
255
255
255
255
255
255
255
255
255
255
255
255
255
255
255
255
255
255
255
255
255
255
255
255
255
255
255
255
255
255
255
248
220
195
182
169
164
162
160
159
164
180
202
215
224
236
247
254
255
255
255
255
255
255
255
255
255
255
255
255
255
255
255
255
255
255
255
255
255
255
255
255
255
252
241
223
198
176
157
147
151
168
188
208
226
241
252
255
255
255
255
255
255
255
255
255
255
255
255
255
255
255
255
255
255
255
255
255
255
255
255
255
255
255
255
255
255
255
255
255
255
255
255
255
255
255
255
255
255
255
251
222
188
182
167
154
144
135
131
126
123
131
146
174
196
206
223
244
254
255
255
255
255
255
255
255
255
255
255
255
255
255
255
255
255
255
255
255
255
255
255
255
253
233
191
151
124
109
101
104
106
109
125
146
174
202
232
251
255
255
255
255
255
255
255
255
255
255
255
255
255
255
255
255
255
255
255
255
255
255
255
255
255
255
255
255
255
255
255
255
255
255
255
255
255
255
255
255
255
253
240
195
175
154
133
124
116
113
97
83
79
73
78
96
124
159
187
219
248
255
255
255
255
255
255
255
255
255
255
255
255
255
255
255
255
255
255
255
255
255
255
253
226
172
135
108
92
83
76
72
75
75
80
95
116
145
181
220
247
254
255
255
255
255
255
255
255
255
255
255
255
255
255
255
255
255
255
255
255
255
255
255
255
255
255
255
255
255
255
255
255
255
255
255
255
255
255
255
255
250
222
173
157
139
127
112
99
74
53
41
32
33
39
49
69
95
130
175
227
253
255
255
255
255
255
255
255
255
255
255
255
255
255
255
255
255
255
255
255
255
252
233
172
128
93
77
67
61
59
55
52
60
61
72
82
100
127
161
204
236
252
255
255
255
255
255
255
255
255
255
255
255
255
255
255
255
255
255
255
255
255
255
255
255
255
255
255
255
255
255
255
255
255
255
255
255
255
255
255
245
200
161
150
122
105
88
73
45
27
20
16
16
18
21
34
57
92
125
191
242
254
255
255
255
255
255
255
255
255
255
255
255
255
255
255
255
255
255
255
253
238
184
126
89
73
60
51
42
39
40
43
46
50
54
66
78
100
128
165
198
233
251
255
255
255
255
255
255
255
255
255
255
255
255
255
255
255
255
255
255
255
255
255
255
255
255
255
255
255
255
255
255
255
255
255
255
255
255
255
236
187
154
137
113
94
76
49
27
17
13
12
13
14
15
21
36
61
97
153
226
250
255
255
255
255
255
255
255
255
255
255
255
255
255
255
255
255
255
255
243
207
141
106
74
55
42
33
28
25
24
29
34
43
47
56
66
80
110
142
170
205
238
253
255
255
255
255
255
255
255
255
255
255
255
255
255
255
255
255
255
255
255
255
255
255
255
255
255
255
255
255
255
255
255
255
255
255
255
255
229
177
151
134
107
85
60
31
21
12
10
9
11
12
14
17
27
48
79
125
214
242
255
255
255
255
255
255
255
255
255
255
255
255
255
255
255
255
255
252
223
181
121
88
57
43
35
26
22
18
17
18
19
29
33
43
53
66
92
123
154
180
221
248
255
255
255
255
255
255
255
255
255
255
255
255
255
255
255
255
255
255
255
255
255
255
255
255
255
255
255
255
255
255
255
255
255
255
255
255
223
175
152
132
102
79
50
24
17
8
6
8
12
12
14
16
21
38
77
109
203
238
255
255
255
255
255
255
255
255
255
255
255
255
255
255
255
255
255
245
208
162
103
72
48
35
27
20
16
12
12
11
12
18
23
33
42
54
80
112
144
162
204
239
255
255
255
255
255
255
255
255
255
255
255
255
255
255
255
255
255
255
255
255
255
255
255
255
255
255
255
255
255
255
255
255
255
255
255
255
222
179
148
132
111
82
45
20
14
7
5
7
10
11
13
16
19
36
77
108
198
236
255
255
255
255
255
255
255
255
255
255
255
255
255
255
255
255
255
237
193
144
94
65
47
31
23
17
11
9
7
8
9
13
18
29
39
51
69
102
140
156
191
230
255
255
255
255
255
255
255
255
255
255
255
255
255
255
255
255
255
255
255
255
255
255
255
255
255
255
255
255
255
255
255
255
255
255
255
255
225
182
154
136
114
93
52
23
13
7
5
6
7
9
12
15
19
39
80
118
202
239
255
255
255
255
255
255
255
255
255
255
255
255
255
255
255
255
255
230
184
139
97
60
44
32
25
17
11
8
6
7
8
12
18
28
38
48
66
100
137
158
186
224
255
255
255
255
255
255
255
255
255
255
255
255
255
255
255
255
255
255
255
255
255
255
255
255
255
255
255
255
255
255
255
255
255
255
255
255
235
187
159
143
119
105
65
33
17
9
6
6
6
8
10
15
22
47
87
142
210
245
255
255
255
255
255
255
255
255
255
255
255
255
255
255
255
255
255
225
185
143
97
68
43
36
27
21
14
8
7
8
10
14
19
28
37
49
66
103
136
161
188
224
255
255
255
255
255
255
255
255
255
255
255
255
255
255
255
255
255
255
255
255
255
255
255
255
255
255
255
255
255
255
255
255
255
255
255
255
242
202
167
139
133
116
87
46
21
13
10
8
8
10
12
15
30
60
106
170
224
252
255
255
255
255
255
255
255
255
255
255
255
255
255
255
255
255
255
225
189
152
104
75
54
41
31
26
19
12
12
15
17
17
22
29
39
57
72
105
141
167
195
230
255
255
255
255
255
255
255
255
255
255
255
255
255
255
255
255
255
255
255
255
255
255
255
255
255
255
255
255
255
255
255
255
255
255
255
255
250
216
183
149
139
117
100
59
31
21
17
13
12
12
16
22
48
82
134
206
245
255
255
255
255
255
255
255
255
255
255
255
255
255
255
255
255
255
255
232
197
161
124
89
60
49
37
33
26
21
23
25
26
29
30
36
45
63
80
114
152
176
210
239
255
255
255
255
255
255
255
255
255
255
255
255
255
255
255
255
255
255
255
255
255
255
255
255
255
255
255
255
255
255
255
255
255
255
255
255
254
233
199
159
157
134
119
83
54
40
31
25
24
27
36
46
72
107
180
241
254
255
255
255
255
255
255
255
255
255
255
255
255
255
255
255
255
255
255
240
213
176
140
112
82
59
43
37
34
31
31
32
37
42
44
50
58
73
96
132
169
194
226
248
255
255
255
255
255
255
255
255
255
255
255
255
255
255
255
255
255
255
255
255
255
255
255
255
255
255
255
255
255
255
255
255
255
255
255
255
255
249
224
178
163
136
116
94
80
72
63
58
55
57
69
79
105
152
227
254
255
255
255
255
255
255
255
255
255
255
255
255
255
255
255
255
255
255
255
248
228
197
168
135
108
85
65
51
43
40
40
43
49
54
59
64
77
89
119
157
190
215
241
253
255
255
255
255
255
255
255
255
255
255
255
255
255
255
255
255
255
255
255
255
255
255
255
255
255
255
255
255
255
255
255
255
255
255
255
255
255
254
244
211
180
162
132
106
96
87
86
92
93
102
108
115
138
185
241
255
255
255
255
255
255
255
255
255
255
255
255
255
255
255
255
255
255
255
255
253
241
216
191
169
148
121
97
72
63
62
60
59
62
68
75
80
92
107
146
183
216
239
252
255
255
255
255
255
255
255
255
255
255
255
255
255
255
255
255
255
255
255
255
255
255
255
255
255
255
255
255
255
255
255
255
255
255
255
255
255
255
255
254
244
213
184
141
118
107
105
104
101
104
113
119
142
162
207
250
255
255
255
255
255
255
255
255
255
255
255
255
255
255
255
255
255
255
255
255
255
252
239
216
192
173
154
139
119
108
98
88
86
86
89
93
105
123
144
187
225
245
253
255
255
255
255
255
255
255
255
255
255
255
255
255
255
255
255
255
255
255
255
255
255
255
255
255
255
255
255
255
255
255
255
255
255
255
255
255
255
255
255
255
254
246
227
192
145
125
119
117
122
130
134
146
157
183
232
254
255
255
255
255
255
255
255
255
255
255
255
255
255
255
255
255
255
255
255
255
255
255
253
245
228
210
193
175
154
137
133
127
126
130
134
139
153
165
199
239
253
255
255
255
255
255
255
255
255
255
255
255
255
255
255
255
255
255
255
255
255
255
255
255
255
255
255
255
255
255
255
255
255
255
255
255
255
255
255
255
255
255
255
255
255
255
252
236
202
161
143
139
138
142
150
160
180
221
250
255
255
255
255
255
255
255
255
255
255
255
255
255
255
255
255
255
255
255
255
255
255
255
255
255
253
248
239
227
210
184
172
172
169
166
167
176
190
214
244
254
255
255
255
255
255
255
255
255
255
255
255
255
255
255
255
255
255
255
255
255
255
255
255
255
255
255
255
255
255
255
255
255
255
255
255
255
255
255
255
255
255
255
255
255
255
255
255
255
248
224
199
186
177
179
187
201
225
248
255
255
255
255
255
255
255
255
255
255
255
255
255
255
255
255
255
255
255
255
255
255
255
255
255
255
255
255
255
255
253
243
223
210
204
205
212
221
231
245
254
255
255
255
255
255
255
255
255
255
255
255
255
255
255
255
255
255
255
255
255
255
255
255
255
255
255
255
255
255
255
255
255
255
255
255
255
255
255
255
255
255
255
255
255
255
255
255
255
255
255
251
241
228
220
220
228
241
251
255
255
255
255
255
255
255
255
255
255
255
255
255
255
255
255
255
255
255
255
255
255
255
255
255
255
255
255
255
255
255
255
255
252
245
239
236
238
242
250
254
255
255
255
255
255
255
255
255
255
255
255
255
255
255
255
255
255
255
255
255
255
255
255
255
255
255
255
255
255
255
255
255
255
255
255
255
255
255
255
255
255
255
255
255
255
255
255
255
255
255
255
255
255
255
255
255
255
255
255
255
255
255
255
255
255
255
255
255
255
255
255
255
255
255
255
255
255
255
255
255
255
255
255
255
255
255
255
255
255
255
255
255
255
255
255
255
255
255
255
255
255
255
255
255
255
255
255
255
255
255
255
255
255
255
255
255
255
255
255
255
255
255
255
255
255
255
255
255
255
255
255
255
255
255
255
255
255
255
255
255
255
255
255
255
255
255
255
255
255
255
255
255
255
255
255
255
255
255
255
255
255
255
255
255
255
255
255
255
255
255
255
255
255
255
255
255
255
255
255
255
255
255
255
255
255
255
255
255
255
255
255
255
255
255
255
255
255
255
255
255
255
255
255
255
255
255
255
255
255
255
255
255
255
255
255
255
255
255
255
255
255
255
255
255
255
255
255
255
255
255
255
255
255
255
255
255
255
255
255
255
255
255
255
255
255
255
255
255
255
255
255
255
255
255
255
255
255
255
255
255
255
255
255
255
255
255
255
255
255
255
255
255
255
255
255
255
255
255
255
255
255
255
255
255
255
255
255
255
255
255
255
255
255
255
255
255
255
255
255
255
255
255
255
255
255
255
255
255
255
255
255
255
255
255
255
255
255
255
255
255
255
255
255
255
255
255
255
255
255
255
255
255
255
255
255
255
255
255
255
255
255
255
255
255
255
255
255
255
255
255
255
255
255
255
255
255
255
255
255
255
255
255
255
255
255
255
255
255
255
255
255
255
255
255
255
255
255
255
255
255
255
255
255
255
255
255
255
255
255
255
255
255
255
255
255
255
255
255
255
255
255
255
255
255
255
255
255
255
255
255
255
255
255
255
255
255
255
255
255
255
255
255
255
255
255
255
255
255
255
255
255
255
255
255
255
255
255
255
255
255
255
255
255
255
255
255
255
255
255
255
255
255
255
255
255
255
255
255
255
255
255
255
255
255
255
255
255
255
255
255
255
255
255
255
255
255
255
255
255
255
255
255
255
255
255
255
255
255
255
255
255
255
255
255
255
255
255
255
255
255
255
255
255
255
255
255
255
255
255
255
255
255
255
255
255
255
255
255
255
255
255
255
255
255
255
255
255
255
255
255
255
255
255
255
255
255
255
255
255
255
255
255
255
255
255
255
255
255
255
255
255
255
255
255
255
255
255
255
255
255
255
255
255
255
255
255
255
255
255
255
255
255
255
255
255
255
255
255
255
255
255
255
255
255
255
255
255
255
255
255
255
255
255
255
255
255
255
255
255
255
255
255
255
255
255
255
255
255
255
255
255
255
255
255
255
255
255
255
255
255
255
255
255
255
255
255
255
255
255
255
255
255
255
255
255
255
255
255
255
255
255
255
255
255
255
255
255
255
255
255
255
255
255
255
255
255
255
255
255
255
255
255
255
255
255
255
255
255
255
255
255
255
255
255
255
255
255
255
255
255
255
255
255
255
255
255
255
255
255
255
255
255
255
255
255
255
255
255
255
255
255
255
255
255
255
255
255
255
255
255
255
255
255
255
255
255
255
255
255
255
255
255
255
255
255
255
255
255
255
255
255
255
255
255
255
255
255
255
255
255
255
255
255
255
255
255
255
255
255
255
255
255
255
255
255
255
255
255
255
255
255
255
255
255
255
255
255
255
255
255
255
255
255
255
255
255
255
255
255
255
255
255
255
255
255
255
255
255
255
255
255
255
255
255
255
255
255
255
255
255
255
255
255
255
255
255
255
255
255
255
255
255
255
255
255
255
255
255
255
255
255
255
255
255
255
255
255
255
255
255
255
255
255
255
255
255
255
255
255
255
255
255
255
255
255
255
255
255
255
255
255
255
255
255
255
255
255
255
255
255
255
255
255
255
255
255
255
255
255
255
255
255
255
255
255
255
255
255
255
255
255
255
255
255
255
255
255
255
255
255
255
255
255
255
255
255
255
255
255
255
255
255
255
255
255
255
255
255
255
255
255
255
255
255
255
255
255
255
255
255
255
255
255
255
255
255
255
255
255
255
255
255
255
255
255
255
255
255
255
255
255
255
255
255
255
255
255
255
255
255
255
255
255
255
255
255
255
255
255
255
255
255
255
255
255
255
255
255
255
255
255
255
255
255
255
255
255
255
255
255
255
255
255
255
255
255
255
255
255
255
255
255
255
255
255
255
255
255
255
255
255
255
255
255
255
255
255
255
255
255
255
255
255
255
255
255
255
255
255
255
255
255
255
255
255
255
255
255
255
255
255
255
255
255
255
255
255
255
255
255
255
255
255
255
255
255
255
255
255
255
255
255
255
255
255
255
255
255
255
255
255
255
255
255
255
255
255
255
255
255
255
255
255
255
255
255
255
255
255
255
255
255
255
255
255
255
255
255
255
255
255
255
255
255
255
255
255
255
255
255
255
255
255
255
255
255
255
255
255
255
255
255
255
255
255
255
255
255
255
255
255
255
255
255
255
255
255
255
255
255
255
255
255
255
255
255
255
255
255
255
255
255
255
255
255
255
255
255
255
255
255
255
255
255
255
255
255
255
255
255
255
255
255
255
255
255
255
255
255
255
255
255
255
255
255
255
255
255
255
255
255
255
255
255
255
255
255
255
255
255
255
255
255
255
255
255
255
255
255
255
255
255
255
255
255
255
255
255
255
255
255
255
255
255
255
255
255
255
255
255
255
255
255
255
255
255
255
255
255
255
255
255
255
255
255
255
255
255
255
255
255
255
255
255
255
255
255
255
255
255
255
255
255
255
255
255
255
255
255
255
255
255
255
255
255
255
255
255
255
255
255
255
255
255
255
255
255
255
255
255
255
255
255
255
255
255
255
255
255
255
255
255
255
255
255
255
255
255
255
255
255
255
255
255
255
255
255
255
255
255
255
255
255
255
255
255
255
255
255
255
255
255
255
255
255
255
255
255
255
255
255
255
255
255
255
255
255
255
255
255
255
255
255
255
255
255
255
255
255
255
255
255
255
255
255
255
255
255
255
255
255
255
255
255
255
255
255
255
255
255
255
255
255
255
255
255
255
255
255
255
255
255
255
255
255
255
255
255
255
255
255
255
255
255
255
255
255
255
255
255
255
255
255
255
255
255
255
255
255
255
255
255
255
255
255
255
255
255
255
255
255
255
255
255
255
255
255
255
255
255
255
255
255
255
255
255
255
255
255
255
255
255
255
255
255
255
255
255
255
255
255
255
255
255
255
255
255
255
255
255
255
255
255
255
255
255
255
255
255
255
255
255
255
255
255
255
255
255
255
255
255
255
255
255
255
255
255
255
255
255
255
255
255
255
255
255
255
255
255
255
255
255
255
255
255
255
255
255
255
255
255
255
255
255
255
255
255
255
255
255
255
255
255
255
255
255
255
255
255
255
255
255
255
255
255
255
255
255
255
255
255
255
255
255
255
255
255
255
255
255
255
255
255
255
255
255
255
255
255
255
255
255
255
255
255
255
255
255
255
255
255
255
255
255
255
255
255
255
255
255
255
255
255
255
255
255
255
255
255
255
255
255
255
255
255
255
255
255
255
255
255
255
255
255
255
255
255
255
255
255
255
255
255
255
255
255
255
255
255
255
255
255
255
255
255
255
255
255
255
255
255
255
255
255
255
255
255
255
253
248
241
237
237
241
248
253
255
255
255
255
255
255
255
255
255
255
255
255
255
255
255
255
255
255
255
255
255
255
255
255
255
255
255
255
255
255
255
255
255
255
255
255
255
255
255
255
255
255
255
255
255
255
255
255
255
255
255
255
255
255
255
255
255
255
255
255
255
255
255
255
255
255
255
255
255
255
255
255
255
255
255
255
255
255
255
255
255
255
255
255
255
255
255
255
255
255
255
252
241
229
222
218
218
222
229
241
252
255
255
255
255
255
255
255
255
255
255
255
255
255
255
255
255
255
255
255
255
255
255
255
255
255
255
255
255
255
255
255
255
255
255
255
255
255
255
255
255
255
255
255
255
255
255
255
255
255
255
255
255
255
255
255
255
255
255
255
255
255
255
255
255
255
255
255
255
255
255
255
255
255
255
255
255
255
255
255
255
255
255
255
255
255
255
255
255
255
253
241
222
214
212
211
211
212
214
222
241
253
255
255
255
255
255
255
255
255
255
255
255
255
255
255
255
255
255
255
255
255
255
255
255
255
255
255
255
255
255
255
255
255
255
255
255
255
255
255
255
255
255
255
255
255
255
255
255
255
255
255
255
255
255
255
255
255
253
248
241
237
237
241
248
253
255
255
255
255
255
255
255
255
255
255
255
255
255
255
255
255
255
255
255
255
255
255
255
255
248
228
210
201
191
186
186
191
201
210
228
248
255
255
255
255
255
255
255
255
255
255
255
255
255
255
255
255
255
255
255
255
255
255
255
255
255
255
255
255
255
255
255
255
255
255
255
255
255
255
255
255
255
255
255
255
255
255
255
255
255
255
255
255
255
255
255
252
238
216
197
187
187
197
216
238
252
255
255
255
255
255
255
255
255
255
255
255
255
255
255
255
255
255
255
255
255
255
255
255
240
213
193
185
185
185
185
185
185
193
213
240
255
255
255
255
255
255
255
255
255
255
255
255
255
255
255
255
255
255
255
255
255
255
255
255
255
255
255
255
255
255
255
255
255
255
255
255
255
255
255
255
255
255
255
255
255
255
255
255
255
255
255
255
255
255
253
235
199
176
168
164
164
168
176
199
235
253
255
255
255
255
255
255
255
255
255
255
255
255
255
255
255
255
255
255
255
255
255
255
232
197
183
174
164
159
159
164
174
183
197
232
255
255
255
255
255
255
255
255
255
255
255
255
255
255
255
255
255
255
255
255
255
255
255
255
255
255
255
255
255
255
255
255
255
255
255
255
255
255
255
255
255
255
255
255
255
255
255
255
255
255
255
255
255
255
245
205
167
153
144
139
139
144
153
167
205
245
255
255
255
255
255
255
255
255
255
255
255
255
255
255
255
255
255
255
255
255
255
255
225
187
167
156
153
148
146
146
148
162
186
225
255
255
255
255
255
255
255
255
255
255
255
255
255
255
255
255
255
255
255
255
255
255
255
255
255
255
255
255
255
255
255
255
255
255
255
255
255
255
255
255
255
255
255
255
255
255
255
255
255
255
255
255
255
255
227
178
144
132
127
125
125
127
132
144
178
227
255
255
255
255
255
255
255
255
255
255
255
255
255
255
255
255
255
255
255
255
255
255
222
174
155
148
140
135
131
130
133
138
162
218
255
255
255
255
255
255
255
255
255
255
255
255
255
255
255
255
255
255
255
255
255
255
255
255
255
255
255
255
255
255
255
255
255
255
255
255
255
255
255
255
255
255
255
255
255
255
255
255
255
255
255
255
255
255
209
150
120
106
99
97
101
110
119
127
152
209
255
255
255
255
255
255
255
255
255
255
255
255
255
255
255
255
255
255
255
255
255
255
219
170
148
136
130
124
118
115
115
118
139
201
252
255
255
255
255
255
255
255
255
255
255
255
255
255
255
255
255
255
255
255
255
255
255
255
255
255
255
255
255
255
255
255
255
255
255
255
255
255
255
255
255
255
255
255
255
255
255
255
255
255
255
255
255
255
189
116
92
88
85
86
87
92
100
113
133
196
255
255
255
255
255
255
255
255
255
255
255
255
255
255
255
255
255
255
255
255
255
255
221
174
144
127
114
102
98
91
90
91
105
151
217
242
252
255
255
255
255
255
255
255
255
255
255
255
255
255
255
255
255
255
255
255
255
255
255
255
255
255
255
255
255
255
255
255
255
255
255
255
255
255
255
255
255
255
255
255
255
255
255
255
252
245
237
222
141
82
69
65
65
67
72
79
87
98
123
190
255
255
255
255
255
255
255
255
255
255
255
255
255
255
255
255
255
255
255
255
255
255
227
180
145
116
95
83
71
68
64
68
80
111
154
203
227
246
254
255
255
255
255
255
255
255
255
255
255
255
255
255
255
255
255
255
255
255
255
255
255
255
255
255
255
255
255
255
255
255
255
255
255
255
255
255
255
255
255
255
255
255
253
243
223
208
191
160
101
57
47
46
50
54
60
66
77
87
114
191
255
255
255
255
255
255
255
255
255
255
255
255
255
255
255
255
255
255
255
255
255
255
235
187
137
104
89
74
68
60
54
51
55
73
104
141
181
212
244
254
255
255
255
255
255
255
255
255
255
255
255
255
255
255
255
255
255
255
255
255
255
255
255
255
255
255
255
255
255
255
255
255
255
255
255
255
255
255
255
255
253
245
225
195
176
165
148
120
78
47
37
38
43
47
53
59
69
82
118
199
255
255
255
255
255
255
255
255
255
255
255
255
255
255
255
255
255
255
255
255
255
255
243
196
132
99
84
72
64
53
49
48
48
56
72
95
119
146
184
225
244
252
255
255
255
255
255
255
255
255
255
255
255
255
255
255
255
255
255
255
255
255
255
255
255
255
255
255
255
255
255
255
255
255
255
255
255
255
254
247
227
202
171
151
147
141
120
92
60
42
35
34
39
42
47
57
65
87
132
208
255
255
255
255
255
255
255
255
255
255
255
255
255
255
255
255
255
255
255
255
255
255
252
203
131
106
81
71
59
53
49
43
43
43
49
63
70
89
104
143
181
209
236
251
255
255
255
255
255
255
255
255
255
255
255
255
255
255
255
255
255
255
255
255
255
255
255
255
255
255
255
255
255
255
255
253
250
244
225
198
173
155
136
135
130
118
89
66
54
43
39
38
37
42
48
59
74
100
151
218
255
255
255
255
255
255
255
255
255
255
255
255
255
255
255
255
255
255
255
255
255
255
255
218
142
109
85
78
61
54
46
42
38
37
41
50
52
59
65
85
105
133
161
201
235
251
255
255
255
255
255
255
255
255
255
255
255
255
255
255
255
255
255
255
255
255
255
255
255
255
253
248
240
232
221
212
199
180
159
144
135
132
121
119
107
84
66
55
48
43
40
41
43
49
55
68
85
116
173
230
255
255
255
255
255
255
255
255
255
255
255
255
255
255
255
255
255
255
255
255
255
255
255
229
168
125
88
77
60
51
47
42
37
36
37
44
43
50
53
64
72
88
97
116
150
182
208
217
218
220
219
218
218
218
219
220
219
218
219
218
220
219
218
218
218
219
220
219
218
216
206
199
192
181
167
157
148
140
130
127
122
115
102
91
76
63
53
51
46
43
42
45
48
56
60
73
100
139
200
239
255
255
255
255
255
255
255
255
255
255
255
255
255
255
255
255
255
255
255
255
255
255
255
235
191
150
110
92
69
56
48
41
38
36
38
41
42
46
45
55
58
65
72
74
84
99
123
145
160
163
166
166
166
165
166
164
166
165
165
167
164
166
166
166
165
166
164
166
164
156
149
148
144
142
138
137
128
120
114
108
99
85
68
63
56
52
49
47
48
45
44
48
55
64
71
85
127
173
221
248
255
255
255
255
255
255
255
255
255
255
255
255
255
255
255
255
255
255
255
255
255
255
255
245
212
169
139
103
79
59
48
39
35
33
34
34
38
38
42
47
49
53
59
59
66
68
77
91
109
120
131
135
140
136
136
135
138
138
138
137
135
136
136
140
136
136
135
138
134
126
127
127
124
121
126
119
118
102
92
81
68
62
56
51
52
43
44
41
40
42
41
43
53
64
80
113
163
204
238
253
255
255
255
255
255
255
255
255
255
255
255
255
255
255
255
255
255
255
255
255
255
255
255
252
233
193
163
132
94
67
48
36
33
30
28
29
32
32
36
39
45
49
51
51
56
59
63
66
75
84
91
106
118
120
120
126
124
126
126
124
126
122
126
127
126
122
126
124
119
117
121
116
115
106
110
94
85
74
70
62
56
53
50
46
44
37
36
32
31
30
33
39
52
67
92
135
192
233
251
255
255
255
255
255
255
255
255
255
255
255
255
255
255
255
255
255
255
255
255
255
255
255
255
255
251
230
194
157
115
84
60
44
38
33
30
27
27
27
27
30
36
41
47
47
50
52
56
55
59
61
66
73
83
91
92
98
103
102
102
102
101
102
102
102
102
101
102
103
94
99
99
92
90
82
83
68
62
57
56
52
54
49
45
38
37
32
31
26
26
28
35
42
55
73
105
148
211
248
255
255
255
255
255
255
255
255
255
255
255
255
255
255
255
255
255
255
255
255
255
255
255
255
255
255
255
252
233
194
159
121
94
72
51
44
35
31
28
26
25
26
26
29
33
38
48
46
50
47
51
55
57
57
61
65
68
68
72
74
74
74
75
73
74
75
75
75
75
74
69
74
70
66
65
62
62
57
56
53
52
48
49
42
39
31
33
30
26
25
27
33
45
53
70
89
128
170
205
241
255
255
255
255
255
255
255
255
255
255
255
255
255
255
255
255
255
255
255
255
255
255
255
255
255
255
255
255
241
220
205
169
141
107
78
59
46
35
30
29
24
24
25
24
27
30
34
36
41
41
47
49
50
52
53
56
57
57
57
60
62
62
63
61
62
62
63
62
61
61
59
63
57
58
57
57
54
54
52
50
50
42
39
31
32
31
28
27
27
27
33
40
50
58
80
109
140
170
193
228
255
255
255
255
255
255
255
255
255
255
255
255
255
255
255
255
255
255
255
255
255
255
255
255
255
255
255
255
237
218
211
184
175
140
116
88
67
50
39
32
28
27
28
25
27
27
29
28
31
33
37
40
44
48
51
54
53
56
54
56
58
58
56
58
57
58
59
58
57
58
56
57
54
56
53
57
53
53
48
43
42
36
30
31
28
29
23
26
29
29
32
40
50
67
86
119
138
162
186
220
255
255
255
255
255
255
255
255
255
255
255
255
255
255
255
255
255
255
255
255
255
255
255
255
255
255
255
255
237
218
211
186
184
155
136
115
93
80
63
53
42
33
32
29
28
29
28
29
28
30
31
35
35
41
48
54
52
58
55
56
58
58
58
57
57
60
59
57
58
58
58
58
57
56
52
53
48
44
40
39
36
33
27
28
27
25
22
25
26
28
34
44
60
79
96
113
135
160
186
220
255
255
255
255
255
255
255
255
255
255
255
255
255
255
255
255
255
255
255
255
255
255
255
255
255
255
255
255
241
222
212
191
185
164
146
130
114
111
94
89
73
57
48
39
36
33
30
33
29
31
29
34
34
34
39
44
46
51
53
51
53
52
52
53
53
54
52
52
51
53
49
47
46
42
41
40
36
34
33
33
31
29
28
28
28
26
24
26
27
29
37
51
67
80
97
110
138
163
193
228
255
255
255
255
255
255
255
255
255
255
255
255
255
255
255
255
255
255
255
255
255
255
255
255
255
255
255
255
248
229
214
201
185
174
148
133
115
114
102
108
97
94
77
67
53
44
39
40
36
38
34
38
38
37
37
40
41
45
48
47
48
49
48
47
45
44
42
40
37
36
34
31
31
30
30
30
31
30
32
28
28
28
29
28
28
26
27
30
34
37
46
55
70
80
96
111
145
169
206
241
255
255
255
255
255
255
255
255
255
255
255
255
255
255
255
255
255
255
255
255
255
255
255
255
255
255
255
255
253
241
222
210
193
183
162
138
118
117
109
111
105
104
101
100
84
72
61
56
51
53
47
50
48
47
47
48
50
49
51
48
47
47
44
43
40
39
37
34
31
31
29
28
30
27
29
27
32
29
29
27
27
28
28
29
30
31
37
41
46
48
51
55
69
83
100
118
157
189
228
251
255
255
255
255
255
255
255
255
255
255
255
255
255
255
255
255
255
255
255
255
255
255
255
255
255
255
255
255
255
252
241
227
209
186
169
141
118
109
110
111
112
110
110
114
107
101
94
80
72
70
63
59
59
57
52
51
49
45
45
43
43
40
36
35
34
35
33
32
31
31
28
29
31
29
26
26
26
25
24
24
25
28
29
31
36
37
41
40
42
43
53
62
78
93
112
146
192
226
249
255
255
255
255
255
255
255
255
255
255
255
255
255
255
255
255
255
255
255
255
255
255
255
255
255
255
255
255
255
255
255
252
238
214
190
166
144
124
108
103
96
101
100
104
114
116
114
112
99
94
84
75
60
52
47
42
44
39
38
35
37
36
34
32
31
31
31
31
30
29
29
28
29
27
26
24
22
21
18
20
18
20
23
22
25
27
25
25
27
34
41
56
77
104
126
153
208
238
251
255
255
255
255
255
255
255
255
255
255
255
255
255
255
255
255
255
255
255
255
255
255
255
255
255
255
255
255
255
255
255
254
247
225
202
178
157
139
127
111
94
86
83
82
83
90
96
100
98
92
83
75
66
61
54
52
45
44
38
39
36
38
35
34
36
34
34
31
30
29
28
26
28
27
25
20
21
19
19
16
16
17
17
18
19
16
16
17
20
24
36
49
66
87
120
158
216
251
255
255
255
255
255
255
255
255
255
255
255
255
255
255
255
255
255
255
255
255
255
255
255
255
255
255
255
255
255
255
255
255
255
252
236
209
184
158
139
126
113
94
84
75
72
71
65
63
64
64
65
63
60
56
55
53
49
51
44
45
41
40
38
35
31
28
30
26
26
23
22
22
22
20
20
18
15
15
14
13
13
12
14
12
14
15
13
13
15
16
21
31
42
55
70
88
125
187
227
248
255
255
255
255
255
255
255
255
255
255
255
255
255
255
255
255
255
255
255
255
255
255
255
255
255
255
255
255
255
255
255
255
255
249
224
199
170
147
129
114
97
84
76
65
62
61
61
54
48
40
39
38
36
36
35
35
34
33
32
31
27
24
22
19
17
17
15
12
13
12
12
13
12
13
11
9
10
8
9
7
9
9
8
10
12
12
11
13
17
22
28
40
50
66
79
107
136
187
222
241
255
255
255
255
255
255
255
255
255
255
255
255
255
255
255
255
255
255
255
255
255
255
255
255
255
255
255
255
255
255
255
255
255
248
218
191
162
142
121
108
89
79
69
58
51
45
43
37
31
27
23
24
23
22
22
21
19
18
17
15
13
11
12
11
9
9
9
8
8
8
8
9
8
8
8
8
7
7
6
8
8
8
8
10
11
14
14
16
21
26
33
48
56
77
89
119
134
182
218
237
255
255
255
255
255
255
255
255
255
255
255
255
255
255
255
255
255
255
255
255
255
255
255
255
255
255
255
255
255
255
255
255
255
248
218
188
159
138
117
104
85
76
63
54
42
38
30
26
21
20
15
16
14
15
14
13
12
10
10
10
8
9
8
8
8
7
7
8
8
7
8
7
7
7
7
8
7
8
6
9
7
9
9
12
13
18
17
21
26
33
42
62
66
91
97
121
136
182
218
237
255
255
255
255
255
255
255
255
255
255
255
255
255
255
255
255
255
255
255
255
255
255
255
255
255
255
255
255
255
255
255
255
255
249
224
191
162
138
117
103
83
74
59
49
38
31
26
22
17
18
12
13
10
12
12
12
10
10
9
9
8
9
8
9
8
8
8
9
8
8
9
8
8
9
8
9
8
9
9
11
10
12
13
16
19
24
26
28
34
44
52
71
74
94
100
121
145
189
222
241
255
255
255
255
255
255
255
255
255
255
255
255
255
255
255
255
255
255
255
255
255
255
255
255
255
255
255
255
255
255
255
255
255
252
236
199
170
142
120
104
86
74
58
46
37
30
25
20
17
15
12
13
9
10
9
11
10
12
11
9
10
11
9
11
9
10
9
11
11
12
11
12
12
13
12
14
14
17
14
19
17
20
20
22
26
31
37
37
43
47
54
71
80
94
108
125
163
202
229
248
255
255
255
255
255
255
255
255
255
255
255
255
255
255
255
255
255
255
255
255
255
255
255
255
255
255
255
255
255
255
255
255
255
254
247
219
184
151
129
109
94
76
59
50
37
31
25
21
19
15
14
11
10
9
9
10
10
12
12
11
12
12
13
14
12
13
13
16
15
17
18
19
19
21
21
22
22
23
22
24
23
26
26
28
36
40
45
48
50
52
62
75
89
100
116
142
187
218
241
253
255
255
255
255
255
255
255
255
255
255
255
255
255
255
255
255
255
255
255
255
255
255
255
255
255
255
255
255
255
255
255
255
255
255
254
243
215
180
148
126
108
90
72
56
45
35
30
22
22
16
16
12
12
9
10
11
12
14
14
13
15
16
18
18
18
19
20
21
21
23
25
24
25
25
26
27
28
28
29
29
31
31
33
41
48
54
60
67
72
75
83
92
104
121
149
189
222
241
252
255
255
255
255
255
255
255
255
255
255
255
255
255
255
255
255
255
255
255
255
255
255
255
255
255
255
255
255
255
255
255
255
255
255
255
255
254
247
225
196
167
148
134
114
85
61
45
36
29
26
20
19
15
15
13
14
14
17
19
19
19
23
22
27
23
27
26
27
27
30
32
30
30
31
30
32
35
36
35
36
41
44
47
54
69
78
89
102
112
122
134
147
157
171
189
218
236
248
253
255
255
255
255
255
255
255
255
255
255
255
255
255
255
255
255
255
255
255
255
255
255
255
255
255
255
255
255
255
255
255
255
255
255
255
255
255
255
255
253
245
228
210
195
176
145
104
72
54
43
37
29
26
21
19
19
20
25
28
31
31
31
34
32
36
33
36
33
35
35
40
43
40
41
43
45
48
50
51
54
56
63
73
79
99
117
131
152
165
180
193
213
230
240
248
253
255
255
255
255
255
255
255
255
255
255
255
255
255
255
255
255
255
255
255
255
255
255
255
255
255
255
255
255
255
255
255
255
255
255
255
255
255
255
255
255
255
255
255
255
255
253
248
239
228
209
176
130
96
76
61
51
42
38
37
37
40
45
45
45
46
47
46
51
51
54
53
56
58
64
73
78
78
81
85
91
92
94
99
100
109
115
126
140
154
165
184
197
213
228
241
252
255
255
255
255
255
255
255
255
255
255
255
255
255
255
255
255
255
255
255
255
255
255
255
255
255
255
255
255
255
255
255
255
255
255
255
255
255
255
255
255
255
255
255
255
255
255
255
255
255
255
255
255
255
252
239
209
165
130
106
91
79
75
72
71
76
77
82
79
82
85
86
90
94
105
119
136
149
157
162
165
174
180
187
187
188
187
192
199
203
210
215
218
219
222
225
232
240
248
253
255
255
255
255
255
255
255
255
255
255
255
255
255
255
255
255
255
255
255
255
255
255
255
255
255
255
255
255
255
